<svg xmlns="http://www.w3.org/2000/svg" width="328" height="328" viewBox="0 0 328 328">
  <g id="exercise_v" transform="translate(-43 -185)">
    <circle id="Ellipse_22" data-name="Ellipse 22" cx="164" cy="164" r="164" transform="translate(43 185)" fill="#d0f7ef" opacity="0.37"/>
    <circle id="Ellipse_21" data-name="Ellipse 21" cx="152" cy="152" r="152" transform="translate(55 197)" fill="#d0f7ef" opacity="0.37"/>
    <g id="Group_422" data-name="Group 422" transform="translate(-45.057 96.943)">
      <circle id="Ellipse_26" data-name="Ellipse 26" cx="138" cy="138" r="138" transform="translate(114.057 114.057)" fill="#d0f7ef"/>
      <g id="Group_421" data-name="Group 421" transform="translate(142.121 164.319)">
        <ellipse id="Floor" cx="109.936" cy="63.471" rx="109.936" ry="63.471" transform="translate(0 37.574)" fill="#f5f5f5"/>
        <path id="Shadow" d="M207.342,351.169,339.465,427.45,401,391.922,268.878,315.64Z" transform="translate(-192.351 -272.864)" fill="#e0e0e0"/>
        <ellipse id="Shadow-2" data-name="Shadow" cx="8.991" cy="5.191" rx="8.991" ry="5.191" transform="translate(17.323 101.48)" fill="#e0e0e0"/>
        <ellipse id="Shadow-3" data-name="Shadow" cx="20.995" cy="12.121" rx="20.995" ry="12.121" transform="translate(138.802 47.241)" fill="#e0e0e0"/>
        <g id="Ball" transform="translate(122.369 0)">
          <circle id="Ellipse_27" data-name="Ellipse 27" cx="26.465" cy="26.465" r="26.465" transform="translate(0 37.427) rotate(-45)" fill="#27debf"/>
          <circle id="Ellipse_28" data-name="Ellipse 28" cx="26.465" cy="26.465" r="26.465" transform="translate(0 37.427) rotate(-45)" opacity="0.3"/>
          <path id="Path_608" data-name="Path 608" d="M501.078,253.337c-2.47,1.21-4.914,3.44-4.676,6.18a5.624,5.624,0,0,0,2.2,3.732,16.682,16.682,0,0,0,3.882,2.146l13.928,6.152a16.511,16.511,0,0,0,4.246,1.431,5.563,5.563,0,0,0,4.264-.955c1.894-1.519,2.077-4.347,1.62-6.731C524.336,253.816,511.26,248.351,501.078,253.337Z" transform="translate(-470.359 -238.321)" fill="#fff" opacity="0.1"/>
          <g id="Group_409" data-name="Group 409" transform="translate(10.989 10.965)" opacity="0.2">
            <path id="Path_609" data-name="Path 609" d="M494.6,252.649a4.136,4.136,0,0,0,3.051,2.876,12.6,12.6,0,0,0,11.163-2.241,4.137,4.137,0,0,0,1.7-3.83,3.935,3.935,0,0,0-2.64-2.717c-.565-.023-1.134-.026-1.7-.012a8.283,8.283,0,0,1,1.146.289,3.176,3.176,0,0,1,1.189,5.922,12.09,12.09,0,0,1-10.71,2.15,3.176,3.176,0,0,1-1.189-5.922,8.61,8.61,0,0,1,1.236-.891q-.847.3-1.663.662A4.061,4.061,0,0,0,494.6,252.649Z" transform="translate(-480.354 -246.716)"/>
            <path id="Path_610" data-name="Path 610" d="M468.615,327.166c-.014-.032-.029-.063-.042-.1h0C468.587,327.1,468.6,327.135,468.615,327.166Z" transform="translate(-466.373 -289.984)"/>
            <path id="Path_611" data-name="Path 611" d="M572.535,278.718c.04.081.081.162.12.244C572.616,278.88,572.575,278.8,572.535,278.718Z" transform="translate(-522.352 -263.948)"/>
            <path id="Path_612" data-name="Path 612" d="M469.361,328.816c.06.126.125.25.187.375C469.485,329.066,469.421,328.942,469.361,328.816Z" transform="translate(-466.797 -290.924)"/>
            <path id="Path_613" data-name="Path 613" d="M522.937,322.172a18.214,18.214,0,0,1-4.028,4.866c-8.634,7.594-24.517,10.783-35.413,7.11a18.2,18.2,0,0,1-5.6-2.937q.728.833,1.519,1.6a20.7,20.7,0,0,0,3.931,1.77c5.519,1.862,12.3,1.984,18.792.68s12.7-4.033,17.073-7.881a20.8,20.8,0,0,0,2.943-3.152Q522.589,323.22,522.937,322.172Z" transform="translate(-471.393 -287.346)"/>
            <path id="Path_614" data-name="Path 614" d="M511.494,304.309c-9.081,7.995-25.8,11.351-37.26,7.481-4.357-1.467-7.44-3.8-8.931-6.684.123.522.258,1.038.41,1.545h0a16.69,16.69,0,0,0,8.374,5.578c5.8,1.956,12.931,2.088,19.76.717S507.2,308.7,511.8,304.657a16.653,16.653,0,0,0,5.57-8.386c-.055-.522-.129-1.046-.216-1.571C516.891,297.939,514.941,301.276,511.494,304.309Z" transform="translate(-464.612 -272.554)"/>
            <path id="Path_615" data-name="Path 615" d="M578.339,306.988c-.005.106-.014.212-.021.318C578.324,307.2,578.333,307.094,578.339,306.988Z" transform="translate(-525.466 -279.17)"/>
            <path id="Path_616" data-name="Path 616" d="M554.778,257.662l.238.173Z" transform="translate(-512.791 -252.61)"/>
            <path id="Path_617" data-name="Path 617" d="M475.155,279.755a35.531,35.531,0,0,0,31.477-6.319c3.169-2.79,4.854-5.891,4.883-8.891-.156-.168-.317-.33-.477-.494.166,3.015-1.469,6.185-4.711,9.038-7.561,6.655-21.479,9.45-31.024,6.228-4.092-1.381-6.824-3.673-7.834-6.519-.084.213-.171.425-.25.64C468.4,276.195,471.155,278.405,475.155,279.755Z" transform="translate(-465.644 -256.05)"/>
            <path id="Path_618" data-name="Path 618" d="M464,285.733c1.159,3.359,4.344,6.048,9.1,7.65,5.409,1.828,12.052,1.949,18.419.671s12.448-3.954,16.732-7.728c3.771-3.316,5.666-7.027,5.436-10.575q-.29-.542-.6-1.067c.738,3.718-1.088,7.729-5.136,11.3-8.458,7.441-24.024,10.566-34.7,6.966-5.111-1.725-8.342-4.716-9.1-8.429-.057.4-.106.8-.144,1.209Z" transform="translate(-463.911 -261.776)"/>
            <path id="Path_619" data-name="Path 619" d="M463.806,300.765c.008-.172.019-.344.03-.516C463.825,300.421,463.814,300.592,463.806,300.765Z" transform="translate(-463.806 -275.541)"/>
            <path id="Path_620" data-name="Path 620" d="M552.885,256.343c-.078-.052-.155-.1-.233-.156C552.73,256.238,552.807,256.291,552.885,256.343Z" transform="translate(-511.646 -251.816)"/>
            <path id="Path_621" data-name="Path 621" d="M481.97,266.237a27.154,27.154,0,0,0,24.055-4.83c2.66-2.341,3.959-4.972,3.715-7.475-.168-.1-.333-.193-.5-.285.384,2.448-.855,5.07-3.518,7.414-5.752,5.064-16.341,7.189-23.6,4.739-3.361-1.134-5.515-3.076-6.106-5.481-.121.15-.236.3-.354.457C476.4,263.178,478.612,265.1,481.97,266.237Z" transform="translate(-470.187 -250.448)"/>
            <path id="Path_622" data-name="Path 622" d="M471.747,274.49c.061-.1.124-.2.186-.306C471.871,274.286,471.808,274.388,471.747,274.49Z" transform="translate(-468.082 -261.506)"/>
            <path id="Path_623" data-name="Path 623" d="M473.307,272.034c-.064.095-.126.19-.188.286C473.181,272.224,473.244,272.129,473.307,272.034Z" transform="translate(-468.821 -260.349)"/>
          </g>
          <path id="Path_624" data-name="Path 624" d="M483.463,305.309c-15.763-6.053-18.118-17.682-16.873-27.06l-.007,0A26.464,26.464,0,1,0,516.524,293C515.314,301.122,499.216,311.358,483.463,305.309Z" transform="translate(-452.781 -252.728)" opacity="0.1"/>
        </g>
        <g id="Mat" transform="translate(14.99 39.456)">
          <path id="Path_625" data-name="Path 625" d="M207.342,343.976l132.124,76.282L401,384.729,268.878,308.448Z" transform="translate(-207.342 -308.448)" fill="#27debf"/>
          <path id="Path_626" data-name="Path 626" d="M207.342,343.976l132.124,76.282L401,384.729,268.878,308.448Z" transform="translate(-207.342 -308.448)" fill="#fff" opacity="0.8"/>
          <path id="Path_627" data-name="Path 627" d="M367.2,399.75c1.366.26,2.911.242,4.154.923a18.511,18.511,0,0,1,2.308,1.846,12.042,12.042,0,0,0,8.308,3.231c2.918.068,9.662-1.853,9.7-5.643.036-2.363-2.6-3.713-4.788-4.6a77.691,77.691,0,0,1-31.671-23.918c-3.09-3.947-5.929-8.319-10.241-10.875-2.748-1.629-5.9-2.4-8.989-3.229a176.468,176.468,0,0,1-47.663-20.811,59.509,59.509,0,0,0,5.633-17.107c-3.59-1.256-7.065,1.848-10.606,3.236a15.639,15.639,0,0,1-8.314.618L263.28,330.2c.486,1.728,1.27,3.406,1.808,5.129.818,2.62.905,5.867-1.14,7.7a8.933,8.933,0,0,1-4.358,1.705l-6.484,1.281c-1.848.366-3.977.949-4.7,2.691-.881,2.13.992,4.4,2.956,5.6,3.66,2.245,8.022,2.97,12.056,4.442,9.457,3.45,16.859,10.895,25.667,15.768a51.913,51.913,0,0,0,19.824,6.2c7.183.73,14.51-.044,21.6,1.338,5.568,1.085,11.238,2.606,16.7,4.25a34.518,34.518,0,0,1,8.434,3.648,20.674,20.674,0,0,1,3.641,2.863,37.408,37.408,0,0,1,2.705,3.6A8.215,8.215,0,0,0,367.2,399.75Z" transform="translate(-229.334 -314.275)" opacity="0.05"/>
          <path id="Path_628" data-name="Path 628" d="M207.342,385.426v1.2l132.124,76.282v-1.2Z" transform="translate(-207.342 -349.897)" fill="#27debf"/>
          <path id="Path_629" data-name="Path 629" d="M207.342,385.426v1.2l132.124,76.282v-1.2Z" transform="translate(-207.342 -349.897)" fill="#fff" opacity="0.6"/>
          <path id="Path_630" data-name="Path 630" d="M493.61,509.253l61.537-35.528v1.2L493.61,510.452Z" transform="translate(-361.486 -397.443)" fill="#27debf"/>
          <path id="Path_631" data-name="Path 631" d="M493.61,509.253l61.537-35.528v1.2L493.61,510.452Z" transform="translate(-361.486 -397.443)" fill="#fff" opacity="0.45"/>
        </g>
        <g id="Water" transform="translate(19.76 75.851)">
          <g id="Group_411" data-name="Group 411" transform="translate(0 0.759)">
            <path id="Path_632" data-name="Path 632" d="M230.558,409.339a14.771,14.771,0,0,0-1.052-2.716q-.068-.147-.144-.3a5.57,5.57,0,0,1,.075-5.246l.093-.167a5.934,5.934,0,0,0,.813-3.088,3.642,3.642,0,0,0-1.763-2.92,5.883,5.883,0,0,0-.818-.4,1.4,1.4,0,0,1-.887-1.3l.006-1.6-5.119-.02-.006,1.6a1.4,1.4,0,0,1-.9,1.289,5.864,5.864,0,0,0-.821.391,3.642,3.642,0,0,0-1.785,2.906,5.935,5.935,0,0,0,.789,3.094l.086.157a5.58,5.58,0,0,1,.043,5.258c-.051.1-.1.2-.145.295a14.532,14.532,0,0,0-1.073,2.708,12.786,12.786,0,0,0-.25,2.754l-.029,7.447a3.243,3.243,0,0,0,1.9,2.676,8.954,8.954,0,0,0,3.7,1.08,11.286,11.286,0,0,0,1.848.007,8.979,8.979,0,0,0,3.684-1.052,3.243,3.243,0,0,0,1.923-2.657l.021-5.386c0-.672.029-1.373.032-2.074A12.667,12.667,0,0,0,230.558,409.339Z" transform="translate(-217.675 -390.373)" fill="#27debf"/>
            <path id="Path_633" data-name="Path 633" d="M230.558,409.339a14.771,14.771,0,0,0-1.052-2.716q-.068-.147-.144-.3a5.57,5.57,0,0,1,.075-5.246l.093-.167a5.934,5.934,0,0,0,.813-3.088,3.642,3.642,0,0,0-1.763-2.92,5.883,5.883,0,0,0-.818-.4,1.4,1.4,0,0,1-.887-1.3l.006-1.6-5.119-.02-.006,1.6a1.4,1.4,0,0,1-.9,1.289,5.864,5.864,0,0,0-.821.391,3.642,3.642,0,0,0-1.785,2.906,5.935,5.935,0,0,0,.789,3.094l.086.157a5.58,5.58,0,0,1,.043,5.258c-.051.1-.1.2-.145.295a14.532,14.532,0,0,0-1.073,2.708,12.786,12.786,0,0,0-.25,2.754l-.029,7.447a3.243,3.243,0,0,0,1.9,2.676,8.954,8.954,0,0,0,3.7,1.08,11.286,11.286,0,0,0,1.848.007,8.979,8.979,0,0,0,3.684-1.052,3.243,3.243,0,0,0,1.923-2.657l.021-5.386c0-.672.029-1.373.032-2.074A12.667,12.667,0,0,0,230.558,409.339Z" transform="translate(-217.675 -390.373)" opacity="0.3"/>
            <path id="Path_634" data-name="Path 634" d="M238.644,408.9l.093-.167a5.918,5.918,0,0,0,.8-2.614,4.775,4.775,0,0,1-.486,1.058,10.085,10.085,0,0,1-2.307,2.407c-.877.716-1.852,1.53-1.961,2.657a3.288,3.288,0,0,0,1.539,2.741,26.558,26.558,0,0,1,2.686,1.886,6.583,6.583,0,0,1,.892,1.114c-.033-.279-.074-.554-.133-.823a14.77,14.77,0,0,0-1.052-2.716q-.068-.147-.144-.3A5.569,5.569,0,0,1,238.644,408.9Z" transform="translate(-226.881 -398.197)" opacity="0.1"/>
            <g id="Group_410" data-name="Group 410" transform="translate(3.221)">
              <path id="Path_635" data-name="Path 635" d="M224.657,393.126l0,.86a1.727,1.727,0,0,0,1.014,1.428,5.441,5.441,0,0,0,4.917.019,2.347,2.347,0,0,0,.766-.662,1.3,1.3,0,0,0,.256-.752l0-.874a.934.934,0,0,0-.026-.233,1.859,1.859,0,0,0-.984-1.192.381.381,0,0,0-.051-.027,5.451,5.451,0,0,0-4.866.008,1.867,1.867,0,0,0-1,1.181A.989.989,0,0,0,224.657,393.126Z" transform="translate(-224.654 -390.12)" fill="#27debf"/>
              <path id="Path_636" data-name="Path 636" d="M224.657,393.126l0,.86a1.727,1.727,0,0,0,1.014,1.428,5.441,5.441,0,0,0,4.917.019,2.347,2.347,0,0,0,.766-.662,1.3,1.3,0,0,0,.256-.752l0-.874a.934.934,0,0,0-.026-.233,1.859,1.859,0,0,0-.984-1.192.381.381,0,0,0-.051-.027,5.451,5.451,0,0,0-4.866.008,1.867,1.867,0,0,0-1,1.181A.989.989,0,0,0,224.657,393.126Z" transform="translate(-224.654 -390.12)" opacity="0.1"/>
              <path id="Path_637" data-name="Path 637" d="M230.59,394.561c1.361-.779,1.366-2.049.011-2.838a5.433,5.433,0,0,0-4.916-.019c-1.361.779-1.366,2.049-.011,2.838A5.433,5.433,0,0,0,230.59,394.561Z" transform="translate(-224.658 -390.12)" opacity="0.2"/>
              <path id="Path_638" data-name="Path 638" d="M224.667,390.95l0,.518a.972.972,0,0,0,.026.243,1.868,1.868,0,0,0,.987,1.188,4.831,4.831,0,0,0,2.171.586,5.139,5.139,0,0,0,2.746-.57,2.378,2.378,0,0,0,.765-.659,1.323,1.323,0,0,0,.228-.516.919.919,0,0,0,.028-.236l0-.534a1.724,1.724,0,0,0-1.01-1.425c-.06-.034-.121-.068-.185-.1a5.47,5.47,0,0,0-4.732.079A1.728,1.728,0,0,0,224.667,390.95Z" transform="translate(-224.66 -388.948)" fill="#27debf"/>
              <path id="Path_639" data-name="Path 639" d="M224.667,390.95l0,.518a.972.972,0,0,0,.026.243,1.868,1.868,0,0,0,.987,1.188,4.831,4.831,0,0,0,2.171.586,5.139,5.139,0,0,0,2.746-.57,2.378,2.378,0,0,0,.765-.659,1.323,1.323,0,0,0,.228-.516.919.919,0,0,0,.028-.236l0-.534a1.724,1.724,0,0,0-1.01-1.425c-.06-.034-.121-.068-.185-.1a5.47,5.47,0,0,0-4.732.079A1.728,1.728,0,0,0,224.667,390.95Z" transform="translate(-224.66 -388.948)" opacity="0.1"/>
              <path id="Path_640" data-name="Path 640" d="M224.67,390.933c0,1.1,1.548,2,3.468,2.012s3.48-.881,3.484-1.985-1.548-2-3.468-2.012S224.674,389.829,224.67,390.933Z" transform="translate(-224.663 -388.948)" fill="#27debf"/>
            </g>
          </g>
          <path id="Path_641" data-name="Path 641" d="M229.6,388l-.007,1.8a.344.344,0,0,0,.009.084.647.647,0,0,0,.342.412,1.673,1.673,0,0,0,.752.2,1.78,1.78,0,0,0,.952-.2.824.824,0,0,0,.265-.228.457.457,0,0,0,.079-.179.329.329,0,0,0,.01-.082l.007-1.806a.6.6,0,0,0-.35-.494c-.021-.012-.042-.024-.065-.034a1.9,1.9,0,0,0-1.639.028A.6.6,0,0,0,229.6,388Z" transform="translate(-224.092 -387.304)" fill="#27debf"/>
          <path id="Path_642" data-name="Path 642" d="M229.6,388l-.007,1.8a.344.344,0,0,0,.009.084.647.647,0,0,0,.342.412,1.673,1.673,0,0,0,.752.2,1.78,1.78,0,0,0,.952-.2.824.824,0,0,0,.265-.228.457.457,0,0,0,.079-.179.329.329,0,0,0,.01-.082l.007-1.806a.6.6,0,0,0-.35-.494c-.021-.012-.042-.024-.065-.034a1.9,1.9,0,0,0-1.639.028A.6.6,0,0,0,229.6,388Z" transform="translate(-224.092 -387.304)" opacity="0.1"/>
          <path id="Path_643" data-name="Path 643" d="M229.608,387.992c0,.382.537.695,1.2.7s1.206-.305,1.207-.688-.537-.695-1.2-.7S229.61,387.609,229.608,387.992Z" transform="translate(-224.1 -387.304)" fill="#27debf"/>
          <path id="Path_644" data-name="Path 644" d="M231.292,388.515c0,.136.19.247.426.248s.428-.108.429-.244-.191-.247-.427-.248S231.292,388.379,231.292,388.515Z" transform="translate(-225.007 -387.824)" fill="#27debf" opacity="0.5"/>
          <path id="Path_645" data-name="Path 645" d="M231.292,388.515c0,.136.19.247.426.248s.428-.108.429-.244-.191-.247-.427-.248S231.292,388.379,231.292,388.515Z" transform="translate(-225.007 -387.824)" opacity="0.3"/>
        </g>
        <g id="Character" transform="translate(22.034 22.805)">
          <path id="Path_646" data-name="Path 646" d="M325.226,313.472s3.188-25.919,2.468-35.385c-.369-4.854-2.717-5.956-6.306-5.679S297.26,283.6,297.26,283.6l2.9,7.063,17.109-5.367s-1.74,10.083-2.142,12-1.243,4.5-1.911,6.81a17.373,17.373,0,0,0-.784,3.331C312.438,309.124,325.226,313.472,325.226,313.472Z" transform="translate(-262.803 -272.369)" fill="#ffa8a7"/>
          <path id="Path_647" data-name="Path 647" d="M340.263,296.89c2.379-.47,4.759-1.871,5.506-2.99a5.212,5.212,0,0,1-2.38,2.99,20.552,20.552,0,0,1-3.434,1.779Z" transform="translate(-285.793 -283.963)" fill="#f28f8f"/>
          <path id="Path_648" data-name="Path 648" d="M401.294,355.35c-.357-1.321-2.675-2.711-9.58-3.87s-13.186.008-13.221.816,1.7,6.281,9.663,7.275S402.022,358.247,401.294,355.35Z" transform="translate(-306.544 -314.705)" fill="#263238"/>
          <g id="Character-2" data-name="Character" transform="translate(0 1.836)">
            <path id="Path_649" data-name="Path 649" d="M378.323,332.752s-4.5-29.19-3.852-35.15c.669-6.155,3-9.013,6.917-9.414,5.118,2.974,7.844,10.077,11.118,17.07s6.818,22.02,7.006,29.2c.186,7.141-5.486,12.289-11.917,13.225S378.323,332.752,378.323,332.752Z" transform="translate(-304.344 -282.723)" fill="#ffa8a7"/>
            <path id="Path_650" data-name="Path 650" d="M393.607,324.851a11.033,11.033,0,0,1-3.95-6.657l6.418-2.24,4.344,3.613.129.279c.056.121.112.242.168.363.124.265.249.546.374.834.036.083.072.168.108.252q.143.337.287.692l.1.241c.127.319.254.646.38.984l0,.012c.126.336.251.683.376,1.036l.079.226q.166.476.331.968c.016.048.033.1.048.144.26.782.517,1.595.769,2.429l.04.134q.185.615.366,1.243l0,.008A23.586,23.586,0,0,1,393.607,324.851Z" transform="translate(-312.555 -297.674)" fill="#f28f8f"/>
            <path id="Path_651" data-name="Path 651" d="M385.173,288.457c2.444-.967,5.423,1.291,7,2.3,3.2,2.049,22.755,17.29,27.314,20.861q1.484.9,3.019,1.72l-5.373,8.4a9.166,9.166,0,0,0-2.028-3.249c-4.875-3.479-14.318-5.376-20.382-7.739-4.724-1.84-5.713-2.88-7.306-5.579C386.178,303.074,381.779,290.055,385.173,288.457Z" transform="translate(-309.462 -282.741)" fill="#ffa8a7"/>
            <path id="Path_652" data-name="Path 652" d="M380.425,368.25l-1.931-14.434s1.734,3.982,10.668,5.027,12.358-.467,12.132-1.973c0,0,2.334,9.035,1.43,14.907s-9.863,12.121-9.863,12.121Z" transform="translate(-306.544 -318.061)" fill="#37474f"/>
            <path id="Path_653" data-name="Path 653" d="M388.543,375.759c-.821.016-1.59.05-2.322.1l9.931,12.5h2.319c2.574-2.046,7.74-6.64,8.414-11.026.663-4.306-.415-10.307-1.037-13.205C406.2,367.446,398.754,375.559,388.543,375.759Z" transform="translate(-310.705 -323.61)" opacity="0.15"/>
            <g id="Group_412" data-name="Group 412" transform="translate(105.383 18.28)">
              <path id="Path_654" data-name="Path 654" d="M468.122,316.089c-3.213-.6-4.733,1.73-5.926,3.653s-3.183,5.457-4.073,6.053-1.4-.012-2.655.957-2.2,2.749-1.805,3.428l.926,1.6a3.422,3.422,0,0,0-2.876,1.085c-1.381,1.373-.665,1.617.117,2.4s2.61,4.329,4.447,5.3a17.138,17.138,0,0,0,8.535-7.094C468.4,327.863,468.122,316.089,468.122,316.089Z" transform="translate(-450.932 -315.975)" fill="#27debf"/>
              <path id="Path_655" data-name="Path 655" d="M463.366,341.286a1.37,1.37,0,0,1-1.092-1.728,16.946,16.946,0,0,1,2.443-4.83c1.243-1.761,3.57-5.061,3.964-6.889s1.236-6.894,2.615-9.024,2.8-3.355,4.624-2.67-3.924,14.322-5.607,16.627S463.366,341.286,463.366,341.286Z" transform="translate(-457.012 -315.954)" fill="#37474f"/>
              <path id="Path_656" data-name="Path 656" d="M465.488,341.2c4.546-2.424,6.044-4.78,7.369-7.831s4.481-5.9,5.292-8.658.9-9.822-2.229-8.109-3.774,8.03-5.147,11.682S461.029,343.574,465.488,341.2Z" transform="translate(-458.072 -316.158)" fill="#263238"/>
            </g>
            <path id="Path_657" data-name="Path 657" d="M403.294,386.338c2.078-.314,6.071.542,9.7,5.6,3.892,5.432,4.621,14.913,2.176,15.68a32.922,32.922,0,0,1-9.545-2.7C401.735,402.888,395.2,389.126,403.294,386.338Z" transform="translate(-317.818 -335.542)" fill="#263238"/>
            <g id="Group_413" data-name="Group 413" transform="translate(56.274 50.131)">
              <path id="Path_658" data-name="Path 658" d="M440.106,430.843c-6.028-2.369-10.961-6.438-15.24-10.987-3.432-4.665-18.145-24.626-20.7-27.436-.906-1-3.109-3.561-6.142-4.206-10.737-2.281-30.614-1.964-30.614-1.964l-7.642-1.287L344.529,399.3a30.916,30.916,0,0,0,8.589,6.2,23.613,23.613,0,0,0,13.644,2.989c11.252-.951,17.993-4.131,24.026-5.54,1.742-.407,3.552-.781,4.922,2.08,1.356,2.826,1.482,4.3,5.537,7.338,5.205,3.906,13.791,8.272,17.551,12.933a9.168,9.168,0,0,1,1.08,3.674c.354,4.9,4.472,3.941,7.792,6.074,1.805,1.159,3.151,2.572,5.33,3.054a13.678,13.678,0,0,0,5.991-.111c1.77-.423,4.309-1.7,5.181-3.425C445.326,432.28,441.835,431.522,440.106,430.843Z" transform="translate(-344.529 -384.963)" fill="#ffa8a7"/>
            </g>
            <g id="Group_414" data-name="Group 414" transform="translate(56.274 50.131)">
              <path id="Path_659" data-name="Path 659" d="M440.106,430.843c-6.028-2.369-10.961-6.438-15.24-10.987-3.432-4.665-18.145-24.626-20.7-27.436-.906-1-3.109-3.561-6.142-4.206-10.737-2.281-30.614-1.964-30.614-1.964l-7.642-1.287L344.529,399.3a30.916,30.916,0,0,0,8.589,6.2,23.613,23.613,0,0,0,13.644,2.989c11.252-.951,17.993-4.131,24.026-5.54,1.742-.407,3.552-.781,4.922,2.08,1.356,2.826,1.482,4.3,5.537,7.338,5.205,3.906,13.791,8.272,17.551,12.933a9.168,9.168,0,0,1,1.08,3.674c.354,4.9,4.472,3.941,7.792,6.074,1.805,1.159,3.151,2.572,5.33,3.054a13.678,13.678,0,0,0,5.991-.111c1.77-.423,4.309-1.7,5.181-3.425C445.326,432.28,441.835,431.522,440.106,430.843Z" transform="translate(-344.529 -384.963)" fill="#ffa8a7"/>
            </g>
            <path id="Path_660" data-name="Path 660" d="M436.344,428.205a12.293,12.293,0,0,1-2.547-4.378,24,24,0,0,0-1.59-3.926c-1.875-3.247-14.3.891-19.814,2.58a16.934,16.934,0,0,0-2.063,3c6.671-1.361,11.471-3.341,15.889-4.373,1.742-.407,3.552-.781,4.922,2.08,1.356,2.826,1.482,4.3,5.537,7.338,2.115,1.587,4.789,3.251,7.47,4.979A71.12,71.12,0,0,1,436.344,428.205Z" transform="translate(-323.687 -352.995)" fill="#f28f8f"/>
            <path id="Path_661" data-name="Path 661" d="M360.951,384.963s10.926.533,12.781.666c0,0-4.11,1.112.892,11.222S385.6,406.91,385.6,406.91c-7.842,2.508-11.921,5.328-21.923,4.151-11.921-1.722-19.152-10.648-19.152-10.648Z" transform="translate(-288.255 -334.833)" fill="#455a64"/>
            <path id="Path_662" data-name="Path 662" d="M385.574,423.246h-.012c-.048,0-.139-.007-.271-.022h-.008c-.89-.1-3.536-.683-6.506-3.845h0a62.547,62.547,0,0,1-7.14,1.5c-8.916,1.307-15.6-.266-25.568-5.578l-1.538,1.447a33.5,33.5,0,0,0,14.7,9.628h0q.522.164,1.06.311l.008,0q.5.137,1.021.258l.089.022c.317.073.639.139.963.2l.17.035q.565.106,1.145.19.938.111,1.808.175t1.684.088q.406.012.8.013t.774-.006c.761-.016,1.487-.06,2.184-.128q.7-.069,1.359-.168a28.378,28.378,0,0,0,3.163-.666q.609-.163,1.208-.347c1-.306,1.99-.65,3-1.016.406-.146.816-.3,1.232-.449,1.457-.534,2.992-1.1,4.708-1.646Z" transform="translate(-288.255 -351.169)" opacity="0.15"/>
            <g id="Group_419" data-name="Group 419">
              <path id="Path_663" data-name="Path 663" d="M293.472,349.737c-4.442,1.543-8.638,4.235-5.1,12.125,5.1,11.39,28.089,24.038,39.907,26.724-6.017-9.078-1.007-18.7,2.909-25.022l-1.032-7.711a59.9,59.9,0,0,1-9.417-6.241c-5.871-4.539-8.286-5.767-17.044-3.109C297.691,348.325,293.472,349.737,293.472,349.737Z" transform="translate(-257.304 -313.376)" fill="#27debf"/>
              <path id="Path_664" data-name="Path 664" d="M312.254,388.727c-12.084-6.935-15.882-13.088-20.622-19.01l-3.1,3.786h0q.127.368.278.752l.016.041q.157.4.342.813c2.233,4.983,7.888,10.207,14.534,14.732q1.424.97,2.9,1.894.737.462,1.483.91a99.3,99.3,0,0,0,10.485,5.482,59.186,59.186,0,0,0,10.5,3.707,16.347,16.347,0,0,1-2.574-6.49A70.188,70.188,0,0,1,312.254,388.727Z" transform="translate(-258.103 -326.623)" opacity="0.05"/>
              <path id="Path_665" data-name="Path 665" d="M255.435,330.614s-14.9-7.965-17.261-9.037l13.022-7.659-2.766-7.185s-19.4,6.89-23.068,8.871c-1.932,1.044-2.755,1.91-2.76,3.4-.007,2.477,2.359,5.69,5.624,8.473,6.948,5.923,16.374,11.434,25.552,16.49,2.1,1.561,4.293,3.523,4.293,3.523C260.488,348.681,264,337.52,255.435,330.614Z" transform="translate(-222.603 -292.709)" fill="#ffa8a7"/>
              <g id="Group_418" data-name="Group 418" transform="translate(21.404)">
                <g id="Group_417" data-name="Group 417">
                  <g id="Group_415" data-name="Group 415">
                    <path id="Path_666" data-name="Path 666" d="M294.359,292.235a8.872,8.872,0,1,0-16.3,7.02c.063.145.138.281.207.421l-2.255,4.9-3.327-6.134a1.952,1.952,0,0,0-1.751-1.947,1.81,1.81,0,0,0-1.957,1.739l2.544.219a3.231,3.231,0,0,0-1.221,1.532c-.608,1.579,1.5,4.8,4.318,7.621,0,0,3.992,5.634,4.961,6.426a3.058,3.058,0,0,0,2.188.609l.24-11.089a8.867,8.867,0,0,0,12.35-11.317Z" transform="translate(-268.979 -282.013)" fill="#263238"/>
                    <path id="Path_667" data-name="Path 667" d="M281.755,308.445c-.37.512-1.494-.139-2.387-.518A2.357,2.357,0,0,0,276,310.076c-.094,2.59,3.035,4.612,4.829,4.427,3.092-.318,2.749-2.242,2.749-2.242l4.563,10.04h0c5.257,2.883,15.041-1.648,9.171-4.5l-1.3-2.988a15.337,15.337,0,0,0,3.211-1.277c1.87-1.172,2.449-3.3,2.123-5.726-.524-3.9-1.365-6.876-5.143-13.369-4.142-7.117-12.908-3.433-16.345,1.566S281.755,308.445,281.755,308.445Z" transform="translate(-272.757 -283.958)" fill="#ffa8a7"/>
                    <path id="Path_668" data-name="Path 668" d="M281.25,301.673c-.249.113-1.884-1.059-2.748-1.356-1.2-.412-3.141-7.978-3.141-7.978a3.654,3.654,0,0,1-.714-3.942c.716-2.085,3.356-3.475,5.184-4.4,3.295-1.665,6.982-3.564,8.6-7.055.127-.275.315-.591.617-.595a.729.729,0,0,1,.49.26,4.792,4.792,0,0,1,1.211,3.1c.008.108.032.24.135.27s.186-.054.25-.131a4.241,4.241,0,0,0,.753-1.373c.224-.687,1.372,1.061,1.468,1.3a6.045,6.045,0,0,1-.256,4.692,8.422,8.422,0,0,1-3.558,3.129,51.364,51.364,0,0,1-8.913,3.641c-.98.272-.791,1.254-.234,3.918C280.878,297.492,282.085,301.294,281.25,301.673Z" transform="translate(-271.89 -276.347)" fill="#263238"/>
                    <path id="Path_669" data-name="Path 669" d="M307.226,342.947s-5.4,1.142-7.324.984a5.606,5.606,0,0,1-3.083-1.207,7.668,7.668,0,0,0,2.314,1.993c1.773.969,8.6-.58,8.6-.58Z" transform="translate(-283.97 -312.088)" fill="#f28f8f"/>
                  </g>
                  <g id="Group_416" data-name="Group 416" transform="translate(12.819 12.506)">
                    <path id="Path_670" data-name="Path 670" d="M298.753,312.356l-1.619,1.751a1.252,1.252,0,0,1-.061-1.731A1.164,1.164,0,0,1,298.753,312.356Z" transform="translate(-296.754 -308.055)" fill="#263238"/>
                    <path id="Path_671" data-name="Path 671" d="M312.29,332.042l2.376-.114a1.169,1.169,0,0,1-1.1,1.277A1.246,1.246,0,0,1,312.29,332.042Z" transform="translate(-305.12 -318.782)" fill="#f28f8f"/>
                    <path id="Path_672" data-name="Path 672" d="M319.551,304.962l-2.328-.594a1.153,1.153,0,0,1,1.419-.888A1.262,1.262,0,0,1,319.551,304.962Z" transform="translate(-307.776 -303.444)" fill="#263238"/>
                    <path id="Path_673" data-name="Path 673" d="M311.6,314.56l1.573,5.663,2.768-1.678Z" transform="translate(-304.745 -309.43)" fill="#f28f8f"/>
                  </g>
                </g>
                <path id="Path_674" data-name="Path 674" d="M302.1,318.848a1.036,1.036,0,1,0,1.036-1.036A1.036,1.036,0,0,0,302.1,318.848Z" transform="translate(-286.813 -298.674)" fill="#263238"/>
                <path id="Path_675" data-name="Path 675" d="M318.315,312.549a1,1,0,1,0,1-1A1,1,0,0,0,318.315,312.549Z" transform="translate(-295.545 -295.303)" fill="#263238"/>
              </g>
            </g>
            <g id="Group_420" data-name="Group 420" transform="translate(129.401 85.698)">
              <path id="Path_676" data-name="Path 676" d="M506.334,482.567c-.392.268.216,1.959.572,2.372a5.915,5.915,0,0,0,2.654,1.495,15.449,15.449,0,0,1,5.009,2.621,16.4,16.4,0,0,0,6.276,3.156,12.241,12.241,0,0,0,8.619-1.8c2.88-1.705,2.611-3.336,2.217-4.427Z" transform="translate(-504.714 -473.087)" fill="#37474f"/>
              <path id="Path_677" data-name="Path 677" d="M510.824,462.026c.908.982,5.943,5.945,9.8,7.211,3.065,1.007,7.061,1.965,8.808,3.837,1.818,1.947-.888,4.439-4.619,5.868-3.886,1.488-6.525.286-9.1-1.009-1.814-.911-4.488-2.759-5.829-3.513s-3.832-1.151-4.87-2.255a9.135,9.135,0,0,1-1.231-3.8c-.228-1.362-1.141-2.637-.673-2.71l.754.824C507.371,467.133,511.026,463.893,510.824,462.026Z" transform="translate(-502.972 -462.026)" fill="#27debf"/>
            </g>
          </g>
          <path id="Path_678" data-name="Path 678" d="M248.089,338.894a23.6,23.6,0,0,1-7.072,2.466,12.31,12.31,0,0,0,8.594-1.717Z" transform="translate(-232.518 -308.19)" fill="#f28f8f"/>
        </g>
      </g>
    </g>
  </g>
</svg>
