<svg xmlns="http://www.w3.org/2000/svg" width="328" height="328" viewBox="0 0 328 328">
  <g id="plant_v" transform="translate(-43 -185)">
    <circle id="Ellipse_22" data-name="Ellipse 22" cx="164" cy="164" r="164" transform="translate(43 185)" fill="#eafcfc" opacity="0.37"/>
    <circle id="Ellipse_21" data-name="Ellipse 21" cx="152" cy="152" r="152" transform="translate(55 197)" fill="#eafcfc" opacity="0.37"/>
    <g id="Group_424" data-name="Group 424" transform="translate(-277.371 56)">
      <circle id="Ellipse_29" data-name="Ellipse 29" cx="136.93" cy="136.93" r="136.93" transform="translate(347.371 156)" fill="#eafcfc"/>
    </g>
    <g id="Group_425" data-name="Group 425" transform="translate(-852.074 56.426)">
      <path id="Path_679" data-name="Path 679" d="M925.752,287.49v-6.835h18.734v6.835h2.136v43.646h3.944V317.527h3.287v-6.655h4.766V291.447h6.9v19.425h4.766v6.655h3.287v23.025h2.3l.179,0a7.836,7.836,0,0,1,1.629-7.641V313.853l19.814.437v10.444c1.587,1.5,2.493,3.932,1.969,7.349-.035.229-.076.44-.122.637h10.7v-7.873h14.79v-43.14h4.273v-5.557h9.367V329.2H1048.7v7.873h4.107v-22.8l48.628-.437v16.81l4.107.023V317.506h3.286v-6.655h4.764V291.426h6.9v19.425h4.764v6.655h3.286v7.951h3.943V287.469h2.135v-6.835h18.728v6.835h2.136v32.388l6.243-.155V298.98h17.742l.8,38.953,2.653-.155V324.63h5.75V314.287h3.45v-6.947h3.042a137.927,137.927,0,0,0-3.007-46.688h-52a6.66,6.66,0,0,1,6.575-4.847,7.268,7.268,0,0,1,1.7.2,10.006,10.006,0,0,1,9-5.305,10.651,10.651,0,0,1,2.956.414,12.46,12.46,0,0,1,10.486-5.486,12.232,12.232,0,0,1,11.509,7.468,9,9,0,0,1,7.656-.243A136.766,136.766,0,0,0,934.922,235.7a17.19,17.19,0,0,1,9.1-2.566,16.636,16.636,0,0,1,14,7.324,14.223,14.223,0,0,1,3.946-.553,13.359,13.359,0,0,1,12.012,7.083,9.7,9.7,0,0,1,2.274-.269,8.891,8.891,0,0,1,8.779,6.471H928.3a137.8,137.8,0,0,0-4.687,57.068V287.49Zm119.779-42.57a4.656,4.656,0,0,1,1.092.129,6.412,6.412,0,0,1,5.766-3.4,6.826,6.826,0,0,1,1.894.266A7.985,7.985,0,0,1,1061,238.4a7.84,7.84,0,0,1,7.376,4.786,5.693,5.693,0,0,1,2.617-.629,5.2,5.2,0,0,1,5.383,4.987,4.63,4.63,0,0,1-.026.484h-35.036A4.268,4.268,0,0,1,1045.532,244.921Zm-74.7-45.7a7.593,7.593,0,0,1,7.5-5.526,8.284,8.284,0,0,1,1.942.229,11.408,11.408,0,0,1,10.257-6.049,12.143,12.143,0,0,1,3.37.473,14.206,14.206,0,0,1,11.955-6.255,13.946,13.946,0,0,1,13.121,8.514,10.129,10.129,0,0,1,4.656-1.119c5.289,0,9.577,3.972,9.577,8.871a8.3,8.3,0,0,1-.046.861Z" transform="translate(0 0)" fill="#eafcfc"/>
      <path id="Path_680" data-name="Path 680" d="M1006.276,645.77a9.7,9.7,0,0,0-2.274.269,13.36,13.36,0,0,0-12.012-7.083,14.224,14.224,0,0,0-3.946.553,16.636,16.636,0,0,0-14-7.324,17.19,17.19,0,0,0-9.1,2.566,135.745,135.745,0,0,0-6.62,17.49h56.734A8.891,8.891,0,0,0,1006.276,645.77Z" transform="translate(-30.018 -399.049)" fill="#eafcfc"/>
      <path id="Path_681" data-name="Path 681" d="M1006.276,645.77a9.7,9.7,0,0,0-2.274.269,13.36,13.36,0,0,0-12.012-7.083,14.224,14.224,0,0,0-3.946.553,16.636,16.636,0,0,0-14-7.324,17.19,17.19,0,0,0-9.1,2.566,135.745,135.745,0,0,0-6.62,17.49h56.734A8.891,8.891,0,0,0,1006.276,645.77Z" transform="translate(-30.018 -399.049)" fill="#fff" opacity="0.8"/>
      <path id="Path_682" data-name="Path 682" d="M1283.245,333.338c0-4.9-4.288-8.871-9.577-8.871a10.129,10.129,0,0,0-4.656,1.119,13.946,13.946,0,0,0-13.121-8.514,14.206,14.206,0,0,0-11.955,6.255,12.138,12.138,0,0,0-3.369-.473,11.408,11.408,0,0,0-10.258,6.049,8.282,8.282,0,0,0-1.942-.229,7.593,7.593,0,0,0-7.5,5.526H1283.2A8.3,8.3,0,0,0,1283.245,333.338Z" transform="translate(-250.038 -134.981)" fill="#eafcfc"/>
      <path id="Path_683" data-name="Path 683" d="M1283.245,333.338c0-4.9-4.288-8.871-9.577-8.871a10.129,10.129,0,0,0-4.656,1.119,13.946,13.946,0,0,0-13.121-8.514,14.206,14.206,0,0,0-11.955,6.255,12.138,12.138,0,0,0-3.369-.473,11.408,11.408,0,0,0-10.258,6.049,8.282,8.282,0,0,0-1.942-.229,7.593,7.593,0,0,0-7.5,5.526H1283.2A8.3,8.3,0,0,0,1283.245,333.338Z" transform="translate(-250.038 -134.981)" fill="#fff" opacity="0.8"/>
      <path id="Path_684" data-name="Path 684" d="M1691.065,673.823a5.2,5.2,0,0,0-5.383-4.987,5.692,5.692,0,0,0-2.617.629,7.84,7.84,0,0,0-7.376-4.786,7.986,7.986,0,0,0-6.72,3.516,6.827,6.827,0,0,0-1.894-.266,6.412,6.412,0,0,0-5.766,3.4,4.657,4.657,0,0,0-1.092-.129,4.268,4.268,0,0,0-4.214,3.106h35.036A4.63,4.63,0,0,0,1691.065,673.823Z" transform="translate(-614.686 -426.281)" fill="#eafcfc"/>
      <path id="Path_685" data-name="Path 685" d="M1691.065,673.823a5.2,5.2,0,0,0-5.383-4.987,5.692,5.692,0,0,0-2.617.629,7.84,7.84,0,0,0-7.376-4.786,7.986,7.986,0,0,0-6.72,3.516,6.827,6.827,0,0,0-1.894-.266,6.412,6.412,0,0,0-5.766,3.4,4.657,4.657,0,0,0-1.092-.129,4.268,4.268,0,0,0-4.214,3.106h35.036A4.63,4.63,0,0,0,1691.065,673.823Z" transform="translate(-614.686 -426.281)" fill="#fff" opacity="0.8"/>
      <path id="Path_686" data-name="Path 686" d="M2308.334,716.791a12.232,12.232,0,0,0-11.508-7.468,12.46,12.46,0,0,0-10.486,5.486,10.656,10.656,0,0,0-2.956-.415,10.006,10.006,0,0,0-9,5.305,7.268,7.268,0,0,0-1.7-.2,6.659,6.659,0,0,0-6.575,4.847h52q-.948-3.945-2.122-7.8a9,9,0,0,0-7.656.243Z" transform="translate(-1125.962 -463.692)" fill="#eafcfc"/>
      <path id="Path_687" data-name="Path 687" d="M2308.334,716.791a12.232,12.232,0,0,0-11.508-7.468,12.46,12.46,0,0,0-10.486,5.486,10.656,10.656,0,0,0-2.956-.415,10.006,10.006,0,0,0-9,5.305,7.268,7.268,0,0,0-1.7-.2,6.659,6.659,0,0,0-6.575,4.847h52q-.948-3.945-2.122-7.8a9,9,0,0,0-7.656.243Z" transform="translate(-1125.962 -463.692)" fill="#fff" opacity="0.8"/>
      <path id="Path_688" data-name="Path 688" d="M1945.866,1488.2a1.227,1.227,0,0,1-1.3-.182c-1.015-.938-1.5-3.791-1.1-4.167a5.334,5.334,0,0,0-1.661-.313,5.136,5.136,0,0,0-3.974,1.659l6.421,8.087a5.225,5.225,0,0,0,2.456-3.19,5.169,5.169,0,0,0,.13-2.036c-.351.086-.681.139-.957.179C1945.873,1488.227,1945.869,1488.215,1945.866,1488.2Z" transform="translate(-850.857 -1112.495)" fill="#eafcfc"/>
      <path id="Path_689" data-name="Path 689" d="M1945.866,1488.2a1.227,1.227,0,0,1-1.3-.182c-1.015-.938-1.5-3.791-1.1-4.167a5.334,5.334,0,0,0-1.661-.313,5.136,5.136,0,0,0-3.974,1.659l6.421,8.087a5.225,5.225,0,0,0,2.456-3.19,5.169,5.169,0,0,0,.13-2.036c-.351.086-.681.139-.957.179C1945.873,1488.227,1945.869,1488.215,1945.866,1488.2Z" transform="translate(-850.857 -1112.495)" fill="#c5ddf9" opacity="0.5" style="mix-blend-mode: multiply;isolation: isolate"/>
      <path id="Path_690" data-name="Path 690" d="M1565.978,935.863h-3.45v10.343h-5.75v13.148l-2.653.155-.8-38.953h-17.742v20.722l-6.243.155V909.045h-2.136V902.21h-18.728v6.835h-2.135v37.988H1502.4v-7.951h-3.286v-6.655h-4.764V913h-6.9v19.425h-4.764v6.655H1479.4V952.24l-4.107-.023v-16.81l-48.628.437v22.8h-4.107v-7.873h-10.229V897.725h-9.367v5.557h-4.273v43.14H1383.9V954.3h-10.7a5.138,5.138,0,0,1-.229.747c-.283,2.494-1.7,4.97-4.265,4.564,0,.024,0,.048,0,.072,0,.055-.007.11-.01.165,0,.037,0,.074-.006.111-.049.866-.078,1.676-.053,2.152.044.864.335,2.912.335,2.912a1.282,1.282,0,0,1,.314.409,4.024,4.024,0,0,1,2.035,1.163c.371.37,6.163,6.519,6.163,6.519a5.588,5.588,0,0,1-.832,1.055c.656.762,1.278,1.468,1.451,1.608,0,0,8.1-3.893,11.434-5.865.038-.029.076-.058.113-.088.063-.051.155-.086.15-.187-.024-.453.032-2.009.083-2.678a1.275,1.275,0,0,1,.158-.523l.572-1.026.187.8a.387.387,0,0,0,.017.051l-2.17-9.258c-.1-.448.405-.951,1.14-1.124s1.415.052,1.521.5l2.274,9.7a.776.776,0,0,1,.225.359,2.241,2.241,0,0,0,.21.645c.218.3,1.14,3.307.687,3.729l-.011.009,7.52,32.08c7.479,3.979,15.051,8.045,22.656,12.023.049-2.575.085-4.421.1-5.105a2.154,2.154,0,0,1-1.438.678,2.6,2.6,0,0,1-1.946-.719,2.148,2.148,0,0,1,1.674-.975c.042,0,.084,0,.126,0a3.056,3.056,0,0,1-.461-.519,3.49,3.49,0,0,1-.525-2.735,2.882,2.882,0,0,1,2.284,1.248,3.267,3.267,0,0,1,.293.511,128.127,128.127,0,0,0-.88-13.917,2.382,2.382,0,0,1-1.478,1.26,2.882,2.882,0,0,1-2.281-.294,2.379,2.379,0,0,1,1.568-1.469c.045-.014.091-.022.136-.033a3.391,3.391,0,0,1-.627-.446,3.871,3.871,0,0,1-1.245-2.826,3.2,3.2,0,0,1,2.777.782,3.681,3.681,0,0,1,.941,1.343,104.988,104.988,0,0,0-2.549-13.358,2.883,2.883,0,0,1-2.293-.98,3.488,3.488,0,0,1-.839-2.654,2.881,2.881,0,0,1,2.412.973c.064.071.121.146.177.222a4.087,4.087,0,0,1,.175-1.005,4.686,4.686,0,0,1,2.469-2.808,3.869,3.869,0,0,1,.556,3.448,4.636,4.636,0,0,1-2.1,2.607c.53,1.314,1.071,2.6,1.492,3.954a2.083,2.083,0,0,1,.708-1.034,1.679,1.679,0,0,1,.56,1.408c0,.033-.009.065-.013.1a2.383,2.383,0,0,1,.454-.3,2.73,2.73,0,0,1,2.176-.089,2.254,2.254,0,0,1-1.23,1.621,2.723,2.723,0,0,1-2.138.1,83.276,83.276,0,0,1,2.321,13.342,1.613,1.613,0,0,1,.8-.747,1.314,1.314,0,0,1,.143,1.177c-.009.025-.02.048-.03.072a1.867,1.867,0,0,1,.4-.134,2.137,2.137,0,0,1,1.665.366,1.764,1.764,0,0,1-1.254.982,2.126,2.126,0,0,1-1.6-.325c.384,4.452.513,8.895.515,13.1.374-.432.715-.823,1.03-1.188a54.24,54.24,0,0,0,5.728-9.7l.142-.326c.025-.057.05-.114.074-.172l.039-.091a23.573,23.573,0,0,0,.783-2.224,2.378,2.378,0,0,1-2.1.347,2.882,2.882,0,0,1-1.738-1.505,2.379,2.379,0,0,1,2.118-.358c.045.013.088.032.132.047a3.39,3.39,0,0,1-.276-.718,3.871,3.871,0,0,1,.523-3.044,3.2,3.2,0,0,1,1.882,2.187,3.558,3.558,0,0,1,.1.546,50.767,50.767,0,0,0,1.036-9.374c-.028-.935-.072-1.7-.083-2.248a2.378,2.378,0,0,1-1.834-.808,2.881,2.881,0,0,1-.693-2.192,2.379,2.379,0,0,1,1.992.8c.031.035.058.073.087.109a3.375,3.375,0,0,1,.141-.757,3.871,3.871,0,0,1,2.039-2.319,3.2,3.2,0,0,1,.459,2.848,3.854,3.854,0,0,1-1.915,2.255,13.28,13.28,0,0,1,.544,4.375v.008c0,.113,0,.23-.006.347a2.09,2.09,0,0,1,.965-.7,1.679,1.679,0,0,1,.082,1.513c-.013.031-.03.059-.044.089a2.387,2.387,0,0,1,.525-.136,2.73,2.73,0,0,1,2.091.609,2.254,2.254,0,0,1-1.682,1.145,2.722,2.722,0,0,1-2.045-.576,47.443,47.443,0,0,1-1.461,7.918,29.141,29.141,0,0,1-2.208,5.354,1.655,1.655,0,0,1,.79-.189,1.313,1.313,0,0,1-.352,1.132c-.018.019-.037.036-.056.053a1.883,1.883,0,0,1,.423.043,2.136,2.136,0,0,1,1.368,1.017,1.764,1.764,0,0,1-1.546.382,2.136,2.136,0,0,1-1.368-1.017l0,0s0-.008,0-.012a65.014,65.014,0,0,1-5.7,8.973c0,.561-.01,1.151-.015,1.767q5.4,2.813,10.816,5.536c15.44,3.212,31.333,6.566,47.067,9.875l-.229-4.641,1.686-20.458q-.534-.271-1.077-.569s1.333-6.881,2.592-13.382a.582.582,0,0,1-.087.092c-.738.546-13.632,3.1-13.634,3.1s-1.64.647-2.626,1.074a6.751,6.751,0,0,1-2.145,6.337,7.173,7.173,0,0,1-.954.709l.6.752h0c.157.2.316.4.481.589s.1.255-.077.359q-5.223,3.084-10.441,6.175c-.383.227-.768.45-1.148.682-.131.08-.195.081-.262-.084-.3-.729-.61-1.451-.909-2.178a.512.512,0,0,0-.291-.307q-6.133-2.631-12.262-5.271a.57.57,0,0,0-.4-.024c-1.007.273-2.017.536-3.093.82l1.986-5.3c.19.272.355.5.512.733.425.63.852,1.258,1.267,1.894a1.093,1.093,0,0,0,.076.1l.024.028a.848.848,0,0,0,.341.226q4.938,1.841,9.874,3.689l.62.232c-.214-.518-.4-.985-.6-1.451q-.985-2.343-1.972-4.684c-.513-1.221-1.023-2.443-1.537-3.663-.15-.355-.164-.368.176-.542a.7.7,0,0,0,.128-.081l-.505-1.55,5.281-1.276.9-.534h0l.318-.188c.438-.259.875-.519,1.309-.783.211-.129.311-.088.446.1.069.094.14.187.211.279h0c.071.091.143.182.216.272l.319.4a6.624,6.624,0,0,1,5.059-2,6.827,6.827,0,0,1,2.471.544s0-.01,0-.014c.114-.178,1.508.071,1.864.213s2.5.684,2.5.684h0l.683-.007,12.165-3.572.9-1.9-.23-.086s2.07-8.041,5.918-11.194a4.7,4.7,0,0,1,1.859-.893c.068-.071.106-.107.106-.107a11.749,11.749,0,0,1,2.42-.09c.073-.469.155-.992.23-1.483a2.423,2.423,0,0,1-1.026-.85c-5.368.108-4.664-4.54-4.664-4.54-2.734-4.682.876-6.846.876-6.846a2.737,2.737,0,0,1,2.826-3.711c1.15-3.743,5.462-1.854,5.462-1.854,4.54-2.255,5.447,2.764,5.447,2.764,4.68,1.148,2.451,6.287,2.451,6.287,2.279,3.668-.641,4.6-.641,4.6-.875,3.434-4.252,3.226-5.193,3.1l.329,3.022a34.67,34.67,0,0,1,4.474,1.28.54.54,0,0,1,.313.061c2.787,1.6,5.336,12.725,5.336,12.725l-.591.286c.859,2.78,1.661,5.614,1.46,6.02-.559,1.132-4.069,2.122-7.491,2.815.018,5.267.156,10.751.156,10.751a10.542,10.542,0,0,1-1.289.329c-.188,6.272-.207,14.241-.207,14.241l.551,7.375a137.126,137.126,0,0,0,16.931-12.229l4.627-33.211,3.578,25.683a137.57,137.57,0,0,0,11.047-12.4l.828-6.691h0l.161-1.3,3.765-30.429,3.315,26.792.024.193a135.879,135.879,0,0,0,20.386-58.47h-3.042Z" transform="translate(-373.862 -621.576)" fill="#eafcfc"/>
      <path id="Path_691" data-name="Path 691" d="M1565.978,935.863h-3.45v10.343h-5.75v13.148l-2.653.155-.8-38.953h-17.742v20.722l-6.243.155V909.045h-2.136V902.21h-18.728v6.835h-2.135v37.988H1502.4v-7.951h-3.286v-6.655h-4.764V913h-6.9v19.425h-4.764v6.655H1479.4V952.24l-4.107-.023v-16.81l-48.628.437v22.8h-4.107v-7.873h-10.229V897.725h-9.367v5.557h-4.273v43.14H1383.9V954.3h-10.7a5.138,5.138,0,0,1-.229.747c-.283,2.494-1.7,4.97-4.265,4.564,0,.024,0,.048,0,.072,0,.055-.007.11-.01.165,0,.037,0,.074-.006.111-.049.866-.078,1.676-.053,2.152.044.864.335,2.912.335,2.912a1.282,1.282,0,0,1,.314.409,4.024,4.024,0,0,1,2.035,1.163c.371.37,6.163,6.519,6.163,6.519a5.588,5.588,0,0,1-.832,1.055c.656.762,1.278,1.468,1.451,1.608,0,0,8.1-3.893,11.434-5.865.038-.029.076-.058.113-.088.063-.051.155-.086.15-.187-.024-.453.032-2.009.083-2.678a1.275,1.275,0,0,1,.158-.523l.572-1.026.187.8a.387.387,0,0,0,.017.051l-2.17-9.258c-.1-.448.405-.951,1.14-1.124s1.415.052,1.521.5l2.274,9.7a.776.776,0,0,1,.225.359,2.241,2.241,0,0,0,.21.645c.218.3,1.14,3.307.687,3.729l-.011.009,7.52,32.08c7.479,3.979,15.051,8.045,22.656,12.023.049-2.575.085-4.421.1-5.105a2.154,2.154,0,0,1-1.438.678,2.6,2.6,0,0,1-1.946-.719,2.148,2.148,0,0,1,1.674-.975c.042,0,.084,0,.126,0a3.056,3.056,0,0,1-.461-.519,3.49,3.49,0,0,1-.525-2.735,2.882,2.882,0,0,1,2.284,1.248,3.267,3.267,0,0,1,.293.511,128.127,128.127,0,0,0-.88-13.917,2.382,2.382,0,0,1-1.478,1.26,2.882,2.882,0,0,1-2.281-.294,2.379,2.379,0,0,1,1.568-1.469c.045-.014.091-.022.136-.033a3.391,3.391,0,0,1-.627-.446,3.871,3.871,0,0,1-1.245-2.826,3.2,3.2,0,0,1,2.777.782,3.681,3.681,0,0,1,.941,1.343,104.988,104.988,0,0,0-2.549-13.358,2.883,2.883,0,0,1-2.293-.98,3.488,3.488,0,0,1-.839-2.654,2.881,2.881,0,0,1,2.412.973c.064.071.121.146.177.222a4.087,4.087,0,0,1,.175-1.005,4.686,4.686,0,0,1,2.469-2.808,3.869,3.869,0,0,1,.556,3.448,4.636,4.636,0,0,1-2.1,2.607c.53,1.314,1.071,2.6,1.492,3.954a2.083,2.083,0,0,1,.708-1.034,1.679,1.679,0,0,1,.56,1.408c0,.033-.009.065-.013.1a2.383,2.383,0,0,1,.454-.3,2.73,2.73,0,0,1,2.176-.089,2.254,2.254,0,0,1-1.23,1.621,2.723,2.723,0,0,1-2.138.1,83.276,83.276,0,0,1,2.321,13.342,1.613,1.613,0,0,1,.8-.747,1.314,1.314,0,0,1,.143,1.177c-.009.025-.02.048-.03.072a1.867,1.867,0,0,1,.4-.134,2.137,2.137,0,0,1,1.665.366,1.764,1.764,0,0,1-1.254.982,2.126,2.126,0,0,1-1.6-.325c.384,4.452.513,8.895.515,13.1.374-.432.715-.823,1.03-1.188a54.24,54.24,0,0,0,5.728-9.7l.142-.326c.025-.057.05-.114.074-.172l.039-.091a23.573,23.573,0,0,0,.783-2.224,2.378,2.378,0,0,1-2.1.347,2.882,2.882,0,0,1-1.738-1.505,2.379,2.379,0,0,1,2.118-.358c.045.013.088.032.132.047a3.39,3.39,0,0,1-.276-.718,3.871,3.871,0,0,1,.523-3.044,3.2,3.2,0,0,1,1.882,2.187,3.558,3.558,0,0,1,.1.546,50.767,50.767,0,0,0,1.036-9.374c-.028-.935-.072-1.7-.083-2.248a2.378,2.378,0,0,1-1.834-.808,2.881,2.881,0,0,1-.693-2.192,2.379,2.379,0,0,1,1.992.8c.031.035.058.073.087.109a3.375,3.375,0,0,1,.141-.757,3.871,3.871,0,0,1,2.039-2.319,3.2,3.2,0,0,1,.459,2.848,3.854,3.854,0,0,1-1.915,2.255,13.28,13.28,0,0,1,.544,4.375v.008c0,.113,0,.23-.006.347a2.09,2.09,0,0,1,.965-.7,1.679,1.679,0,0,1,.082,1.513c-.013.031-.03.059-.044.089a2.387,2.387,0,0,1,.525-.136,2.73,2.73,0,0,1,2.091.609,2.254,2.254,0,0,1-1.682,1.145,2.722,2.722,0,0,1-2.045-.576,47.443,47.443,0,0,1-1.461,7.918,29.141,29.141,0,0,1-2.208,5.354,1.655,1.655,0,0,1,.79-.189,1.313,1.313,0,0,1-.352,1.132c-.018.019-.037.036-.056.053a1.883,1.883,0,0,1,.423.043,2.136,2.136,0,0,1,1.368,1.017,1.764,1.764,0,0,1-1.546.382,2.136,2.136,0,0,1-1.368-1.017l0,0s0-.008,0-.012a65.014,65.014,0,0,1-5.7,8.973c0,.561-.01,1.151-.015,1.767q5.4,2.813,10.816,5.536c15.44,3.212,31.333,6.566,47.067,9.875l-.229-4.641,1.686-20.458q-.534-.271-1.077-.569s1.333-6.881,2.592-13.382a.582.582,0,0,1-.087.092c-.738.546-13.632,3.1-13.634,3.1s-1.64.647-2.626,1.074a6.751,6.751,0,0,1-2.145,6.337,7.173,7.173,0,0,1-.954.709l.6.752h0c.157.2.316.4.481.589s.1.255-.077.359q-5.223,3.084-10.441,6.175c-.383.227-.768.45-1.148.682-.131.08-.195.081-.262-.084-.3-.729-.61-1.451-.909-2.178a.512.512,0,0,0-.291-.307q-6.133-2.631-12.262-5.271a.57.57,0,0,0-.4-.024c-1.007.273-2.017.536-3.093.82l1.986-5.3c.19.272.355.5.512.733.425.63.852,1.258,1.267,1.894a1.093,1.093,0,0,0,.076.1l.024.028a.848.848,0,0,0,.341.226q4.938,1.841,9.874,3.689l.62.232c-.214-.518-.4-.985-.6-1.451q-.985-2.343-1.972-4.684c-.513-1.221-1.023-2.443-1.537-3.663-.15-.355-.164-.368.176-.542a.7.7,0,0,0,.128-.081l-.505-1.55,5.281-1.276.9-.534h0l.318-.188c.438-.259.875-.519,1.309-.783.211-.129.311-.088.446.1.069.094.14.187.211.279h0c.071.091.143.182.216.272l.319.4a6.624,6.624,0,0,1,5.059-2,6.827,6.827,0,0,1,2.471.544s0-.01,0-.014c.114-.178,1.508.071,1.864.213s2.5.684,2.5.684h0l.683-.007,12.165-3.572.9-1.9-.23-.086s2.07-8.041,5.918-11.194a4.7,4.7,0,0,1,1.859-.893c.068-.071.106-.107.106-.107a11.749,11.749,0,0,1,2.42-.09c.073-.469.155-.992.23-1.483a2.423,2.423,0,0,1-1.026-.85c-5.368.108-4.664-4.54-4.664-4.54-2.734-4.682.876-6.846.876-6.846a2.737,2.737,0,0,1,2.826-3.711c1.15-3.743,5.462-1.854,5.462-1.854,4.54-2.255,5.447,2.764,5.447,2.764,4.68,1.148,2.451,6.287,2.451,6.287,2.279,3.668-.641,4.6-.641,4.6-.875,3.434-4.252,3.226-5.193,3.1l.329,3.022a34.67,34.67,0,0,1,4.474,1.28.54.54,0,0,1,.313.061c2.787,1.6,5.336,12.725,5.336,12.725l-.591.286c.859,2.78,1.661,5.614,1.46,6.02-.559,1.132-4.069,2.122-7.491,2.815.018,5.267.156,10.751.156,10.751a10.542,10.542,0,0,1-1.289.329c-.188,6.272-.207,14.241-.207,14.241l.551,7.375a137.126,137.126,0,0,0,16.931-12.229l4.627-33.211,3.578,25.683a137.57,137.57,0,0,0,11.047-12.4l.828-6.691h0l.161-1.3,3.765-30.429,3.315,26.792.024.193a135.879,135.879,0,0,0,20.386-58.47h-3.042Z" transform="translate(-373.862 -621.576)" fill="#c5ddf9" opacity="0.5" style="mix-blend-mode: multiply;isolation: isolate"/>
      <path id="Path_692" data-name="Path 692" d="M1264.8,1148.263a12.072,12.072,0,0,0,3.821-3.385c2.277-3.038,6.419-6.1,11.4-5.1.1.024.185.05.272.075a4.813,4.813,0,0,1,.791.263,6.541,6.541,0,0,1,1.89,1.246V1130.92l-19.814-.437v19.056A6.654,6.654,0,0,1,1264.8,1148.263Z" transform="translate(-285.479 -816.63)" fill="#eafcfc"/>
      <path id="Path_693" data-name="Path 693" d="M1264.8,1148.263a12.072,12.072,0,0,0,3.821-3.385c2.277-3.038,6.419-6.1,11.4-5.1.1.024.185.05.272.075a4.813,4.813,0,0,1,.791.263,6.541,6.541,0,0,1,1.89,1.246V1130.92l-19.814-.437v19.056A6.654,6.654,0,0,1,1264.8,1148.263Z" transform="translate(-285.479 -816.63)" fill="#c5ddf9" opacity="0.5" style="mix-blend-mode: multiply;isolation: isolate"/>
      <path id="Path_694" data-name="Path 694" d="M936.687,978.17h0l.14-1.13,3.467-28.021,5.571,45.023a49.561,49.561,0,0,1,11.188.3q3.058.438,6.232,1.138l2.972-21.329,3.187,22.875c3.534.994,7.158,2.185,10.86,3.542a6.728,6.728,0,0,1,.06-3.9c-.024-.223-.8-1.135-1.179-1.913-1.594-3.244.509-7.152,2.917-8.5-.106-.273-.2-.545-.275-.816l-.179,0h-2.3V962.415H976.06V955.76h-4.766V936.335h-6.9V955.76h-4.766v6.655H956.34v13.609H952.4V932.378H950.26v-6.835H931.525v6.835h-2.136v22.77a135.869,135.869,0,0,0,6.675,28.057Z" transform="translate(-5.773 -644.888)" fill="#eafcfc"/>
      <path id="Path_695" data-name="Path 695" d="M936.687,978.17h0l.14-1.13,3.467-28.021,5.571,45.023a49.561,49.561,0,0,1,11.188.3q3.058.438,6.232,1.138l2.972-21.329,3.187,22.875c3.534.994,7.158,2.185,10.86,3.542a6.728,6.728,0,0,1,.06-3.9c-.024-.223-.8-1.135-1.179-1.913-1.594-3.244.509-7.152,2.917-8.5-.106-.273-.2-.545-.275-.816l-.179,0h-2.3V962.415H976.06V955.76h-4.766V936.335h-6.9V955.76h-4.766v6.655H956.34v13.609H952.4V932.378H950.26v-6.835H931.525v6.835h-2.136v22.77a135.869,135.869,0,0,0,6.675,28.057Z" transform="translate(-5.773 -644.888)" fill="#c5ddf9" opacity="0.5" style="mix-blend-mode: multiply;isolation: isolate"/>
      <path id="Path_696" data-name="Path 696" d="M1420.442,1355.606a2.857,2.857,0,0,0-.642.381,1.846,1.846,0,0,1-.206.141h0c-2.327,1.644-10.056,7.3-10.056,7.3s-3.856,2.488-4.6,2.1a22.607,22.607,0,0,1-2.54-2.623,12.339,12.339,0,0,1,.09,3.228,25.827,25.827,0,0,0,.694,6.377c7.862,3.839,15.93,8.046,24.122,12.39Z" transform="translate(-402.164 -1005.286)" fill="#eafcfc"/>
      <path id="Path_697" data-name="Path 697" d="M1420.442,1355.606a2.857,2.857,0,0,0-.642.381,1.846,1.846,0,0,1-.206.141h0c-2.327,1.644-10.056,7.3-10.056,7.3s-3.856,2.488-4.6,2.1a22.607,22.607,0,0,1-2.54-2.623,12.339,12.339,0,0,1,.09,3.228,25.827,25.827,0,0,0,.694,6.377c7.862,3.839,15.93,8.046,24.122,12.39Z" transform="translate(-402.164 -1005.286)" fill="#c5ddf9" opacity="0.5" style="mix-blend-mode: multiply;isolation: isolate"/>
      <path id="Path_698" data-name="Path 698" d="M2137.1,1682.306a18.3,18.3,0,0,0-.6,2.49c-.031.566-.282,2.854-.618,5.77l3.852.808C2138.649,1687.632,2137.649,1684.173,2137.1,1682.306Z" transform="translate(-1016.825 -1279.065)" fill="#eafcfc"/>
      <path id="Path_699" data-name="Path 699" d="M2137.1,1682.306a18.3,18.3,0,0,0-.6,2.49c-.031.566-.282,2.854-.618,5.77l3.852.808C2138.649,1687.632,2137.649,1684.173,2137.1,1682.306Z" transform="translate(-1016.825 -1279.065)" fill="#c5ddf9" opacity="0.5" style="mix-blend-mode: multiply;isolation: isolate"/>
      <path id="Path_700" data-name="Path 700" d="M2212.939,1477.7l-1.367.661c-.013.451-.024.932-.032,1.437.714-.261,1.329-.5,1.76-.705C2213.222,1478.876,2213.093,1478.356,2212.939,1477.7Z" transform="translate(-1080.233 -1107.605)" fill="#eafcfc"/>
      <path id="Path_701" data-name="Path 701" d="M2212.939,1477.7l-1.367.661c-.013.451-.024.932-.032,1.437.714-.261,1.329-.5,1.76-.705C2213.222,1478.876,2213.093,1478.356,2212.939,1477.7Z" transform="translate(-1080.233 -1107.605)" fill="#c5ddf9" opacity="0.5" style="mix-blend-mode: multiply;isolation: isolate"/>
      <path id="Path_702" data-name="Path 702" d="M1044.98,1378.3q2.344.219,5,.534v-6.8H1045.3l.393-2.82h0l.068-.49,1.888-13.552h0l.183-1.316h0l.688-4.941q-3.171-.7-6.232-1.138a49.563,49.563,0,0,0-11.188-.3l1.681,13.587A137.071,137.071,0,0,0,1044.98,1378.3Z" transform="translate(-91.008 -998.318)" fill="#86b1f2"/>
      <path id="Path_703" data-name="Path 703" d="M1598.531,1562.885c.027-1.424.052-2.738.074-3.9-7.6-3.978-15.177-8.044-22.656-12.023l2.789,11.9C1585.176,1560.149,1591.791,1561.5,1598.531,1562.885Z" transform="translate(-547.599 -1165.643)" fill="#86b1f2"/>
      <path id="Path_704" data-name="Path 704" d="M1164.929,1369.245h0l1.781,12.787.01.073h0l.881,6.323h-5.337v7.092c6.478.824,14.134,2.012,22.71,3.486.169-1.427.364-2.752.588-3.908-.79-.062-1.256-.109-1.256-.109.139-1.711.461-11.153.657-18.623a9.473,9.473,0,0,1-3.482-.448c-3.962-1.189-5.5-3.49-6.025-5.522-3.7-1.356-7.326-2.548-10.86-3.541l.327,2.345Z" transform="translate(-200.926 -1014.713)" fill="#86b1f2"/>
      <path id="Path_705" data-name="Path 705" d="M1738.666,1633.077q-5.41-2.715-10.816-5.536c-.009,1.031-.019,2.133-.029,3.289Q1733.2,1631.939,1738.666,1633.077Z" transform="translate(-674.87 -1233.171)" fill="#86b1f2"/>
      <path id="Path_706" data-name="Path 706" d="M1408.92,1471.932a69.186,69.186,0,0,1-.1,8.447c8.068,1.516,16.65,3.191,25.6,4.98l-3.049-13.009c-8.193-4.344-16.26-8.551-24.122-12.39.993,5.173,2.64,11.233,2.64,11.233A3.414,3.414,0,0,1,1408.92,1471.932Z" transform="translate(-406.221 -1092.736)" fill="#86b1f2"/>
      <path id="Path_707" data-name="Path 707" d="M980.4,1115.492l-5.571-45.023-3.467,28.021.186-1.5,6.853,2.343.354,2.862-7.533-2.576-.623,5.035q2.081,5.883,4.676,11.51Q977.827,1115.71,980.4,1115.492Z" transform="translate(-40.303 -766.337)" fill="#3c8f7c"/>
      <path id="Path_708" data-name="Path 708" d="M999.775,1349.776l5.568,4.774.473,3.822-3.078-2.639q1.682,3.185,3.526,6.267l-1.681-13.587q-2.568.215-5.126.672C999.564,1349.316,999.668,1349.547,999.775,1349.776Z" transform="translate(-64.492 -999.259)" fill="#3c8f7c"/>
      <path id="Path_709" data-name="Path 709" d="M1006.985,1361.6l-5.568-4.774q1.411,3.02,2.963,5.958l3.078,2.639Z" transform="translate(-66.133 -1006.304)" fill="#50bfa5"/>
      <path id="Path_710" data-name="Path 710" d="M974.44,1244.584h0l.14-1.13Z" transform="translate(-43.526 -911.301)" fill="#50bfa5"/>
      <path id="Path_711" data-name="Path 711" d="M981.618,1236.537l-6.853-2.343-.186,1.5-.14,1.13,7.533,2.575Z" transform="translate(-43.526 -903.541)" fill="#50bfa5"/>
      <path id="Path_712" data-name="Path 712" d="M1150.006,1500.037h-2.369v6.8q1.157.137,2.369.291Z" transform="translate(-188.668 -1126.321)" fill="#355389"/>
      <path id="Path_713" data-name="Path 713" d="M1141.609,1225.64l-2.972,21.329q3.031.664,6.159,1.546Z" transform="translate(-181.126 -896.373)" fill="#3c8f7c"/>
      <path id="Path_714" data-name="Path 714" d="M1132.475,1393.266l.158,1.132-1.782-12.787-7.363,2.321-1.888,13.552.115-.826Z" transform="translate(-166.848 -1027.079)" fill="#3c8f7c"/>
      <path id="Path_715" data-name="Path 715" d="M1162.264,1467.327h5.337l-.881-6.323-4.456,1.4Z" transform="translate(-200.925 -1093.611)" fill="#3c8f7c"/>
      <path id="Path_716" data-name="Path 716" d="M1119.146,1475.638l-.393,2.82h4.679v-4.171Z" transform="translate(-164.462 -1104.742)" fill="#3c8f7c"/>
      <path id="Path_717" data-name="Path 717" d="M1141.4,1360.043l.161,1.16-.327-2.345q-3.127-.879-6.159-1.546l-.688,4.941Z" transform="translate(-177.565 -1006.716)" fill="#3c8f7c"/>
      <path id="Path_718" data-name="Path 718" d="M1150.006,1469.676l-2.37.747v4.171h2.37Z" transform="translate(-188.668 -1100.878)" fill="#3c8f7c"/>
      <path id="Path_719" data-name="Path 719" d="M1121.178,1480.092h0l.068-.49Z" transform="translate(-166.495 -1109.196)" fill="#50bfa5"/>
      <path id="Path_720" data-name="Path 720" d="M1189.721,1460.624l-.01-.073.01.073Z" transform="translate(-223.926 -1093.231)" fill="#50bfa5"/>
      <path id="Path_721" data-name="Path 721" d="M1125.464,1455.9h2.369v.27l4.456-1.4-.01-.074-.158-1.132-10.76,3.392-.115.826-.068.49,4.286-1.351Z" transform="translate(-166.495 -1087.374)" fill="#50bfa5"/>
      <path id="Path_722" data-name="Path 722" d="M1147.637,1468.011v1.017l2.37-.747v-.27Z" transform="translate(-188.668 -1099.483)" fill="#50bfa5"/>
      <path id="Path_723" data-name="Path 723" d="M1133.439,1387.816l-.183,1.316h0l.183-1.316Z" transform="translate(-176.616 -1032.278)" fill="#50bfa5"/>
      <path id="Path_724" data-name="Path 724" d="M1178.68,1381.377l-.006-.045.006.045Z" transform="translate(-214.677 -1026.844)" fill="#50bfa5"/>
      <path id="Path_725" data-name="Path 725" d="M1140.613,1375.33l-.162-1.16-7.012,2.211-.183,1.316,7.363-2.321Z" transform="translate(-176.616 -1020.843)" fill="#50bfa5"/>
      <path id="Path_726" data-name="Path 726" d="M2430.729,1471.009l-.828,6.69q3.259-4.137,6.2-8.527Z" transform="translate(-1263.222 -1100.457)" fill="#3c8f7c"/>
      <path id="Path_727" data-name="Path 727" d="M2443.049,1311.172l.034.27-3.315-26.791L2436,1315.08l.194-1.565Z" transform="translate(-1268.335 -945.825)" fill="#3c8f7c"/>
      <path id="Path_728" data-name="Path 728" d="M2479.735,1450.237l-.024-.193.024.193Z" transform="translate(-1304.964 -1084.426)" fill="#50bfa5"/>
      <path id="Path_729" data-name="Path 729" d="M2435.011,1473.8h0l.16-1.3Z" transform="translate(-1267.505 -1103.245)" fill="#50bfa5"/>
      <path id="Path_730" data-name="Path 730" d="M2442.276,1448.838l-.024-.193-.033-.27-6.853,2.343-.194,1.565-.161,1.3,5.371-1.836Q2441.347,1450.3,2442.276,1448.838Z" transform="translate(-1267.505 -1083.028)" fill="#50bfa5"/>
      <path id="Path_731" data-name="Path 731" d="M2312.157,1465.088l.168-1.205,6.5,2.049.431-.426-3.579-25.683-4.627,33.211q3.5-2.961,6.8-6.152Z" transform="translate(-1163.624 -1075.861)" fill="#3c8f7c"/>
      <path id="Path_732" data-name="Path 732" d="M2318.054,1588.352l-.168,1.205,5.693,1.795q.489-.473.974-.951Z" transform="translate(-1169.352 -1200.33)" fill="#50bfa5"/>
      <path id="Path_733" data-name="Path 733" d="M1795.022,1827.893a136.835,136.835,0,0,0,22.606-2.935l-24.731.063c.036.016.072.032.108.05A4.416,4.416,0,0,1,1795.022,1827.893Z" transform="translate(-729.404 -1398.609)" fill="#96d9c9"/>
      <path id="Path_734" data-name="Path 734" d="M1842.3,1680.962l-.464-9.368c-15.734-3.309-31.627-6.663-47.067-9.875,15.664,7.86,31.316,14.933,46.42,19.7Q1841.749,1681.19,1842.3,1680.962Z" transform="translate(-730.976 -1261.813)" fill="#96d9c9"/>
      <path id="Path_735" data-name="Path 735" d="M2137.051,1734.108l-3.852-.808c-.159,1.375-.336,2.888-.518,4.429q2.388-1.152,4.723-2.394Z" transform="translate(-1014.149 -1321.799)" fill="#96d9c9"/>
      <path id="Path_736" data-name="Path 736" d="M1121.783,1539.26q-2.65-.313-5-.534,2.421,2.916,5,5.695Z" transform="translate(-162.813 -1158.743)" fill="#96d9c9"/>
      <path id="Path_737" data-name="Path 737" d="M1726.238,1672.692a6.346,6.346,0,0,1,1.652-.073c2.307.281,3.822,2.667,6.053,3.32a22.283,22.283,0,0,1,3.093.66l24.731-.063a135.64,135.64,0,0,0,21.992-6.747c-15.1-4.762-30.756-11.835-46.42-19.7q-5.465-1.137-10.845-2.247C1726.425,1655.432,1726.321,1665.35,1726.238,1672.692Z" transform="translate(-673.543 -1250.188)" fill="#96d9c9"/>
      <path id="Path_738" data-name="Path 738" d="M1183.452,1568.922a58.316,58.316,0,0,0,.532-6.35c.141-4.587.424-10.5.99-15.269-8.575-1.473-16.232-2.662-22.71-3.486v7.362A137.409,137.409,0,0,0,1183.452,1568.922Z" transform="translate(-200.926 -1163.009)" fill="#96d9c9"/>
      <path id="Path_739" data-name="Path 739" d="M1405.449,1614.693a135.714,135.714,0,0,0,30.008,10.135,5.406,5.406,0,0,1-.474-.876,4.055,4.055,0,0,1-.22-.641q-1.035-4.393-2.058-8.788c-.036-.153-.045-.313-.066-.466.662-.155,1.294-.342,1.94-.443a2.432,2.432,0,0,0,1.506-.753,4.655,4.655,0,0,0,1.2-3.731,8.708,8.708,0,0,0-.308-1.259l-2.137-8.332c-.056-.219-.116-.437-.164-.658a.507.507,0,0,1,.027-.258l-1.789-7.632c-8.949-1.79-17.531-3.465-25.6-4.98C1406.937,1594.1,1406.089,1606.1,1405.449,1614.693Z" transform="translate(-404.718 -1198.369)" fill="#96d9c9"/>
      <path id="Path_740" data-name="Path 740" d="M1332.827,1637.816l-1.629,9.982-1.128,3.742q2.477,1.5,5.022,2.9C1334.345,1649.286,1333.52,1643.37,1332.827,1637.816Z" transform="translate(-341.549 -1241.782)" fill="#96d9c9"/>
      <path id="Path_741" data-name="Path 741" d="M1594.793,1627q.692,3.222,1.374,6.447c.134.627.272,1.253.4,1.88a17.075,17.075,0,0,0,.422,1.96,4.565,4.565,0,0,0,2.8,2.917,2.337,2.337,0,0,0,1.731-.049,12.288,12.288,0,0,1,1.728-.424c.049-.011.148.065.174.123a2.054,2.054,0,0,1,.107.38q1.012,4.311,2.023,8.623a5.152,5.152,0,0,1-.045,2.422q-.042.171-.092.341c-.064.217-.138.429-.216.637a8.136,8.136,0,0,0,1.188-.783,5.915,5.915,0,0,1,2.963-1l3.16-.463c.109-7.669.3-18.123.438-25.583-6.74-1.388-13.355-2.737-19.793-4.03l1.512,6.452C1594.7,1626.849,1594.779,1626.929,1594.793,1627Z" transform="translate(-562.025 -1227.186)" fill="#96d9c9"/>
      <path id="Path_742" data-name="Path 742" d="M1150.006,1549.673v-7.362q-1.213-.154-2.369-.291v5.161Q1148.806,1548.442,1150.006,1549.673Z" transform="translate(-188.668 -1161.504)" fill="#96d9c9"/>
      <path id="Path_743" data-name="Path 743" d="M1494.845,1267.065h.005a2.238,2.238,0,0,0,.7-.318,2.637,2.637,0,0,1,1.018-.318.619.619,0,0,1,.5.147l-2.274-9.7c-.105-.448-.786-.672-1.521-.5s-1.245.675-1.14,1.124l2.17,9.258A.482.482,0,0,0,1494.845,1267.065Z" transform="translate(-477.35 -922.08)" fill="#184655"/>
      <path id="Path_744" data-name="Path 744" d="M1513.77,1350l6.867,29.294,3.206,1.7-7.52-32.08a9.261,9.261,0,0,1-2.121.932A2.82,2.82,0,0,0,1513.77,1350Z" transform="translate(-495.492 -999.681)" fill="#184655"/>
      <path id="Path_745" data-name="Path 745" d="M1559.209,1549.456l2.945.59-2.788-11.9-3.206-1.7Z" transform="translate(-531.016 -1156.833)" fill="#184655"/>
      <path id="Path_746" data-name="Path 746" d="M1595.566,1672.416a.552.552,0,0,0,0-.063.564.564,0,0,0-.024-.069.279.279,0,0,0-.33-.178v0l-.028,0a.288.288,0,0,0-.232.38.3.3,0,0,0,.382.236l.023-.007v0A.276.276,0,0,0,1595.566,1672.416Z" transform="translate(-563.507 -1270.512)" fill="#184655"/>
      <path id="Path_747" data-name="Path 747" d="M1576.774,1624.384c.14.294.377.274.6.223q.4-.09.808-.186c.3-.071.594-.145.89-.224.187-.05.435-.109.364-.4h0l-1.512-6.452-2.945-.59,1.789,7.632Z" transform="translate(-546.791 -1224.132)" fill="#184655"/>
      <path id="Path_748" data-name="Path 748" d="M1598.434,1826.213l-.108-.459-6.632.017q2.8.589,5.631,1.064A2.967,2.967,0,0,1,1598.434,1826.213Z" transform="translate(-560.794 -1399.277)" fill="#f8c48b"/>
      <path id="Path_749" data-name="Path 749" d="M1590.859,1825.682l-.161-.034.023.034Z" transform="translate(-559.959 -1399.188)" fill="#f8c48b"/>
      <path id="Path_750" data-name="Path 750" d="M1582.913,1690.093l-5.485-23.4h0c-.734.172-1.415-.052-1.52-.5l-.544-2.322a.507.507,0,0,0-.027.258c.048.221.108.439.164.658q1.068,4.166,2.137,8.332a8.725,8.725,0,0,1,.308,1.259,4.656,4.656,0,0,1-1.2,3.731,2.431,2.431,0,0,1-1.507.753c-.646.1-1.278.289-1.94.443.021.153.03.312.066.466q1.025,4.4,2.058,8.788a4.071,4.071,0,0,0,.22.641,5.355,5.355,0,0,0,.474.876l.161.034Z" transform="translate(-545.381 -1263.615)" fill="#f8c48b"/>
      <path id="Path_751" data-name="Path 751" d="M1655.638,1739.844c-.026-.058-.125-.134-.174-.123C1655.513,1739.711,1655.612,1739.786,1655.638,1739.844Z" transform="translate(-614.234 -1327.179)" fill="#f8c48b"/>
      <path id="Path_752" data-name="Path 752" d="M1669.417,1798.487a5.15,5.15,0,0,0,.045-2.422A5.15,5.15,0,0,1,1669.417,1798.487Z" transform="translate(-625.926 -1374.397)" fill="#f8c48b"/>
      <path id="Path_753" data-name="Path 753" d="M1602.617,1660.374c-.015-.068-.093-.149-.118-.147h0C1602.524,1660.225,1602.6,1660.306,1602.617,1660.374Z" transform="translate(-569.848 -1260.563)" fill="#f8c48b"/>
      <path id="Path_754" data-name="Path 754" d="M1602.5,1660.227h0Z" transform="translate(-569.848 -1260.562)" fill="#f8c48b"/>
      <path id="Path_755" data-name="Path 755" d="M1588.093,1666.676h0l-.2-.871-.023.007a.3.3,0,0,1-.381-.235.288.288,0,0,1,.232-.38l.028,0-.306-1.3h0q-.4.1-.809.187c-.228.051-.464.072-.6-.223v0l.544,2.322C1586.677,1666.625,1587.358,1666.849,1588.093,1666.676Z" transform="translate(-556.045 -1263.6)" fill="#f8c48b"/>
      <path id="Path_756" data-name="Path 756" d="M1598.814,1673.662a.583.583,0,0,1,0,.063A.53.53,0,0,0,1598.814,1673.662Z" transform="translate(-566.76 -1271.821)" fill="#f8c48b"/>
      <path id="Path_757" data-name="Path 757" d="M1598.664,1673.24a.5.5,0,0,1,.024.068A.5.5,0,0,0,1598.664,1673.24Z" transform="translate(-566.635 -1271.468)" fill="#f8c48b"/>
      <path id="Path_758" data-name="Path 758" d="M1594.754,1662.917c.3-.071.594-.145.89-.223C1595.349,1662.773,1595.051,1662.846,1594.754,1662.917Z" transform="translate(-563.358 -1262.63)" fill="#ee944c"/>
      <path id="Path_759" data-name="Path 759" d="M1597.726,1674.05a.276.276,0,0,1-.216.3v0A.275.275,0,0,0,1597.726,1674.05Z" transform="translate(-565.668 -1272.146)" fill="#ee944c"/>
      <path id="Path_760" data-name="Path 760" d="M1596.955,1672.271a.278.278,0,0,0-.33-.181v0A.278.278,0,0,1,1596.955,1672.271Z" transform="translate(-564.926 -1270.499)" fill="#ee944c"/>
      <path id="Path_761" data-name="Path 761" d="M1633.3,1826.081a6.754,6.754,0,0,0,2.4-.375l-3.064.008.108.459A2.5,2.5,0,0,1,1633.3,1826.081Z" transform="translate(-595.104 -1399.236)" fill="#ee944c"/>
      <path id="Path_762" data-name="Path 762" d="M1599.376,1660.227l.536,2.288c.105.448-.405.951-1.14,1.123l5.485,23.4,3.064-.008a2.655,2.655,0,0,0,.339-.179c.7-.439,1.5-.8,2.247-1.222.079-.209.152-.421.216-.638q.05-.171.092-.341a5.152,5.152,0,0,0,.045-2.422q-1.01-4.312-2.023-8.623a2.045,2.045,0,0,0-.107-.38c-.026-.058-.125-.134-.174-.123a12.269,12.269,0,0,0-1.728.424,2.337,2.337,0,0,1-1.732.048,4.564,4.564,0,0,1-2.8-2.917,17.075,17.075,0,0,1-.422-1.96c-.133-.627-.271-1.253-.4-1.88q-.686-3.224-1.374-6.447C1599.48,1660.306,1599.4,1660.225,1599.376,1660.227Z" transform="translate(-566.726 -1260.563)" fill="#ee944c"/>
      <path id="Path_763" data-name="Path 763" d="M1595.044,1662.154a.278.278,0,0,1,.33.181.254.254,0,0,1,.029.131.275.275,0,0,1-.215.3l.2.871c.735-.172,1.245-.675,1.14-1.124l-.536-2.288h0c.071.29-.177.35-.364.4q-.443.118-.89.224h0Z" transform="translate(-563.345 -1260.563)" fill="#ee944c"/>
      <path id="Path_764" data-name="Path 764" d="M1308.16,1541.484c-2.111-.061-3.959-.185-5.114-.276-.224,1.156-.418,2.481-.588,3.908q2.951.507,6.043,1.058C1308.341,1544.412,1308.223,1542.826,1308.16,1541.484Z" transform="translate(-318.41 -1160.823)" fill="#355389"/>
      <path id="Path_765" data-name="Path 765" d="M1293.064,1586.954q2.944,2,5.994,3.846l1.128-3.742,1.629-9.982c-.483-3.864-.9-7.552-1.186-10.683q-3.091-.551-6.044-1.058c-.566,4.77-.849,10.682-.99,15.269A58.252,58.252,0,0,1,1293.064,1586.954Z" transform="translate(-310.538 -1181.042)" fill="#355389"/>
      <path id="Path_766" data-name="Path 766" d="M1357.337,1540.531q4.689.847,9.657,1.781a69.132,69.132,0,0,0,.1-8.447c-1.892,1.029-5.4,1.4-8.915,1.484Z" transform="translate(-364.399 -1154.67)" fill="#466eb6"/>
      <path id="Path_767" data-name="Path 767" d="M1356.543,1605.482c.641-8.59,1.488-20.589,1.863-28.682q-4.964-.932-9.657-1.781l-1.66,10.172c.693,5.554,1.518,11.47,2.265,16.619Q1352.887,1603.748,1356.543,1605.482Z" transform="translate(-355.812 -1189.157)" fill="#466eb6"/>
      <path id="Path_768" data-name="Path 768" d="M1341.691,1542.931c-1.376.032-2.753.018-4.033-.018.063,1.341.181,2.927.341,4.69q1.409.251,2.846.511Z" transform="translate(-347.908 -1162.252)" fill="#466eb6"/>
      <path id="Path_769" data-name="Path 769" d="M1339.767,1571.867c.285,3.131.7,6.819,1.186,10.683l1.66-10.172Q1341.176,1572.118,1339.767,1571.867Z" transform="translate(-349.675 -1186.516)" fill="#466eb6"/>
      <path id="Path_770" data-name="Path 770" d="M1325.052,1309.926a10.826,10.826,0,0,1-3.19,5.992c1.071,4.513.66,9.592-2.216,11.729,4.64,2.02,9.376,4.232,14.19,6.583a25.826,25.826,0,0,1-.694-6.377,12.341,12.341,0,0,0-.09-3.228c-.442-.5-.9-1.015-1.327-1.511-.847.706-1.464,1.2-1.464,1.2s-5.979-6.334-5.951-9.81c0,0,.721-3.075,1.567-3.382a4.306,4.306,0,0,1,2.363-.26,1.284,1.284,0,0,0-.314-.409s-1.074-.249-2.188-.415C1325.482,1310,1325.255,1309.96,1325.052,1309.926Z" transform="translate(-332.813 -967.006)" fill="#f47458"/>
      <path id="Path_771" data-name="Path 771" d="M1303.411,1427.535l1.905.042.009-.125,9.5-.742s2.111,6.892,2.822,11.123c0,.013,0,.029.007.043a3.417,3.417,0,0,0,.963-.739s-1.647-6.059-2.64-11.233c-4.814-2.351-9.55-4.562-14.19-6.583a5.321,5.321,0,0,1-2.8,1.012c-.2,7.469-.518,16.912-.657,18.623,0,0,.467.047,1.257.109.1-.5.2-.961.3-1.39A48.861,48.861,0,0,1,1303.411,1427.535Z" transform="translate(-314.95 -1058.681)" fill="#f47458"/>
      <path id="Path_772" data-name="Path 772" d="M1311.194,1478.531c.164-1.97.559-7.561.623-8.465l-1.905-.042a48.855,48.855,0,0,0-3.521,10.141c-.107.429-.208.894-.3,1.39,1.155.091,3,.215,5.114.276A27.529,27.529,0,0,1,1311.194,1478.531Z" transform="translate(-321.45 -1101.17)" fill="#f47458"/>
      <path id="Path_773" data-name="Path 773" d="M1344.878,1477.581c3.514-.081,7.023-.455,8.915-1.484,0-.014,0-.03-.007-.044-.71-4.231-2.822-11.123-2.822-11.123l-9.5.742-.009.125,5.321.117Z" transform="translate(-351.095 -1096.901)" fill="#f47458"/>
      <path id="Path_774" data-name="Path 774" d="M1341.42,1482.067l1.9-11.666-5.321-.117c-.064.9-.459,6.5-.623,8.465a27.452,27.452,0,0,0,.007,3.3C1338.667,1482.085,1340.043,1482.1,1341.42,1482.067Z" transform="translate(-347.636 -1101.387)" fill="#f47458"/>
      <path id="Path_775" data-name="Path 775" d="M1399.745,1327.058c.181.776.328,1.538.43,2.269a22.632,22.632,0,0,0,2.54,2.624c.74.392,4.6-2.1,4.6-2.1s7.729-5.66,10.056-7.3h0a1.884,1.884,0,0,0,.207-.142,2.849,2.849,0,0,1,.642-.381l-1.323-5.644a.411.411,0,0,1-.017-.051l-.187-.8-.572,1.026a1.273,1.273,0,0,0-.158.523c-.051.668-.107,2.225-.083,2.678.005.1-.087.136-.15.188-.037.03-.075.059-.113.088-3.337,1.972-11.434,5.865-11.434,5.865-.173-.14-.8-.846-1.451-1.608C1401.943,1325.132,1400.784,1326.168,1399.745,1327.058Z" transform="translate(-399.938 -971.708)" fill="#f7a491"/>
      <path id="Path_776" data-name="Path 776" d="M1523.788,1324.379c.453-.422-.469-3.429-.687-3.729a2.249,2.249,0,0,1-.21-.645.777.777,0,0,0-.225-.359l1.111,4.741Z" transform="translate(-502.947 -975.151)" fill="#f7a491"/>
      <path id="Path_777" data-name="Path 777" d="M1507.357,1324.532a9.261,9.261,0,0,0,2.121-.932l-1.111-4.742a.619.619,0,0,0-.5-.147,2.637,2.637,0,0,0-1.018.317,2.238,2.238,0,0,1-.7.318h-.005a.482.482,0,0,1-.54-.309l1.323,5.644A2.8,2.8,0,0,1,1507.357,1324.532Z" transform="translate(-488.648 -974.364)" fill="#f7a491"/>
      <path id="Path_778" data-name="Path 778" d="M1394.209,1387.418c.431.5.885,1.015,1.327,1.511-.1-.731-.249-1.493-.43-2.269C1394.791,1386.93,1394.488,1387.186,1394.209,1387.418Z" transform="translate(-395.299 -1031.311)" fill="#f7a491"/>
      <path id="Path_779" data-name="Path 779" d="M1369.062,1280.186c0,.055-.007.11-.01.165C1369.055,1280.3,1369.058,1280.241,1369.062,1280.186Z" transform="translate(-374.217 -942.083)" fill="#f7a491"/>
      <path id="Path_780" data-name="Path 780" d="M1351.689,1272.973a5.076,5.076,0,0,1-1.4-1.106,10.62,10.62,0,0,1,.525,5.707c.856.253,1.785.575,2.789.981,0,0-.291-2.047-.335-2.912-.024-.476,0-1.286.053-2.152l0,.062A5.074,5.074,0,0,1,1351.689,1272.973Z" transform="translate(-358.495 -935.112)" fill="#f7a491"/>
      <path id="Path_781" data-name="Path 781" d="M1353.022,1307.555c.2.034.43.069.684.107,1.114.167,2.188.415,2.188.415-1-.405-1.933-.727-2.789-.981Q1353.067,1307.327,1353.022,1307.555Z" transform="translate(-360.783 -964.635)" fill="#f7a491"/>
      <path id="Path_782" data-name="Path 782" d="M1369.019,1281.2c0,.037,0,.074-.006.111C1369.015,1281.279,1369.017,1281.242,1369.019,1281.2Z" transform="translate(-374.184 -942.937)" fill="#f47458"/>
      <path id="Path_783" data-name="Path 783" d="M1369.112,1279.811c0-.024,0-.048,0-.072h0Z" transform="translate(-374.267 -941.708)" fill="#f47458"/>
      <path id="Path_784" data-name="Path 784" d="M1350.261,1268.623a6.09,6.09,0,0,1-2.059-1.632l.031.152c.112.206.215.418.307.638a5.376,5.376,0,0,0,3.029,1.685c0-.02,0-.041,0-.062,0-.037,0-.074.006-.111,0-.055.006-.11.01-.165l0-.072A4.823,4.823,0,0,1,1350.261,1268.623Z" transform="translate(-356.744 -931.026)" fill="#f47458"/>
      <path id="Path_785" data-name="Path 785" d="M1378.242,1322.277s.935,1.118,1.811,2.136a5.584,5.584,0,0,0,.833-1.055s-5.792-6.149-6.163-6.519a4.025,4.025,0,0,0-2.035-1.163,47.865,47.865,0,0,1,3.423,8.1Z" transform="translate(-377.264 -971.824)" fill="#b75742"/>
      <path id="Path_786" data-name="Path 786" d="M1350,1315.57c-.846.306-1.567,3.382-1.567,3.382-.028,3.476,5.951,9.81,5.951,9.81s.618-.49,1.464-1.2c-1.217-1.4-2.243-2.615-2.243-2.615l2.18-1.537a47.908,47.908,0,0,0-3.423-8.1A4.307,4.307,0,0,0,1350,1315.57Z" transform="translate(-356.934 -971.458)" fill="#b75742"/>
      <path id="Path_787" data-name="Path 787" d="M1393.818,1357.931c.366,1.122.7,2.272.96,3.395,1.039-.889,2.2-1.926,2.982-2.762-.876-1.018-1.811-2.136-1.811-2.136Z" transform="translate(-394.971 -1005.976)" fill="#b75742"/>
      <path id="Path_788" data-name="Path 788" d="M1382.541,1365.7l-2.18,1.537s1.026,1.215,2.243,2.615c.279-.232.582-.488.9-.757C1383.239,1367.976,1382.907,1366.826,1382.541,1365.7Z" transform="translate(-383.694 -1013.748)" fill="#b75742"/>
      <path id="Path_789" data-name="Path 789" d="M1252.888,1248.12a7.836,7.836,0,0,0-1.629,7.641l1.629-.02Z" transform="translate(-275.206 -915.211)" fill="#184655"/>
      <path id="Path_790" data-name="Path 790" d="M1244.671,1215.945l-.055-9.968c.838-.426,2.87-1.013,6.514-.226.032-.227.136-.521.232-.923a25.282,25.282,0,0,0,.191-4.652l-.2-.166a5.17,5.17,0,0,1-2.224-3.442,4.592,4.592,0,0,1-1.97-4.716c.74-3.052,4.832-5.713,8.163-4.9-.087-.026-.176-.051-.272-.075-4.979-1-9.121,2.06-11.4,5.1a12.072,12.072,0,0,1-3.821,3.385,6.652,6.652,0,0,0-1.642,1.276v7.62l-1.629.021c.078.271.169.543.275.816-2.408,1.351-4.511,5.259-2.917,8.5.383.779,1.156,1.69,1.18,1.913a6.727,6.727,0,0,0-.06,3.9q4.7,1.722,9.561,3.782C1244.69,1219.235,1244.734,1216.229,1244.671,1215.945Z" transform="translate(-260.504 -863.724)" fill="#184655"/>
      <path id="Path_791" data-name="Path 791" d="M1249.724,1394.239a9.469,9.469,0,0,0,3.482.448c.02-.753.038-1.485.055-2.188q-4.858-2.051-9.561-3.782C1244.225,1390.749,1245.762,1393.05,1249.724,1394.239Z" transform="translate(-269.17 -1033.034)" fill="#184655"/>
      <path id="Path_792" data-name="Path 792" d="M1307.682,1309.29a10.826,10.826,0,0,0,3.19-5.992c-1.416-.237-1.682-.406-1.613-.894-3.644-.787-5.676-.2-6.513.226l.054,9.968c.063.284.019,3.29-.076,7.245q1.365.576,2.741,1.176C1308.342,1318.882,1308.754,1313.8,1307.682,1309.29Z" transform="translate(-318.634 -960.378)" fill="#184655"/>
      <path id="Path_793" data-name="Path 793" d="M1302.44,1412.065c-.017.7-.035,1.435-.055,2.188a5.322,5.322,0,0,0,2.8-1.012Q1303.8,1412.641,1302.44,1412.065Z" transform="translate(-318.349 -1052.599)" fill="#184655"/>
      <path id="Path_794" data-name="Path 794" d="M1344.237,1270.3c-.084-.095-.163-.192-.238-.292.057.291.091.482.091.482l-.6-.494a25.293,25.293,0,0,1-.191,4.652c-.1.4-.2.7-.232.923.531.115,1.094.257,1.7.435A10.622,10.622,0,0,0,1344.237,1270.3Z" transform="translate(-352.441 -933.541)" fill="#184655"/>
      <path id="Path_795" data-name="Path 795" d="M1344.627,1305.3q.046-.229.083-.458c-.6-.178-1.164-.321-1.7-.436C1342.945,1304.9,1343.212,1305.066,1344.627,1305.3Z" transform="translate(-352.389 -962.382)" fill="#184655"/>
      <path id="Path_796" data-name="Path 796" d="M1348.7,1268.567c-.092-.22-.2-.432-.307-.638.025.126.049.243.069.346C1348.538,1268.375,1348.617,1268.472,1348.7,1268.567Z" transform="translate(-356.905 -931.811)" fill="#184655"/>
      <path id="Path_797" data-name="Path 797" d="M1387.123,1204.775a7.618,7.618,0,0,1,.028.863h.179c.046-.2.087-.408.122-.637.524-3.417-.382-5.845-1.969-7.349v2.03A9.741,9.741,0,0,1,1387.123,1204.775Z" transform="translate(-387.986 -872.918)" fill="#184655"/>
      <path id="Path_798" data-name="Path 798" d="M1368.932,1188.335c1.735.511,1.8,1.261,1.288,2.266q.09.084.179.177l.439.247-.1.029a4.115,4.115,0,0,1,.874.819v-2.03a6.545,6.545,0,0,0-1.89-1.246A4.8,4.8,0,0,0,1368.932,1188.335Z" transform="translate(-374.116 -865.111)" fill="#184655"/>
      <path id="Path_799" data-name="Path 799" d="M1395.468,1247.7a5.167,5.167,0,0,0,.229-.747h-.178C1395.513,1247.2,1395.5,1247.451,1395.468,1247.7Z" transform="translate(-396.354 -914.234)" fill="#184655"/>
      <path id="Path_800" data-name="Path 800" d="M1321.6,1190.236c2.1-1.083,3.908-2.156,5.784-.394.515-1.005.446-1.755-1.288-2.266-3.331-.809-7.422,1.852-8.163,4.9a4.592,4.592,0,0,0,1.97,4.716c-.039-.153-.075-.311-.108-.476C1319.2,1193.667,1319.432,1191.353,1321.6,1190.236Z" transform="translate(-331.281 -864.352)" fill="#184655"/>
      <path id="Path_801" data-name="Path 801" d="M1372.414,1252.8a1.257,1.257,0,0,1-1.275.953,1.443,1.443,0,0,1-1.34-.512c-.137,0-.277,0-.422-.008h-.021c-.012.146-.027.323-.044.525v.018c-.01.119-.02.246-.03.379v.009c-.011.137-.022.281-.033.43v0c-.011.143-.022.292-.033.443l0,.047c-.01.143-.02.289-.03.435l0,.052q-.014.209-.027.42l-.006.094c0,.014,0,.027,0,.04,2.564.406,3.982-2.07,4.265-4.564A2.378,2.378,0,0,1,1372.414,1252.8Z" transform="translate(-374.29 -918.097)" fill="#f7a491"/>
      <path id="Path_802" data-name="Path 802" d="M1348.563,1260.671l2.533-.822a11.587,11.587,0,0,1-1.484-.292A9.648,9.648,0,0,0,1348.563,1260.671Z" transform="translate(-357.047 -924.796)" fill="#f7a491"/>
      <path id="Path_803" data-name="Path 803" d="M1369.161,1278.91c0,.031,0,.063-.006.094C1369.157,1278.973,1369.159,1278.941,1369.161,1278.91Z" transform="translate(-374.303 -941.014)" fill="#f7a491"/>
      <path id="Path_804" data-name="Path 804" d="M1369.364,1276l0,.052Z" transform="translate(-374.475 -938.574)" fill="#f7a491"/>
      <path id="Path_805" data-name="Path 805" d="M1369.573,1273.019l0,.047Z" transform="translate(-374.651 -936.077)" fill="#f7a491"/>
      <path id="Path_806" data-name="Path 806" d="M1369.8,1270.268v0Z" transform="translate(-374.839 -933.772)" fill="#f7a491"/>
      <path id="Path_807" data-name="Path 807" d="M1370,1267.558v0Z" transform="translate(-375.013 -931.501)" fill="#f7a491"/>
      <path id="Path_808" data-name="Path 808" d="M1370.2,1265.107v0Z" transform="translate(-375.174 -929.447)" fill="#f7a491"/>
      <path id="Path_809" data-name="Path 809" d="M1369.218,1276.32q-.014.209-.027.42C1369.2,1276.6,1369.209,1276.459,1369.218,1276.32Z" transform="translate(-374.333 -938.843)" fill="#f7a491"/>
      <path id="Path_810" data-name="Path 810" d="M1369.412,1273.311c-.01.143-.021.288-.03.435C1369.392,1273.6,1369.4,1273.454,1369.412,1273.311Z" transform="translate(-374.493 -936.322)" fill="#f7a491"/>
      <path id="Path_811" data-name="Path 811" d="M1369.829,1267.615c-.011.137-.022.281-.033.43C1369.807,1267.9,1369.819,1267.752,1369.829,1267.615Z" transform="translate(-374.84 -931.548)" fill="#f7a491"/>
      <path id="Path_812" data-name="Path 812" d="M1370.037,1265.217q-.015.178-.03.379C1370.018,1265.463,1370.028,1265.336,1370.037,1265.217Z" transform="translate(-375.017 -929.539)" fill="#f7a491"/>
      <path id="Path_813" data-name="Path 813" d="M1369.139,1279.53h0c0-.014,0-.027,0-.04C1369.141,1279.5,1369.14,1279.517,1369.139,1279.53Z" transform="translate(-374.289 -941.5)" fill="#f7a491"/>
      <path id="Path_814" data-name="Path 814" d="M1369.625,1270.286q-.016.215-.033.443C1369.6,1270.578,1369.614,1270.429,1369.625,1270.286Z" transform="translate(-374.669 -933.787)" fill="#f7a491"/>
      <path id="Path_815" data-name="Path 815" d="M1348.563,1262.184l2.533-.822h0l-2.533.822Z" transform="translate(-357.046 -926.308)" fill="#f7a491"/>
      <path id="Path_816" data-name="Path 816" d="M1370.2,1262.393c.017-.2.032-.379.044-.525h0C1370.236,1262.013,1370.22,1262.192,1370.2,1262.393Z" transform="translate(-375.182 -926.732)" fill="#f7a491"/>
      <path id="Path_817" data-name="Path 817" d="M1350.78,1261.362l-2.533.822-.061.077,0,.013a6.085,6.085,0,0,0,2.059,1.631,4.822,4.822,0,0,0,1.332.433c0-.013,0-.027,0-.04l.006-.094q.013-.211.027-.42c0-.017,0-.035,0-.052.01-.147.02-.292.031-.435l0-.047q.016-.227.033-.443v0c.011-.149.023-.293.033-.43v-.009q.016-.2.03-.379v-.018c.016-.2.032-.38.044-.525C1351.464,1261.435,1351.124,1261.406,1350.78,1261.362Z" transform="translate(-356.731 -926.308)" fill="#f7a491"/>
      <path id="Path_818" data-name="Path 818" d="M1346.1,1258.061l.072-.024a9.626,9.626,0,0,1,1.049-1.114,11.973,11.973,0,0,1-1.512-.509C1345.844,1256.889,1345.986,1257.525,1346.1,1258.061Z" transform="translate(-354.653 -922.162)" fill="#f7a491"/>
      <path id="Path_819" data-name="Path 819" d="M1348.189,1266.435h0l-.072.024h0Z" transform="translate(-356.673 -930.559)" fill="#f7a491"/>
      <path id="Path_820" data-name="Path 820" d="M1348.128,1266.513l.061-.077-.072.023Z" transform="translate(-356.673 -930.56)" fill="#f7a491"/>
      <path id="Path_821" data-name="Path 821" d="M1387.151,1216.139a7.619,7.619,0,0,0-.028-.863,9.741,9.741,0,0,0-1.64-5.094v5.957Z" transform="translate(-387.986 -883.419)" fill="#f7a491"/>
      <path id="Path_822" data-name="Path 822" d="M1359.972,1211.9v-5.957a4.114,4.114,0,0,0-.874-.819,10.76,10.76,0,0,0-1.011.369,11.086,11.086,0,0,0-2.07,4.254,2.109,2.109,0,0,1,.563,1.654c0,.946-.35,1.713-.784,1.729a4.331,4.331,0,0,1-.755.811,11.582,11.582,0,0,0,1.484.292l1.054-.342v.008c0,.023-.009.1-.02.221l0,.037c0,.02,0,.041-.005.063l0,.027c0,.022,0,.044-.006.068h.021c.145,0,.285.006.422.008a1.2,1.2,0,0,1-.222-.613l2.875-.044a1.23,1.23,0,0,1-.039.216,2.377,2.377,0,0,0,.991-1.237c.028-.25.045-.5.051-.747Z" transform="translate(-362.475 -879.18)" fill="#f7a491"/>
      <path id="Path_823" data-name="Path 823" d="M1359.908,1235.1a2.753,2.753,0,0,1-.207,1.946c.434-.016.784-.783.784-1.729a2.109,2.109,0,0,0-.562-1.654A4.941,4.941,0,0,0,1359.908,1235.1Z" transform="translate(-366.38 -903.097)" fill="#f7a491"/>
      <path id="Path_824" data-name="Path 824" d="M1370.514,1261.283c0,.009,0,.018,0,.027Z" transform="translate(-375.44 -926.242)" fill="#f7a491"/>
      <path id="Path_825" data-name="Path 825" d="M1370.563,1260.667l0,.037Z" transform="translate(-375.48 -925.726)" fill="#f7a491"/>
      <path id="Path_826" data-name="Path 826" d="M1370.7,1259.251v0Z" transform="translate(-375.599 -924.539)" fill="#f7a491"/>
      <path id="Path_827" data-name="Path 827" d="M1370.532,1260.9c0,.02,0,.041-.005.063C1370.529,1260.938,1370.531,1260.917,1370.532,1260.9Z" transform="translate(-375.453 -925.919)" fill="#f7a491"/>
      <path id="Path_828" data-name="Path 828" d="M1370.6,1259.3l-.02.221Z" transform="translate(-375.497 -924.582)" fill="#f7a491"/>
      <path id="Path_829" data-name="Path 829" d="M1365.254,1259.251l-1.054.342h0Z" transform="translate(-370.151 -924.539)" fill="#f7a491"/>
      <path id="Path_830" data-name="Path 830" d="M1370.476,1261.515c0-.024,0-.046.006-.068l-.006.068Z" transform="translate(-375.41 -926.379)" fill="#f7a491"/>
      <path id="Path_831" data-name="Path 831" d="M1365.218,1259.675l.006-.068c0-.009,0-.018,0-.027s0-.042.005-.062l0-.037c.011-.124.018-.2.02-.221v-.008l-1.054.342C1364.544,1259.637,1364.884,1259.666,1365.218,1259.675Z" transform="translate(-370.151 -924.539)" fill="#f7a491"/>
      <path id="Path_832" data-name="Path 832" d="M1347.087,1209.959a6.824,6.824,0,0,1-.672,2.078,2.331,2.331,0,0,1,.107.25c.3.843.074,1.689-.511,1.891a.881.881,0,0,1-.611-.028,1.666,1.666,0,0,0-.165,1.022c.017.053.033.109.05.167a12.023,12.023,0,0,0,1.512.509,4.319,4.319,0,0,0,.755-.811l-.014,0c-.44,0-.8-.775-.8-1.73s.357-1.731.8-1.731a.419.419,0,0,1,.235.077,11.087,11.087,0,0,1,2.07-4.255C1348.748,1207.862,1347.217,1208.721,1347.087,1209.959Z" transform="translate(-354.232 -881.087)" fill="#f7a491"/>
      <path id="Path_833" data-name="Path 833" d="M1354.693,1234.922c0,.956.357,1.73.8,1.73l.014,0a2.754,2.754,0,0,0,.208-1.946,4.946,4.946,0,0,1,.014-1.437.422.422,0,0,0-.235-.076C1355.05,1233.192,1354.693,1233.967,1354.693,1234.922Z" transform="translate(-362.183 -902.702)" fill="#f7a491"/>
      <path id="Path_834" data-name="Path 834" d="M1374.552,1260.153a1.257,1.257,0,0,0,1.275-.953,5.088,5.088,0,0,1-2.615.441A1.443,1.443,0,0,0,1374.552,1260.153Z" transform="translate(-377.703 -924.497)" fill="#fff"/>
      <path id="Path_835" data-name="Path 835" d="M1374.677,1258.08a1.211,1.211,0,0,0,.039-.216l-2.875.044a1.2,1.2,0,0,0,.222.613A5.092,5.092,0,0,0,1374.677,1258.08Z" transform="translate(-376.554 -923.377)" fill="#fff"/>
      <path id="Path_836" data-name="Path 836" d="M1347.988,1266.98c.023.04.043.083.066.124l-.031-.152-.006-.008Z" transform="translate(-356.565 -930.986)" fill="#184655"/>
      <path id="Path_837" data-name="Path 837" d="M1333.3,1250.849h0l.189-.061a7.906,7.906,0,0,1-1.176-2.036,9.47,9.47,0,0,1-1.612-1.029,5.17,5.17,0,0,0,2.224,3.442l.2.166c-.007-.261-.014-.42-.014-.42Z" transform="translate(-342.079 -914.878)" fill="#184655"/>
      <path id="Path_838" data-name="Path 838" d="M1346.115,1267.517a5.266,5.266,0,0,1-.335-.493l-.187.061s.007.159.014.42l.6.494S1346.171,1267.808,1346.115,1267.517Z" transform="translate(-354.557 -931.053)" fill="#184655"/>
      <path id="Path_839" data-name="Path 839" d="M1346.936,1266.646l-.189.061h0l.189-.061Z" transform="translate(-355.525 -930.736)" fill="#184655"/>
      <path id="Path_840" data-name="Path 840" d="M1346.977,1266.694l-.04-.048-.189.061a5.289,5.289,0,0,0,.335.493c-.02-.1-.044-.221-.069-.346-.022-.041-.043-.083-.066-.124Z" transform="translate(-355.526 -930.736)" fill="#184655"/>
      <path id="Path_841" data-name="Path 841" d="M1377.06,1202.778l.1-.029-.439-.247q-.09-.093-.179-.177c-.021.041-.043.083-.066.125A3.732,3.732,0,0,1,1377.06,1202.778Z" transform="translate(-380.437 -876.834)" fill="#184655"/>
      <path id="Path_842" data-name="Path 842" d="M1330.005,1199.891a5.459,5.459,0,0,1,2.8-2.46,5.1,5.1,0,0,1,3.282.177c.023-.042.045-.084.066-.125-1.876-1.762-3.682-.689-5.784.394-2.169,1.117-2.4,3.431-1.8,6.484.033.166.069.323.108.476a9.445,9.445,0,0,0,1.611,1.029C1329.363,1203.567,1329.421,1201,1330.005,1199.891Z" transform="translate(-340.05 -871.993)" fill="#184655"/>
      <path id="Path_843" data-name="Path 843" d="M1348.162,1266.919l.006.008,0-.013Z" transform="translate(-356.711 -930.961)" fill="#184655"/>
      <path id="Path_844" data-name="Path 844" d="M1341.469,1254.456q-.419-.174-.819-.379a7.909,7.909,0,0,0,1.177,2.036l.033-.011C1341.749,1255.567,1341.606,1254.931,1341.469,1254.456Z" transform="translate(-350.415 -920.203)" fill="#184655"/>
      <path id="Path_845" data-name="Path 845" d="M1347.946,1266.58h0l-.033.011h0Z" transform="translate(-356.502 -930.681)" fill="#184655"/>
      <path id="Path_846" data-name="Path 846" d="M1347.914,1266.591l.04.048,0,0-.011-.054Z" transform="translate(-356.503 -930.681)" fill="#184655"/>
      <path id="Path_847" data-name="Path 847" d="M1373.847,1203.794a10.723,10.723,0,0,1,1.011-.369,3.733,3.733,0,0,0-.585-.328C1374.152,1203.318,1374.006,1203.55,1373.847,1203.794Z" transform="translate(-378.235 -877.482)" fill="#184655"/>
      <path id="Path_848" data-name="Path 848" d="M1339.512,1201.066a5.458,5.458,0,0,0-2.8,2.459c-.584,1.107-.642,3.677.279,5.976q.4.2.819.379c-.017-.058-.034-.115-.05-.167a1.667,1.667,0,0,1,.165-1.022,1.872,1.872,0,0,1-.995-1.135c-.3-.843-.074-1.689.511-1.89.524-.18,1.156.22,1.5.913a6.8,6.8,0,0,0,.672-2.078c.13-1.239,1.661-2.1,2.757-2.56.159-.244.3-.477.426-.7A5.1,5.1,0,0,0,1339.512,1201.066Z" transform="translate(-346.756 -875.628)" fill="#184655"/>
      <path id="Path_849" data-name="Path 849" d="M1347.026,1238.167c.585-.2.813-1.047.511-1.89a2.293,2.293,0,0,0-.107-.25c-.361.772-.776,1.509-1.015,2.113A.883.883,0,0,0,1347.026,1238.167Z" transform="translate(-355.246 -905.077)" fill="#f7a491"/>
      <path id="Path_850" data-name="Path 850" d="M1340.093,1230.168c-.585.2-.813,1.047-.511,1.89a1.873,1.873,0,0,0,.995,1.135c.239-.6.653-1.34,1.015-2.113C1341.248,1230.388,1340.617,1229.988,1340.093,1230.168Z" transform="translate(-349.408 -900.131)" fill="#f7a491"/>
      <path id="Path_851" data-name="Path 851" d="M1740.249,1534.362l0,0a54.282,54.282,0,0,1-5.728,9.7c2.184-2.53,3.145-3.815,5.467-9.1C1740.057,1534.792,1740.142,1534.6,1740.249,1534.362Z" transform="translate(-680.486 -1155.082)" fill="#184655"/>
      <path id="Path_852" data-name="Path 852" d="M1699.523,1430.2a65.022,65.022,0,0,0,5.7-8.973,1.313,1.313,0,0,1,.354-1.114,1.488,1.488,0,0,1,.385-.291,29.158,29.158,0,0,0,2.208-5.354,47.444,47.444,0,0,0,1.461-7.918c-.015-.012-.031-.021-.046-.033l0-.006a1.678,1.678,0,0,1-.078-1.506,1.879,1.879,0,0,1,.229-.393c0-.117,0-.234.006-.347v-.008a13.281,13.281,0,0,0-.544-4.375c-.041.022-.082.044-.124.064l-.006-.009c-.049,0-.1,0-.147,0,.012.547.055,1.313.083,2.248a50.779,50.779,0,0,1-1.036,9.374,3.943,3.943,0,0,1-.62,2.5l-.01,0-.008.005c-.228.762-.488,1.509-.783,2.224l-.039.091c-.024.058-.049.114-.074.172l-.142.326.006-.014-1.5,4.317-5.268,7.686v-1.1c0-4.2-.131-8.645-.515-13.1-.022-.014-.045-.027-.066-.042l0-.005a1.312,1.312,0,0,1-.14-1.172,1.436,1.436,0,0,1,.074-.173,83.276,83.276,0,0,0-2.321-13.342l-.038-.012,0-.007a1.677,1.677,0,0,1-.554-1.4,1.89,1.89,0,0,1,.073-.388c-.42-1.354-.962-2.64-1.491-3.954-.121.072-.245.14-.372.2-.023-.031-.044-.064-.065-.1,0,.028,0,.056,0,.085-.04,0-.08.005-.12.007a104.967,104.967,0,0,1,2.549,13.358,4.078,4.078,0,0,1,.3,1.483l-.01,0c-.025.068-.054.133-.085.2a128.191,128.191,0,0,1,.88,13.917,3.57,3.57,0,0,1,.232,2.225h-.009a2.121,2.121,0,0,1-.23.289c-.013.684-.049,2.53-.1,5.105l1.975,1.03C1699.514,1431.354,1699.519,1430.764,1699.523,1430.2Z" transform="translate(-646.528 -1037.6)" fill="#184655"/>
      <path id="Path_853" data-name="Path 853" d="M1728.166,1595.4c.347-.365.691-.765,1.03-1.188C1728.88,1594.575,1728.54,1594.966,1728.166,1595.4Z" transform="translate(-675.159 -1205.239)" fill="#184655"/>
      <path id="Path_854" data-name="Path 854" d="M1717.374,1625.5c.01-1.156.02-2.259.029-3.289l-1.975-1.03c-.022,1.165-.047,2.479-.074,3.9Z" transform="translate(-664.423 -1227.842)" fill="#184655"/>
      <path id="Path_855" data-name="Path 855" d="M1714.612,1670.574l.239-.034c.083-7.342.187-17.26.256-24.845l-2.019-.416c-.14,7.46-.329,17.914-.438,25.583Z" transform="translate(-662.156 -1248.035)" fill="#184655"/>
      <path id="Path_856" data-name="Path 856" d="M1733.434,1538.585l1.5-4.317-.006.014,0,0c-.106.236-.191.43-.259.593-2.322,5.283-3.282,6.568-5.467,9.1-.339.423-.683.823-1.03,1.188v1.1Z" transform="translate(-675.159 -1155.008)" fill="#184655"/>
      <path id="Path_857" data-name="Path 857" d="M1677.652,1376.13a3.822,3.822,0,0,1-.476-2.043c-.057-.076-.114-.151-.177-.222a2.881,2.881,0,0,0-2.412-.973,3.488,3.488,0,0,0,.839,2.654,2.882,2.882,0,0,0,2.292.98c-.033-.122-.055-.2-.064-.229A.3.3,0,0,1,1677.652,1376.13Z" transform="translate(-630.245 -1019.763)" fill="#3c8f7c"/>
      <path id="Path_858" data-name="Path 858" d="M1693.727,1393.244c-.068-.1-.131-.2-.189-.305a.3.3,0,0,0,0,.167c.009.03.031.108.064.229.04,0,.08,0,.12-.007C1693.726,1393.3,1693.725,1393.272,1693.727,1393.244Z" transform="translate(-646.131 -1036.572)" fill="#3c8f7c"/>
      <path id="Path_859" data-name="Path 859" d="M1691.66,1362.6l.1.24a4.635,4.635,0,0,0,2.1-2.607,3.869,3.869,0,0,0-.556-3.448,4.686,4.686,0,0,0-2.469,2.808,4.066,4.066,0,0,0-.175,1.005,3.448,3.448,0,0,1,.666,1.843A.258.258,0,0,1,1691.66,1362.6Z" transform="translate(-643.723 -1006.274)" fill="#50bfa5"/>
      <path id="Path_860" data-name="Path 860" d="M1694.762,1391.613a3.77,3.77,0,0,1,0,.505c.022.032.043.064.065.1.127-.062.251-.13.372-.2l-.1-.239A.258.258,0,0,0,1694.762,1391.613Z" transform="translate(-647.166 -1035.446)" fill="#50bfa5"/>
      <path id="Path_861" data-name="Path 861" d="M1691.107,1382.369a.3.3,0,0,1,.189-.2,3.445,3.445,0,0,0-.666-1.843A3.829,3.829,0,0,0,1691.107,1382.369Z" transform="translate(-643.7 -1026.002)" fill="#50bfa5"/>
      <path id="Path_862" data-name="Path 862" d="M1693.782,1391.7a.3.3,0,0,0-.189.2c.058.1.122.206.189.3A3.748,3.748,0,0,0,1693.782,1391.7Z" transform="translate(-646.186 -1035.537)" fill="#50bfa5"/>
      <path id="Path_863" data-name="Path 863" d="M1772.966,1414.025a3.161,3.161,0,0,1-.444-1.854c-.029-.036-.056-.074-.087-.109a2.378,2.378,0,0,0-1.992-.8,2.881,2.881,0,0,0,.693,2.192,2.379,2.379,0,0,0,1.834.808Q1772.966,1414.134,1772.966,1414.025Z" transform="translate(-710.576 -1051.915)" fill="#3c8f7c"/>
      <path id="Path_864" data-name="Path 864" d="M1786.09,1428.389c0,.073,0,.151,0,.233.049,0,.1,0,.147,0C1786.186,1428.544,1786.137,1428.467,1786.09,1428.389Z" transform="translate(-723.7 -1066.279)" fill="#3c8f7c"/>
      <path id="Path_865" data-name="Path 865" d="M1784.072,1403.057a3.852,3.852,0,0,0,1.915-2.255,3.2,3.2,0,0,0-.459-2.848,3.871,3.871,0,0,0-2.039,2.319,3.38,3.38,0,0,0-.141.756,2.856,2.856,0,0,1,.617,1.762C1784,1402.863,1784.034,1402.952,1784.072,1403.057Z" transform="translate(-721.401 -1040.774)" fill="#50bfa5"/>
      <path id="Path_866" data-name="Path 866" d="M1787.027,1428.139h-.011l.006.009c.042-.02.083-.042.125-.064-.038-.106-.074-.195-.107-.266A3.166,3.166,0,0,1,1787.027,1428.139Z" transform="translate(-724.476 -1065.801)" fill="#50bfa5"/>
      <path id="Path_867" data-name="Path 867" d="M1783.751,1418.8c0-.114,0-.216.007-.3,0-.061.071,0,.167.211a2.856,2.856,0,0,0-.617-1.762A3.161,3.161,0,0,0,1783.751,1418.8Z" transform="translate(-721.361 -1056.686)" fill="#50bfa5"/>
      <path id="Path_868" data-name="Path 868" d="M1786.263,1426.612c-.1-.207-.163-.272-.166-.211,0,.088-.007.19-.007.3.047.078.1.155.15.229h.011A3.065,3.065,0,0,0,1786.263,1426.612Z" transform="translate(-723.7 -1064.595)" fill="#50bfa5"/>
      <path id="Path_869" data-name="Path 869" d="M1754.84,1507.132c-.044-.016-.086-.034-.131-.048a2.379,2.379,0,0,0-2.118.358,2.883,2.883,0,0,0,1.738,1.505,2.379,2.379,0,0,0,2.1-.347l0-.007A3.163,3.163,0,0,1,1754.84,1507.132Z" transform="translate(-695.627 -1132.139)" fill="#3c8f7c"/>
      <path id="Path_870" data-name="Path 870" d="M1776.292,1516.947l0,.007.008-.005Z" transform="translate(-715.488 -1140.492)" fill="#3c8f7c"/>
      <path id="Path_871" data-name="Path 871" d="M1766.054,1489.9c.243-.815.451-1.646.628-2.471a3.575,3.575,0,0,0-.1-.546,3.2,3.2,0,0,0-1.883-2.187,3.871,3.871,0,0,0-.523,3.044,3.4,3.4,0,0,0,.276.718A2.893,2.893,0,0,1,1766.054,1489.9Z" transform="translate(-705.243 -1113.469)" fill="#50bfa5"/>
      <path id="Path_872" data-name="Path 872" d="M1776.347,1504.058l-.01.006.01,0a3.942,3.942,0,0,0,.62-2.5c-.177.825-.385,1.656-.628,2.471Z" transform="translate(-715.527 -1127.607)" fill="#50bfa5"/>
      <path id="Path_873" data-name="Path 873" d="M1768.071,1509.385l.006-.02a2.894,2.894,0,0,0-1.6-1.442A3.162,3.162,0,0,0,1768.071,1509.385Z" transform="translate(-707.267 -1132.931)" fill="#50bfa5"/>
      <path id="Path_874" data-name="Path 874" d="M1776.31,1516.823l-.006.02.005,0,.01-.006Z" transform="translate(-715.499 -1140.388)" fill="#50bfa5"/>
      <path id="Path_875" data-name="Path 875" d="M1698.918,1584.094a2.85,2.85,0,0,1-1.589-.711c-.042,0-.084,0-.126,0a2.147,2.147,0,0,0-1.674.975,2.6,2.6,0,0,0,1.946.718,2.155,2.155,0,0,0,1.438-.678c0-.181.005-.282.005-.292Z" transform="translate(-647.808 -1196.166)" fill="#3c8f7c"/>
      <path id="Path_876" data-name="Path 876" d="M1716.423,1587.774v.014c0,.01,0,.111-.005.292a2.135,2.135,0,0,0,.23-.289C1716.573,1587.789,1716.5,1587.782,1716.423,1587.774Z" transform="translate(-665.314 -1199.846)" fill="#3c8f7c"/>
      <path id="Path_877" data-name="Path 877" d="M1702.71,1567.078q.009-1.023,0-2.025a3.22,3.22,0,0,0-.293-.511,2.882,2.882,0,0,0-2.284-1.248,3.489,3.489,0,0,0,.525,2.735,3.055,3.055,0,0,0,.461.519A2.576,2.576,0,0,1,1702.71,1567.078Z" transform="translate(-651.6 -1179.331)" fill="#50bfa5"/>
      <path id="Path_878" data-name="Path 878" d="M1716.46,1576.177a2.843,2.843,0,0,1,.229.191l-.006.008h.009a3.568,3.568,0,0,0-.232-2.224Q1716.469,1575.154,1716.46,1576.177Z" transform="translate(-665.349 -1188.43)" fill="#50bfa5"/>
      <path id="Path_879" data-name="Path 879" d="M1708.233,1583.911a2.577,2.577,0,0,0-1.59-.529,2.851,2.851,0,0,0,1.589.711C1708.232,1584.032,1708.232,1583.971,1708.233,1583.911Z" transform="translate(-657.122 -1196.164)" fill="#50bfa5"/>
      <path id="Path_880" data-name="Path 880" d="M1716.454,1586.652c0,.061,0,.121,0,.182.075.008.149.015.224.017l.006-.008A2.786,2.786,0,0,0,1716.454,1586.652Z" transform="translate(-665.343 -1198.906)" fill="#50bfa5"/>
      <path id="Path_881" data-name="Path 881" d="M1689.531,1484.929c-.045.011-.091.02-.136.033a2.379,2.379,0,0,0-1.568,1.469,2.881,2.881,0,0,0,2.28.294,2.382,2.382,0,0,0,1.478-1.26c-.007-.06-.014-.12-.021-.18A3.162,3.162,0,0,1,1689.531,1484.929Z" transform="translate(-641.355 -1113.661)" fill="#3c8f7c"/>
      <path id="Path_882" data-name="Path 882" d="M1710.9,1487.033l.021.18c.031-.065.06-.13.085-.2Z" transform="translate(-660.692 -1115.409)" fill="#3c8f7c"/>
      <path id="Path_883" data-name="Path 883" d="M1690.682,1467.952q-.086-.72-.177-1.411a3.679,3.679,0,0,0-.941-1.343,3.2,3.2,0,0,0-2.777-.782,3.87,3.87,0,0,0,1.245,2.826,3.385,3.385,0,0,0,.627.446A2.877,2.877,0,0,1,1690.682,1467.952Z" transform="translate(-640.483 -1096.419)" fill="#50bfa5"/>
      <path id="Path_884" data-name="Path 884" d="M1710.038,1479.325l0,.01.01,0a4.073,4.073,0,0,0-.3-1.483q.091.692.177,1.411C1709.957,1479.283,1710,1479.3,1710.038,1479.325Z" transform="translate(-659.717 -1107.729)" fill="#50bfa5"/>
      <path id="Path_885" data-name="Path 885" d="M1700.379,1484.875l-.011-.091a2.878,2.878,0,0,0-2.023-.264A3.159,3.159,0,0,0,1700.379,1484.875Z" transform="translate(-650.169 -1113.251)" fill="#50bfa5"/>
      <path id="Path_886" data-name="Path 886" d="M1710.833,1486.561c0,.031.008.061.011.091l.106-.018,0-.01C1710.915,1486.6,1710.873,1486.582,1710.833,1486.561Z" transform="translate(-660.634 -1115.028)" fill="#50bfa5"/>
      <path id="Path_887" data-name="Path 887" d="M1791.641,1455.912c.015-.03.031-.058.044-.089a1.679,1.679,0,0,0-.082-1.513,2.09,2.09,0,0,0-.965.705c-.012.555-.043,1.16-.1,1.815A2.227,2.227,0,0,1,1791.641,1455.912Z" transform="translate(-727.43 -1088.002)" fill="#3c8f7c"/>
      <path id="Path_888" data-name="Path 888" d="M1789.079,1460.562c.016-.029.036-.056.053-.084.055-.655.086-1.26.1-1.815a1.9,1.9,0,0,0-.229.393A1.678,1.678,0,0,0,1789.079,1460.562Z" transform="translate(-726.02 -1091.649)" fill="#3c8f7c"/>
      <path id="Path_889" data-name="Path 889" d="M1790.479,1464.355c0,.017,0,.034,0,.05a2.722,2.722,0,0,0,2.045.576,2.254,2.254,0,0,0,1.682-1.145,2.73,2.73,0,0,0-2.091-.609,2.4,2.4,0,0,0-.525.136A2.036,2.036,0,0,1,1790.479,1464.355Z" transform="translate(-727.375 -1095.453)" fill="#50bfa5"/>
      <path id="Path_890" data-name="Path 890" d="M1790.2,1470.337l0-.007,0,.006c.015.012.031.022.046.034l0-.05Z" transform="translate(-727.138 -1101.417)" fill="#50bfa5"/>
      <path id="Path_891" data-name="Path 891" d="M1790.508,1465.117l-.006.073a2.037,2.037,0,0,0,1.107-.991A2.226,2.226,0,0,0,1790.508,1465.117Z" transform="translate(-727.397 -1096.288)" fill="#50bfa5"/>
      <path id="Path_892" data-name="Path 892" d="M1790.262,1469.941l.006-.073c-.017.028-.037.055-.053.084l0,.007Z" transform="translate(-727.158 -1101.039)" fill="#50bfa5"/>
      <path id="Path_893" data-name="Path 893" d="M1707.167,1414.957a2.229,2.229,0,0,1,.759-1.257c0-.033.011-.065.013-.1a1.679,1.679,0,0,0-.56-1.408,2.084,2.084,0,0,0-.708,1.034c.023.073.047.145.069.219Q1706.963,1414.2,1707.167,1414.957Z" transform="translate(-657.146 -1052.707)" fill="#3c8f7c"/>
      <path id="Path_894" data-name="Path 894" d="M1706.744,1420.365c0-.021.01-.04.015-.061q-.205-.761-.427-1.51c-.022-.073-.046-.146-.069-.219a1.889,1.889,0,0,0-.073.388A1.677,1.677,0,0,0,1706.744,1420.365Z" transform="translate(-656.738 -1058.055)" fill="#3c8f7c"/>
      <path id="Path_895" data-name="Path 895" d="M1709.811,1419.85l.009.033a2.723,2.723,0,0,0,2.138-.1,2.254,2.254,0,0,0,1.23-1.621,2.73,2.73,0,0,0-2.176.089,2.385,2.385,0,0,0-.455.3A2.037,2.037,0,0,1,1709.811,1419.85Z" transform="translate(-659.777 -1057.553)" fill="#50bfa5"/>
      <path id="Path_896" data-name="Path 896" d="M1709.638,1429.558l-.006-.005,0,.007.038.012-.009-.033Z" transform="translate(-659.626 -1067.243)" fill="#50bfa5"/>
      <path id="Path_897" data-name="Path 897" d="M1709.732,1422.748l.013.047a2.038,2.038,0,0,0,.746-1.3A2.228,2.228,0,0,0,1709.732,1422.748Z" transform="translate(-659.711 -1060.499)" fill="#50bfa5"/>
      <path id="Path_898" data-name="Path 898" d="M1709.668,1429.3l-.013-.047c0,.02-.011.04-.015.061l.006.005Z" transform="translate(-659.635 -1067)" fill="#50bfa5"/>
      <path id="Path_899" data-name="Path 899" d="M1763.268,1553a1.746,1.746,0,0,1,1.119-.421c.019-.018.039-.034.056-.053a1.315,1.315,0,0,0,.352-1.132,1.657,1.657,0,0,0-.79.189c-.238.468-.485.938-.738,1.406C1763.268,1552.992,1763.268,1553,1763.268,1553Z" transform="translate(-704.574 -1169.359)" fill="#3c8f7c"/>
      <path id="Path_900" data-name="Path 900" d="M1763.185,1553.969c.253-.468.5-.938.739-1.406a1.492,1.492,0,0,0-.385.291A1.312,1.312,0,0,0,1763.185,1553.969Z" transform="translate(-704.492 -1170.339)" fill="#3c8f7c"/>
      <path id="Path_901" data-name="Path 901" d="M1763.253,1559.133l0,0a2.137,2.137,0,0,0,1.368,1.017,1.765,1.765,0,0,0,1.546-.382,2.135,2.135,0,0,0-1.368-1.016,1.882,1.882,0,0,0-.422-.043,1.6,1.6,0,0,1-1.118.427S1763.253,1559.135,1763.253,1559.133Z" transform="translate(-704.558 -1175.492)" fill="#50bfa5"/>
      <path id="Path_902" data-name="Path 902" d="M1763.276,1559.134s0,0,0,.006a1.6,1.6,0,0,0,1.118-.427A1.745,1.745,0,0,0,1763.276,1559.134Z" transform="translate(-704.582 -1175.493)" fill="#50bfa5"/>
      <path id="Path_903" data-name="Path 903" d="M1725.109,1508.747c.01-.024.021-.047.03-.072a1.314,1.314,0,0,0-.143-1.177,1.613,1.613,0,0,0-.8.747q.061.625.116,1.251A1.745,1.745,0,0,1,1725.109,1508.747Z" transform="translate(-671.832 -1132.574)" fill="#3c8f7c"/>
      <path id="Path_904" data-name="Path 904" d="M1723.474,1513.452c.015-.032.034-.063.051-.094q-.055-.625-.116-1.251a1.47,1.47,0,0,0-.074.173A1.312,1.312,0,0,0,1723.474,1513.452Z" transform="translate(-671.044 -1136.436)" fill="#3c8f7c"/>
      <path id="Path_905" data-name="Path 905" d="M1724.953,1515.114l.006.068a2.126,2.126,0,0,0,1.6.325,1.764,1.764,0,0,0,1.254-.982,2.137,2.137,0,0,0-1.665-.366,1.868,1.868,0,0,0-.4.134A1.59,1.59,0,0,1,1724.953,1515.114Z" transform="translate(-672.466 -1138.12)" fill="#50bfa5"/>
      <path id="Path_906" data-name="Path 906" d="M1724.59,1520.3l0-.005,0,.005c.021.015.044.027.066.042,0-.023,0-.046-.006-.068C1724.626,1520.286,1724.608,1520.3,1724.59,1520.3Z" transform="translate(-672.157 -1143.283)" fill="#50bfa5"/>
      <path id="Path_907" data-name="Path 907" d="M1724.913,1515.955l.006.073a1.589,1.589,0,0,0,.791-.821A1.745,1.745,0,0,0,1724.913,1515.955Z" transform="translate(-672.433 -1139.033)" fill="#50bfa5"/>
      <path id="Path_908" data-name="Path 908" d="M1724.658,1519.9c0-.024,0-.048-.007-.073-.017.031-.036.062-.051.094l0,.005Z" transform="translate(-672.171 -1142.907)" fill="#50bfa5"/>
      <path id="Path_909" data-name="Path 909" d="M1656.083,1827.378q4.5.588,9.087.883c.007-.8.016-1.713.028-2.71l-7.915.02A15.03,15.03,0,0,1,1656.083,1827.378Z" transform="translate(-614.753 -1399.106)" fill="#b75742"/>
      <path id="Path_910" data-name="Path 910" d="M1725.748,1828.209q3.281.156,6.6.159,3.219,0,6.4-.15a4.417,4.417,0,0,0-2.018-2.821c-.036-.018-.072-.034-.108-.05l-10.843.028C1725.77,1826.431,1725.758,1827.384,1725.748,1828.209Z" transform="translate(-673.133 -1398.934)" fill="#b75742"/>
      <path id="Path_911" data-name="Path 911" d="M1736.8,1804.609a22.274,22.274,0,0,0-3.093-.66c-2.23-.654-3.745-3.04-6.053-3.32a6.357,6.357,0,0,0-1.652.073c-.016,1.42-.031,2.743-.045,3.935Z" transform="translate(-673.31 -1378.198)" fill="#b75742"/>
      <path id="Path_912" data-name="Path 912" d="M1671.408,1806.829c.013-1.108.029-2.324.048-3.619l-3.16.463a5.911,5.911,0,0,0-2.963,1,8.139,8.139,0,0,1-1.188.783,10.4,10.4,0,0,1-.652,1.4Z" transform="translate(-620.962 -1380.384)" fill="#b75742"/>
      <path id="Path_913" data-name="Path 913" d="M1627.76,1829.419l-.2-.832a2.975,2.975,0,0,0-1.109.622C1626.89,1829.282,1627.325,1829.351,1627.76,1829.419Z" transform="translate(-589.925 -1401.651)" fill="#b75742"/>
      <path id="Path_914" data-name="Path 914" d="M1636.256,1825.681a6.762,6.762,0,0,1-2.4.375,2.5,2.5,0,0,0-.56.092l.2.832q1.74.274,3.5.5a15.012,15.012,0,0,0,1.2-1.807Z" transform="translate(-595.66 -1399.211)" fill="#b75742"/>
      <path id="Path_915" data-name="Path 915" d="M1651.55,1818.46l1.935,0a10.409,10.409,0,0,0,.652-1.4c-.748.418-1.549.783-2.247,1.222A2.639,2.639,0,0,1,1651.55,1818.46Z" transform="translate(-610.954 -1391.99)" fill="#b75742"/>
      <path id="Path_916" data-name="Path 916" d="M1714.38,1828.352c.01-.825.022-1.778.034-2.835l-2.2.005c-.012,1-.021,1.907-.028,2.71C1712.914,1828.279,1713.646,1828.317,1714.38,1828.352Z" transform="translate(-661.765 -1399.078)" fill="#b75742"/>
      <path id="Path_917" data-name="Path 917" d="M1712.4,1801.547c-.018,1.3-.034,2.511-.048,3.619l2.2-.005c.014-1.192.029-2.515.045-3.935l-.239.034Z" transform="translate(-661.91 -1378.721)" fill="#b75742"/>
      <path id="Path_918" data-name="Path 918" d="M1980.245,1477.6l2.308-.025h0s-2.143-.542-2.5-.684-1.75-.391-1.864-.213c0,0,0,.01,0,.014a6.73,6.73,0,0,1,1.6.969C1980.1,1477.651,1980.292,1477.639,1980.245,1477.6Z" transform="translate(-884.68 -1106.698)" fill="#f7a491"/>
      <path id="Path_919" data-name="Path 919" d="M1987.471,1509.843c.275-.04.605-.093.957-.179-.016-.116-.037-.231-.06-.346a3.718,3.718,0,0,1-.906.489C1987.465,1509.819,1987.469,1509.831,1987.471,1509.843Z" transform="translate(-892.453 -1134.099)" fill="#f7a491"/>
      <path id="Path_920" data-name="Path 920" d="M2006.948,1448.723l-.9,1.9-12.165,3.572-.683.007s-1.74.666-1.8.666c-.021,0-.238-.076-.507-.173a6.706,6.706,0,0,1,1.593,2.447,7.17,7.17,0,0,1,.329,1.181c.985-.427,2.625-1.074,2.625-1.074s12.9-2.558,13.634-3.1a.583.583,0,0,0,.088-.092c.28-1.444.556-2.87.813-4.2Z" transform="translate(-895.332 -1083.319)" fill="#f7a491"/>
      <path id="Path_921" data-name="Path 921" d="M1988.084,1482.627q.237.193.456.407c.269.1.485.173.507.173.059,0,1.8-.665,1.8-.666l-2.308.025C1988.585,1482.6,1988.394,1482.612,1988.084,1482.627Z" transform="translate(-892.974 -1111.659)" fill="#f7a491"/>
      <path id="Path_922" data-name="Path 922" d="M2092.952,1588.786a18.383,18.383,0,0,1,.6-2.49c-.256-.867-.416-1.39-.441-1.438,0,.026,0,.031,0,.007s0-.014,0-.007c-.029-.5-.958-9.675-1.472-14.73a33.919,33.919,0,0,1-6.04-2.391l-1.686,20.458.229,4.641,8.187,1.72C2092.671,1591.64,2092.922,1589.352,2092.952,1588.786Z" transform="translate(-973.285 -1183.055)" fill="#13375b"/>
      <path id="Path_923" data-name="Path 923" d="M2093.005,1728.83c.182-1.54.359-3.054.517-4.429l-8.187-1.72.464,9.368Q2089.456,1730.54,2093.005,1728.83Z" transform="translate(-974.472 -1312.9)" fill="#13375b"/>
      <path id="Path_924" data-name="Path 924" d="M2148.17,1587.272c-1.778,5.384-3.775,11.637-4.752,15.08.552,1.867,1.552,5.326,2.63,9.069l1.892.4q2.893-1.585,5.7-3.3l-.551-7.375s.02-7.969.208-14.241A21.886,21.886,0,0,1,2148.17,1587.272Z" transform="translate(-1023.146 -1199.111)" fill="#184655"/>
      <path id="Path_925" data-name="Path 925" d="M2161.547,1738.685l-1.892-.4.353,1.227Q2160.78,1739.106,2161.547,1738.685Z" transform="translate(-1036.753 -1325.98)" fill="#184655"/>
      <path id="Path_926" data-name="Path 926" d="M2140.676,1673.416c0,.024,0,.019,0-.007C2140.675,1673.4,2140.674,1673.4,2140.676,1673.416Z" transform="translate(-1020.847 -1271.606)" fill="#184655"/>
      <path id="Path_927" data-name="Path 927" d="M2131.611,1582.5c.514,5.055,1.443,14.232,1.472,14.73.025.048.184.571.44,1.438.977-3.443,2.974-9.7,4.752-15.08A28.136,28.136,0,0,1,2131.611,1582.5Z" transform="translate(-1013.251 -1195.423)" fill="#184655"/>
      <path id="Path_928" data-name="Path 928" d="M2094.283,1376.59a12.467,12.467,0,0,1,2.05-3.011,4.7,4.7,0,0,0-1.858.893c-3.849,3.153-5.918,11.194-5.918,11.194l.23.086,4.374-9.269A9.277,9.277,0,0,1,2094.283,1376.59Z" transform="translate(-977.171 -1020.348)" fill="#f7cc7f"/>
      <path id="Path_929" data-name="Path 929" d="M2094.391,1394.761a12.864,12.864,0,0,1,1.085-3.186,9.258,9.258,0,0,0-1.123-.107l-4.374,9.269,3.032,1.131C2093.748,1398.073,2094.328,1395.083,2094.391,1394.761Z" transform="translate(-978.364 -1035.333)" fill="#f7cc7f"/>
      <path id="Path_930" data-name="Path 930" d="M2204.742,1523.314c-.147,1.325-.255,3.644-.333,6.257a10.576,10.576,0,0,0,1.289-.329s-.138-5.484-.156-10.752q-.383.077-.764.15A26.856,26.856,0,0,1,2204.742,1523.314Z" transform="translate(-1074.257 -1141.785)" fill="#fae0b2"/>
      <path id="Path_931" data-name="Path 931" d="M2091.773,1388.1l13.215,1.97s0,.023.01.065l1.192.216s.124.6.277,1.558c.446-.153.875-.3,1.274-.45.008-.5.019-.985.032-1.437l-.941.455s-1.179-5.515-2.059-8.923c-.7-2.716,2.46-7.391,3.919-7.493a34.7,34.7,0,0,0-4.474-1.279l.024.221a.708.708,0,0,1-.188.564c-1.571,1.651-4.066,1.042-5.347.568a1.072,1.072,0,0,1-.689-1.171c.031-.2.067-.426.1-.666a11.748,11.748,0,0,0-2.42.09s-.038.036-.106.107a6.989,6.989,0,0,1,1.857-.191c.386.011-.37,3.958-1.156,6.97-.648,2.483-2.3,7.612-2.3,7.612l-1.613-.6a30.725,30.725,0,0,1-2.117,3.711l-2.592,13.382q.543.3,1.077.569l.7-8.52Z" transform="translate(-976.433 -1019.263)" fill="#fae0b2"/>
      <path id="Path_932" data-name="Path 932" d="M2104.491,1455.7l-.813,4.2a30.65,30.65,0,0,0,2.117-3.711Z" transform="translate(-989.843 -1089.17)" fill="#fae0b2"/>
      <path id="Path_933" data-name="Path 933" d="M2100.032,1484.874l3-4.616c-1.087.426-1.67,2.208-2.066,1.966s1.028-1.872.834-2.288-2.388,1.342-2.714,1.1c-.6-.438,2.284-2.073,2.021-2.292s-3.321,1.32-3.408.645,3.336-1.265,3.159-1.626-3.135.835-3.638.137c-.269-.373,5.313-1.4,5.6-1.962s-2.006-1.466-1.855-2,4.012,1.977,4.357,1.9c.059-.014.317-.088.717-.206l2.62-4.031,1.911.347-.009-.065-13.216-1.97-2.318,7.327-.7,8.52a33.928,33.928,0,0,0,6.04,2.391C2100.168,1486.207,2100.032,1484.874,2100.032,1484.874Z" transform="translate(-982.005 -1101.075)" fill="#fae0b2"/>
      <path id="Path_934" data-name="Path 934" d="M2196.08,1484.25c-.153-.96-.277-1.558-.277-1.558l-1.192-.216c.033.236.149,1.1.225,2.193C2195.256,1484.529,2195.675,1484.389,2196.08,1484.25Z" transform="translate(-1066.046 -1111.604)" fill="#fae0b2"/>
      <path id="Path_935" data-name="Path 935" d="M2178.25,1519.417c-.622.119-1.232.227-1.813.324a5.665,5.665,0,0,1-.352,1.319c-.39.913-1.776,4.955-3.331,9.663a21.886,21.886,0,0,0,5.128-.375c.078-2.614.186-4.933.333-6.257A26.857,26.857,0,0,0,2178.25,1519.417Z" transform="translate(-1047.73 -1142.562)" fill="#fae0b2"/>
      <path id="Path_936" data-name="Path 936" d="M2171.168,1480.682l-1.912-.347-2.62,4.031c1.005-.3,2.9-.88,4.756-1.491C2171.317,1481.779,2171.2,1480.918,2171.168,1480.682Z" transform="translate(-1042.603 -1109.811)" fill="#fae0b2"/>
      <path id="Path_937" data-name="Path 937" d="M2139.884,1522.735a5.7,5.7,0,0,0,.352-1.319c-1.873.312-3.443.507-4.084.551-2.01.14-2.5,1.029-3.588,1.449l-.009,0-3,4.616s.136,1.333.333,3.275a28.147,28.147,0,0,0,6.665,1.088C2138.107,1527.69,2139.494,1523.648,2139.884,1522.735Z" transform="translate(-1011.528 -1144.237)" fill="#fae0b2"/>
      <path id="Path_938" data-name="Path 938" d="M2120.522,1373.623c1.167,1.985-1.612,8.5-3.773,12.742l1.613.6s1.65-5.129,2.3-7.612c.786-3.012,1.542-6.959,1.157-6.971a6.985,6.985,0,0,0-1.858.191,12.445,12.445,0,0,0-2.051,3.01A2.167,2.167,0,0,0,2120.522,1373.623Z" transform="translate(-1000.797 -1019.344)" fill="#fae0b2"/>
      <path id="Path_939" data-name="Path 939" d="M2113.777,1380.048a2.168,2.168,0,0,1-2.614,1.963,12.87,12.87,0,0,0-1.084,3.186c-.064.322-.644,3.312-1.379,7.107l1.3.486C2112.165,1388.548,2114.944,1382.033,2113.777,1380.048Z" transform="translate(-994.051 -1025.769)" fill="#fae0b2"/>
      <path id="Path_940" data-name="Path 940" d="M2118.916,1267.7c.006-.038.012-.075.017-.111.049-.324.094-.615.127-.841a6.022,6.022,0,0,1-3.162-4.956.877.877,0,0,1-.416.122c-.677.018-1.248-.779-1.274-1.781s.5-1.828,1.177-1.846a.968.968,0,0,1,.687.286,6.6,6.6,0,0,1,2.52-4.417c-.554-.008-.948.028-.948.028l2.167-1.766s2.8-.134,3.162-.081a20.518,20.518,0,0,1,2.429.91,23.942,23.942,0,0,1,2.065,2.87c.345.637-.026,3.879-.909,4.151a.256.256,0,0,1-.1.008c0,.017,0,.034,0,.051a.982.982,0,0,1,.774-.135c.653.181.965,1.11.7,2.076s-1.013,1.6-1.666,1.421a.9.9,0,0,1-.443-.291,6.331,6.331,0,0,1-1.592,2.186l.159,1.464c.94.128,4.318.337,5.193-3.1,0,0,2.92-.93.641-4.6,0,0,2.229-5.14-2.451-6.288,0,0-.907-5.019-5.447-2.764,0,0-4.311-1.889-5.462,1.854a2.737,2.737,0,0,0-2.826,3.711s-3.61,2.164-.876,6.846c0,0-.7,4.647,4.664,4.54a2.421,2.421,0,0,0,1.026.85c.021-.138.042-.272.062-.4Z" transform="translate(-996.935 -916.549)" fill="#184655"/>
      <path id="Path_941" data-name="Path 941" d="M2197.053,1317.713c.653.181,1.4-.456,1.666-1.421s-.045-1.9-.7-2.076a.984.984,0,0,0-.774.135,7.82,7.82,0,0,1-.637,3.071A.9.9,0,0,0,2197.053,1317.713Z" transform="translate(-1067.721 -970.575)" fill="#f7a491"/>
      <path id="Path_942" data-name="Path 942" d="M2126.764,1302.893a.97.97,0,0,0-.687-.286c-.677.018-1.2.845-1.177,1.846s.6,1.8,1.275,1.781a.878.878,0,0,0,.415-.122q-.009-.107-.015-.214A12.927,12.927,0,0,1,2126.764,1302.893Z" transform="translate(-1007.626 -960.872)" fill="#f7a491"/>
      <path id="Path_943" data-name="Path 943" d="M2158.259,1359.511l-.328-3.022c-.155-.021-.247-.04-.247-.04s-.573.689-2.986,1.247a3.494,3.494,0,0,1-2.3-.152c-.076.49-.157,1.013-.23,1.482,2.05.052,4.722.261,5.652.406C2157.96,1359.456,2158.109,1359.483,2158.259,1359.511Z" transform="translate(-1030.474 -1005.993)" fill="#f7a491"/>
      <path id="Path_944" data-name="Path 944" d="M2152.142,1374.2c1.281.474,3.776,1.083,5.347-.568a.708.708,0,0,0,.188-.564l-.024-.221c-.15-.028-.3-.055-.444-.078-.929-.145-3.6-.354-5.651-.406l-.1.666A1.071,1.071,0,0,0,2152.142,1374.2Z" transform="translate(-1029.868 -1019.327)" fill="#f7a491"/>
      <path id="Path_945" data-name="Path 945" d="M2155.888,1350.329c2.413-.558,2.986-1.247,2.986-1.247s.092.019.247.04l-.159-1.464h0l.094.863a7.4,7.4,0,0,1-.63.487,4.875,4.875,0,0,1-4.78.766c-.02.13-.041.265-.062.4A3.493,3.493,0,0,0,2155.888,1350.329Z" transform="translate(-1031.665 -998.625)" fill="#f7a491"/>
      <path id="Path_946" data-name="Path 946" d="M2154.2,1354.844c-.033.226-.077.517-.127.841.05-.325.094-.615.127-.841Z" transform="translate(-1032.075 -1004.648)" fill="#f7a491"/>
      <path id="Path_947" data-name="Path 947" d="M2153.967,1360.146h0l.017-.111Z" transform="translate(-1031.986 -1008.998)" fill="#f48c7f"/>
      <path id="Path_948" data-name="Path 948" d="M2154.111,1348.822c-.033.226-.077.516-.127.841l-.017.111a4.875,4.875,0,0,0,4.78-.766,7.434,7.434,0,0,0,.63-.487l-.094-.863a6.731,6.731,0,0,1-.65.512A4.455,4.455,0,0,1,2154.111,1348.822Z" transform="translate(-1031.986 -998.625)" fill="#f48c7f"/>
      <path id="Path_949" data-name="Path 949" d="M2145.26,1286.347a1.991,1.991,0,0,1-.255-1.785,2.168,2.168,0,0,1,.892-1.286c0-.017,0-.034,0-.051-.994-.078-3.949-4.911-5.228-5.6a6.183,6.183,0,0,0-2.642-.525,6.6,6.6,0,0,0-2.52,4.417,2.142,2.142,0,0,1,.587,1.495,1.917,1.917,0,0,1-.762,1.725,6.022,6.022,0,0,0,3.162,4.956c.021-.141.038-.257.049-.339v-.006l.006-.042v-.012c0-.013,0-.024,0-.034v-.007c0-.009,0-.015,0-.021v-.006a.1.1,0,0,0,0-.014l4.967-1.967.139,1.283A6.337,6.337,0,0,0,2145.26,1286.347Zm-5.658,1.523c-2.288.05-2.281-1.691-2.281-1.691l4.267.03A1.865,1.865,0,0,1,2139.6,1287.871Z" transform="translate(-1016.372 -939.5)" fill="#f7a491"/>
      <path id="Path_950" data-name="Path 950" d="M2194.545,1316.493a1.991,1.991,0,0,0,.254,1.785,7.83,7.83,0,0,0,.637-3.071A2.168,2.168,0,0,0,2194.545,1316.493Z" transform="translate(-1065.911 -971.431)" fill="#f7a491"/>
      <path id="Path_951" data-name="Path 951" d="M2135.926,1305.868a2.143,2.143,0,0,0-.587-1.5,12.928,12.928,0,0,0-.19,3.005c0,.071.009.143.015.214A1.917,1.917,0,0,0,2135.926,1305.868Z" transform="translate(-1016.201 -962.352)" fill="#f7a491"/>
      <path id="Path_952" data-name="Path 952" d="M2155.256,1351.895a.1.1,0,0,0,0-.014A.1.1,0,0,1,2155.256,1351.895Z" transform="translate(-1033.066 -1002.164)" fill="#f7a491"/>
      <path id="Path_953" data-name="Path 953" d="M2155.238,1352.026c0-.009,0-.015,0-.021S2155.239,1352.017,2155.238,1352.026Z" transform="translate(-1033.051 -1002.268)" fill="#f7a491"/>
      <path id="Path_954" data-name="Path 954" d="M2155.163,1352.5c0-.016,0-.029.005-.042C2155.167,1352.469,2155.165,1352.483,2155.163,1352.5Z" transform="translate(-1032.988 -1002.646)" fill="#f7a491"/>
      <path id="Path_955" data-name="Path 955" d="M2154.906,1352.75c-.011.082-.028.2-.049.339h0C2154.877,1352.948,2154.894,1352.832,2154.906,1352.75Z" transform="translate(-1032.732 -1002.893)" fill="#f7a491"/>
      <path id="Path_956" data-name="Path 956" d="M2155.207,1352.21c0-.013,0-.024,0-.034C2155.21,1352.186,2155.208,1352.2,2155.207,1352.21Z" transform="translate(-1033.025 -1002.412)" fill="#f7a491"/>
      <path id="Path_957" data-name="Path 957" d="M2186.063,1341.02h0l-.139-1.283Z" transform="translate(-1058.766 -991.987)" fill="#f7a491"/>
      <path id="Path_958" data-name="Path 958" d="M2155.158,1352.721v0Z" transform="translate(-1032.984 -1002.864)" fill="#f7a491"/>
      <path id="Path_959" data-name="Path 959" d="M2155.251,1351.971v0Z" transform="translate(-1033.062 -1002.235)" fill="#f7a491"/>
      <path id="Path_960" data-name="Path 960" d="M2155.2,1352.395v0Z" transform="translate(-1033.017 -1002.585)" fill="#f7a491"/>
      <path id="Path_961" data-name="Path 961" d="M2155.232,1352.142v0Z" transform="translate(-1033.046 -1002.377)" fill="#f7a491"/>
      <path id="Path_962" data-name="Path 962" d="M2154.922,1341.7a.12.12,0,0,1,0,.014v.006c0,.006,0,.013,0,.021v.006c0,.01,0,.021,0,.033l0,.012c0,.013,0,.026-.005.042v.005c-.011.083-.028.2-.049.339a4.454,4.454,0,0,0,4.522-.652,6.686,6.686,0,0,0,.65-.512l-.14-1.283Z" transform="translate(-1032.732 -991.988)" fill="#f7a491"/>
      <path id="Path_963" data-name="Path 963" d="M2149.884,1334.821a1.866,1.866,0,0,0,1.987-1.661l-4.267-.03S2147.6,1334.871,2149.884,1334.821Z" transform="translate(-1026.654 -986.451)" fill="#fff"/>
      <path id="Path_964" data-name="Path 964" d="M2150.291,1266.862a5.957,5.957,0,0,1,3.43,2.287,8.49,8.49,0,0,1,1.215,4.607.25.25,0,0,0,.1-.008c.883-.272,1.254-3.513.909-4.15a24.04,24.04,0,0,0-2.065-2.87,20.568,20.568,0,0,0-2.429-.91c-.358-.053-3.161.08-3.161.08l-2.167,1.766s.394-.037.947-.029A5.044,5.044,0,0,1,2150.291,1266.862Z" transform="translate(-1025.409 -930.031)" fill="#184655"/>
      <path id="Path_965" data-name="Path 965" d="M2159.837,1279.15a8.492,8.492,0,0,0-1.214-4.607,5.958,5.958,0,0,0-3.431-2.287,5.04,5.04,0,0,0-3.224.773,6.18,6.18,0,0,1,2.642.525C2155.889,1274.239,2158.844,1279.072,2159.837,1279.15Z" transform="translate(-1030.311 -935.425)" fill="#184655"/>
      <path id="Path_966" data-name="Path 966" d="M2213.172,1467.569c-.431.2-1.046.445-1.76.705-.023,1.383-.028,2.936-.023,4.509,3.422-.693,6.933-1.683,7.492-2.815.2-.406-.6-3.24-1.46-6.02l-4.609,2.228C2212.965,1466.83,2213.094,1467.35,2213.172,1467.569Z" transform="translate(-1080.105 -1096.079)" fill="#f7a491"/>
      <path id="Path_967" data-name="Path 967" d="M2204.951,1490.652c-.4.146-.828.3-1.274.45.169,1.065.374,2.575.487,4.21.253-.048.509-.1.764-.15C2204.923,1493.588,2204.928,1492.035,2204.951,1490.652Z" transform="translate(-1073.644 -1118.456)" fill="#f7a491"/>
      <path id="Path_968" data-name="Path 968" d="M2120.252,1496.289c-.344.079-4.206-2.435-4.357-1.9s2.142,1.446,1.855,2-5.868,1.588-5.6,1.962c.5.7,3.46-.5,3.637-.137s-3.246.951-3.159,1.626,3.145-.864,3.408-.645-2.621,1.854-2.021,2.292c.325.238,2.519-1.52,2.713-1.1s-1.231,2.046-.834,2.288.979-1.54,2.066-1.966l3.007-4.627C2120.57,1496.2,2120.311,1496.275,2120.252,1496.289Z" transform="translate(-996.936 -1121.527)" fill="#f7a491"/>
      <path id="Path_969" data-name="Path 969" d="M2195.489,1497.963c.582-.1,1.192-.205,1.813-.324-.113-1.635-.318-3.145-.487-4.21-.4.139-.823.28-1.244.419A19.441,19.441,0,0,1,2195.489,1497.963Z" transform="translate(-1066.782 -1120.784)" fill="#f7a491"/>
      <path id="Path_970" data-name="Path 970" d="M2151.669,1500.679c.641-.045,2.211-.239,4.085-.551a19.442,19.442,0,0,0,.082-4.115c-1.852.611-3.751,1.193-4.756,1.491l-3.007,4.627.009,0C2149.173,1501.708,2149.659,1500.819,2151.669,1500.679Z" transform="translate(-1027.047 -1122.949)" fill="#f7a491"/>
      <path id="Path_971" data-name="Path 971" d="M2215.8,1393.5c1.37-.379,2.313-1.871,3.771-2.057.335,1.052.955,2.947,1.547,4.867l.592-.286s-2.549-11.128-5.336-12.725a.54.54,0,0,0-.312-.061l.119.041C2216.974,1383.556,2216.323,1389.843,2215.8,1393.5Z" transform="translate(-1083.8 -1028.443)" fill="#f7cc7f"/>
      <path id="Path_972" data-name="Path 972" d="M2212.219,1453.822c-.09.552-.168.974-.225,1.207a21.693,21.693,0,0,0-.254,3.322l1.367-.661C2212.831,1456.515,2212.481,1454.906,2212.219,1453.822Z" transform="translate(-1080.4 -1087.593)" fill="#f7cc7f"/>
      <path id="Path_973" data-name="Path 973" d="M2192.7,1390.744c.88,3.408,2.059,8.923,2.059,8.923l.941-.455a21.662,21.662,0,0,1,.254-3.322c.057-.233.135-.656.225-1.207-.124-.515-.228-.913-.294-1.087a2.383,2.383,0,0,0,.473-.082c.526-3.66,1.177-9.947.381-10.221l-.119-.041C2195.164,1383.353,2192,1388.028,2192.7,1390.744Z" transform="translate(-1064.364 -1028.453)" fill="#f7cc7f"/>
      <path id="Path_974" data-name="Path 974" d="M2214.875,1435.963c-.062.431-.122.825-.178,1.169.262,1.085.613,2.693.888,3.869l4.609-2.228c-.593-1.92-1.213-3.815-1.547-4.866C2217.188,1434.091,2216.245,1435.583,2214.875,1435.963Z" transform="translate(-1082.879 -1070.903)" fill="#f7cc7f"/>
      <path id="Path_975" data-name="Path 975" d="M2212.879,1446.684c.066.175.17.572.294,1.087.056-.344.116-.738.178-1.17A2.383,2.383,0,0,1,2212.879,1446.684Z" transform="translate(-1081.355 -1081.542)" fill="#f7cc7f"/>
      <path id="Path_976" data-name="Path 976" d="M1931.831,1475.871c.014.018.026.033.039.046l.827,1.041a5.137,5.137,0,0,1,3.975-1.66,5.333,5.333,0,0,1,1.661.313.144.144,0,0,1,.095-.041h.021a5.934,5.934,0,0,1,1.819-.322l-.113-.041c-.069-.023-.985-.758-.92-.957a6.819,6.819,0,0,0-2.471-.545,6.623,6.623,0,0,0-5.059,2l.066.083Z" transform="translate(-845.727 -1104.254)" fill="#355389"/>
      <path id="Path_977" data-name="Path 977" d="M1980.053,1508.543a5.169,5.169,0,0,1-.13,2.036,5.226,5.226,0,0,1-2.456,3.19l1,1.257a7.14,7.14,0,0,0,.954-.709,6.751,6.751,0,0,0,2.145-6.337c-.164.071-.31.136-.427.191A5.817,5.817,0,0,1,1980.053,1508.543Z" transform="translate(-884.077 -1132.977)" fill="#355389"/>
      <path id="Path_978" data-name="Path 978" d="M1979.089,1478.046l.113.041c.212-.013.408-.022.571-.029a6.727,6.727,0,0,0-1.6-.969C1978.1,1477.288,1979.02,1478.023,1979.089,1478.046Z" transform="translate(-884.663 -1107.09)" fill="#355389"/>
      <path id="Path_979" data-name="Path 979" d="M1976.177,1483.628c-.362-.131-.818-.3-1.027-.378a5.928,5.928,0,0,0-1.819.322c.606,0,3.422,1.135,3.366,1.728a1.252,1.252,0,0,0,.31.833.847.847,0,0,1-.179,1.111c-.091.073-.193.152-.3.229.024.115.044.23.06.346a5.808,5.808,0,0,0,1.085-.372c.117-.055.263-.12.427-.191a7.147,7.147,0,0,0-.329-1.181A6.706,6.706,0,0,0,1976.177,1483.628Z" transform="translate(-880.611 -1112.254)" fill="#355389"/>
      <path id="Path_980" data-name="Path 980" d="M1984.558,1483.1c.209.077.665.246,1.027.378q-.219-.214-.456-.407C1984.966,1483.077,1984.77,1483.086,1984.558,1483.1Z" transform="translate(-890.019 -1112.103)" fill="#355389"/>
      <path id="Path_981" data-name="Path 981" d="M1835.222,1544.285a.98.98,0,0,0,.076.1A1.067,1.067,0,0,1,1835.222,1544.285Z" transform="translate(-764.873 -1163.402)" fill="#f47458"/>
      <path id="Path_982" data-name="Path 982" d="M1844.559,1485.6l-.9.534h0l-4.776,2.827h0a.69.69,0,0,1-.128.081c-.339.173-.326.187-.176.542.515,1.22,1.024,2.443,1.537,3.663q.985,2.343,1.973,4.685c.2.465.386.933.6,1.451l-.621-.232q-4.936-1.846-9.874-3.689a.851.851,0,0,1-.341-.225l.008.01-.78,1.718a.568.568,0,0,1,.4.024q6.129,2.64,12.262,5.271a.513.513,0,0,1,.291.307c.3.728.614,1.449.909,2.179-.146-.36-.3-.718-.448-1.076C1850.331,1498.169,1846.505,1489.236,1844.559,1485.6Z" transform="translate(-761.401 -1114.225)" fill="#f47458"/>
      <path id="Path_983" data-name="Path 983" d="M1916.257,1480.385c.438-.259.875-.519,1.309-.783C1917.131,1479.867,1916.694,1480.126,1916.257,1480.385Z" transform="translate(-832.782 -1109.196)" fill="#f47458"/>
      <path id="Path_984" data-name="Path 984" d="M1876.662,1491.338c-.127-.256-.2-.539-.33-.794-.1-.2-.056-.259.15-.307,1.354-.309,2.7-.631,4.056-.944a2.115,2.115,0,0,0,.615-.248l.243-.144-5.281,1.276.505,1.55C1876.737,1491.632,1876.753,1491.52,1876.662,1491.338Z" transform="translate(-799.143 -1116.989)" fill="#b75742"/>
      <path id="Path_985" data-name="Path 985" d="M1882.241,1488.9h0l-.243.144a2.121,2.121,0,0,1-.615.248c-1.353.313-2.7.635-4.056.945-.207.047-.254.1-.151.306.13.255.2.538.33.794.091.182.075.294-.041.389h0Z" transform="translate(-799.987 -1116.987)" fill="#b75742"/>
      <path id="Path_986" data-name="Path 986" d="M1835.714,1544.932l-.024-.028Z" transform="translate(-765.266 -1163.921)" fill="#355389"/>
      <path id="Path_987" data-name="Path 987" d="M1815.848,1530.819l-.025-.028a1.034,1.034,0,0,1-.076-.1c-.414-.636-.842-1.265-1.266-1.895-.157-.233-.322-.461-.512-.733l-1.985,5.3c1.076-.284,2.086-.547,3.093-.82l.78-1.718Z" transform="translate(-745.399 -1149.807)" fill="#355389"/>
      <path id="Path_988" data-name="Path 988" d="M1914.293,1484.626h0l.318-.189Z" transform="translate(-831.136 -1113.249)" fill="#eafcfc"/>
      <path id="Path_989" data-name="Path 989" d="M1914.293,1484.626h0l.318-.189Z" transform="translate(-831.136 -1113.249)" fill="#c5ddf9" opacity="0.5" style="mix-blend-mode: multiply;isolation: isolate"/>
      <path id="Path_990" data-name="Path 990" d="M1914.293,1484.626h0l.318-.189Z" transform="translate(-831.136 -1113.249)" fill="#b75742" opacity="0.5"/>
      <path id="Path_991" data-name="Path 991" d="M1924.817,1491.086l-1.007-1.268.333-.188.048-.029-6.422-8.086-.035.037-.258.291-1-1.265.2-.206c.035-.036.071-.07.107-.105l-.319-.4q-.109-.135-.216-.272h0c-.072-.092-.143-.185-.211-.279-.135-.185-.236-.226-.446-.1-.434.265-.871.525-1.309.783l-.318.189c1.947,3.634,5.772,12.567-.065,18.067.151.358.3.716.448,1.076.067.165.13.164.261.084.38-.232.765-.455,1.148-.682q5.22-3.089,10.441-6.175c.176-.1.244-.163.077-.359s-.324-.39-.481-.589h0l-.6-.752c-.042.026-.083.054-.126.08Z" transform="translate(-830.8 -1108.81)" fill="#f47458"/>
      <path id="Path_992" data-name="Path 992" d="M1924.817,1491.086l-1.007-1.268.333-.188.048-.029-6.422-8.086-.035.037-.258.291-1-1.265.2-.206c.035-.036.071-.07.107-.105l-.319-.4q-.109-.135-.216-.272h0c-.072-.092-.143-.185-.211-.279-.135-.185-.236-.226-.446-.1-.434.265-.871.525-1.309.783l-.318.189c1.947,3.634,5.772,12.567-.065,18.067.151.358.3.716.448,1.076.067.165.13.164.261.084.38-.232.765-.455,1.148-.682q5.22-3.089,10.441-6.175c.176-.1.244-.163.077-.359s-.324-.39-.481-.589h0l-.6-.752c-.042.026-.083.054-.126.08Z" transform="translate(-830.8 -1108.81)" fill="#b75742" opacity="0.5"/>
      <path id="Path_993" data-name="Path 993" d="M1975.45,1543.746l-.333.188,1.007,1.268.246-.148c.043-.026.084-.053.126-.08l-1-1.257Z" transform="translate(-882.108 -1162.926)" fill="#f47458"/>
      <path id="Path_994" data-name="Path 994" d="M1975.45,1543.746l-.333.188,1.007,1.268.246-.148c.043-.026.084-.053.126-.08l-1-1.257Z" transform="translate(-882.108 -1162.926)" fill="#b75742" opacity="0.5"/>
      <path id="Path_995" data-name="Path 995" d="M1929.817,1486.4l1,1.265.258-.291.035-.037-.827-1.041c-.012-.013-.025-.029-.039-.046l-.06-.078-.066-.083c-.035.035-.072.069-.107.105Z" transform="translate(-844.145 -1114.634)" fill="#f47458"/>
      <path id="Path_996" data-name="Path 996" d="M1929.817,1486.4l1,1.265.258-.291.035-.037-.827-1.041c-.012-.013-.025-.029-.039-.046l-.06-.078-.066-.083c-.035.035-.072.069-.107.105Z" transform="translate(-844.145 -1114.634)" fill="#b75742" opacity="0.5"/>
      <path id="Path_997" data-name="Path 997" d="M1972.984,1489.654a1.228,1.228,0,0,0,1.3.183c-.359-1.462-1.354-2.525-2.038-3.861-.065-.142-.313-.33-.364-.474l.016-.008-.018-.006C1971.481,1485.863,1971.969,1488.716,1972.984,1489.654Z" transform="translate(-879.28 -1114.128)" fill="#ed9a8c"/>
      <path id="Path_998" data-name="Path 998" d="M1974.888,1487.137a5.048,5.048,0,0,0-2.237-1.61l-.015.008c.05.145.3.333.363.474.685,1.336,1.679,2.4,2.038,3.861a3.718,3.718,0,0,0,.906-.489,5.262,5.262,0,0,0-.626-1.616A5.646,5.646,0,0,0,1974.888,1487.137Z" transform="translate(-880.028 -1114.162)" fill="#ed9a8c"/>
      <path id="Path_999" data-name="Path 999" d="M1972.618,1485.274l.019.006c.031-.017.063-.032.1-.047h-.021A.144.144,0,0,0,1972.618,1485.274Z" transform="translate(-880.013 -1113.915)" fill="#ed9a8c"/>
      <path id="Path_1000" data-name="Path 1000" d="M1974.968,1486.893a5.581,5.581,0,0,1,.429.628,5.254,5.254,0,0,1,.626,1.616c.109-.078.212-.156.3-.229a.846.846,0,0,0,.179-1.111,1.25,1.25,0,0,1-.31-.833c.055-.593-2.76-1.723-3.366-1.728-.034.015-.066.031-.1.047A5.051,5.051,0,0,1,1974.968,1486.893Z" transform="translate(-880.109 -1113.918)" fill="#ed9a8c"/>
    </g>
  </g>
</svg>
