<svg xmlns="http://www.w3.org/2000/svg" width="328" height="328" viewBox="0 0 328 328">
  <g id="healthy_v" transform="translate(-43 -185)">
    <circle id="Ellipse_22" data-name="Ellipse 22" cx="164" cy="164" r="164" transform="translate(43 185)" fill="#ebf3fa" opacity="0.37"/>
    <circle id="Ellipse_21" data-name="Ellipse 21" cx="152" cy="152" r="152" transform="translate(55 197)" fill="#ebf3fa" opacity="0.37"/>
    <circle id="Ellipse_20" data-name="Ellipse 20" cx="138" cy="138" r="138" transform="translate(69 211)" fill="#ebf3fa" opacity="0.49"/>
    <g id="Group_405" data-name="Group 405" transform="translate(81.076 223.076)">
      <circle id="Ellipse_19" data-name="Ellipse 19" cx="126.446" cy="126.446" r="126.446" transform="translate(0 0)" fill="#ebf3fa"/>
      <g id="Group_404" data-name="Group 404" transform="translate(16.977 28.441)">
        <g id="Group_387" data-name="Group 387" transform="translate(62.622 0)">
          <g id="Group_384" data-name="Group 384" transform="translate(9.052)">
            <g id="Group_379" data-name="Group 379" transform="translate(26.807)">
              <g id="Group_378" data-name="Group 378" transform="translate(7.839)">
                <path id="Path_506" data-name="Path 506" d="M1521.323,586.929c-.009.173-.015.264-.015.264s-.028-.088-.084-.257c-.452-1.395-2.662-8.277-4.673-15.941-2.781-10.6-5.182-22.7-2.023-23.817,5.984-2.12,7.087,14.821,7.1,27.322C1521.643,580.659,1521.388,585.738,1521.323,586.929Z" transform="translate(-1513.031 -529.77)" fill="#a8d29f"/>
                <path id="Path_507" data-name="Path 507" d="M1601.662,415.239c-2.162,4.8-4.039,8.832-5.115,11.25-.469,1.054-.785,1.8-.908,2.166.1-.6.387-2.2.79-4.479v0c.6-3.416,1.483-8.35,2.446-13.708,2.338-13.023,5.184-28.54,5.848-30.758,1.172-3.913,6.574-12.244,10.209-5C1617.293,379.421,1608.179,400.781,1601.662,415.239Z" transform="translate(-1587.514 -371.847)" fill="#a8d29f"/>
                <path id="Path_508" data-name="Path 508" d="M1605.738,665c-2.235,2.359-4.113,4.271-5.163,5.328-.573.579-.9.9-.9.9s.572-1.22,1.547-3.168c.921-1.841,2.2-4.331,3.7-7.056,4.9-8.931,12.117-20.378,16.591-19.716C1626.617,642.04,1613.839,656.445,1605.738,665Z" transform="translate(-1591.154 -614.759)" fill="#a8d29f"/>
                <path id="Path_509" data-name="Path 509" d="M1553.6,806.922l-.1.007c-.453-1.394-2.662-8.277-4.673-15.941.938,1.4,2.634,3.289,5.081,3.5C1553.918,800.652,1553.663,805.731,1553.6,806.922Z" transform="translate(-1545.306 -749.763)" fill="#82b378"/>
                <path id="Path_510" data-name="Path 510" d="M1608.9,769.247c-2.162,4.8-4.039,8.832-5.115,11.25a19.566,19.566,0,0,1-.118-2.313v0c.6-3.416,1.483-8.35,2.446-13.708C1606.49,766.343,1607.274,768.415,1608.9,769.247Z" transform="translate(-1594.753 -725.854)" fill="#82b378"/>
                <path id="Path_511" data-name="Path 511" d="M1613.978,845.985c-2.235,2.359-4.113,4.271-5.163,5.328a14.3,14.3,0,0,1,.648-2.266c.921-1.841,2.2-4.331,3.7-7.056A9.763,9.763,0,0,0,1613.978,845.985Z" transform="translate(-1599.394 -795.748)" fill="#82b378"/>
              </g>
              <path id="Path_512" data-name="Path 512" d="M1595.121,949.443c-.03.167-.045.255-.045.255C1595.054,949.686,1595.068,949.6,1595.121,949.443Z" transform="translate(-1579.158 -892.632)" fill="#a8d29f"/>
              <path id="Path_513" data-name="Path 513" d="M1452.294,923.225c-3.749,10.621-8.417,22.2-8.417,22.2l-10.546-3.161s1.235-7.866,3.047-16.62c2.114-10.206,3.321-20.5,7.657-23.183a8.186,8.186,0,0,1,3.743-1.172,9.135,9.135,0,0,1,1.887.055c.148.019.292.042.439.067a9.936,9.936,0,0,1,1.076.255q.206.058.408.13a10.272,10.272,0,0,1,1.348.567,7.874,7.874,0,0,1,3.873,3.836C1458.541,910.741,1455.128,915.2,1452.294,923.225Z" transform="translate(-1433.33 -849.193)" fill="#ed7d2b"/>
            </g>
            <g id="Group_380" data-name="Group 380" transform="translate(37.666 50.319)">
              <path id="Path_514" data-name="Path 514" d="M1546.685,920.161a63.741,63.741,0,0,0-2.456,27.469,5.5,5.5,0,0,0,4.416,4.755c1.628-.009,4.839-2.968,6.676-6.744a14.206,14.206,0,0,0,1.142-3.257c1.841-8.734,5.25-19.251,9.479-24.627,4.325-5.5,10.151-12.068,18.161-16.587l0,0c.773-.443,18.948-13.678,18.948-13.678,1.808-1.912-.333-4.054-.333-4.054a49.728,49.728,0,0,1-6.992,4.546c-5.265,3.031-14.512-.522-14.516-.522a8.817,8.817,0,0,0-8.211.493,65.174,65.174,0,0,0-14.12,11.559A56.747,56.747,0,0,0,1546.685,920.161Z" transform="translate(-1543.733 -883.437)" fill="#ffb93e"/>
              <path id="Path_515" data-name="Path 515" d="M1662.037,1031.26c1.841-8.734,5.25-19.251,9.479-24.627,4.325-5.5,10.151-12.068,18.161-16.587l0,0c.14-.1,5.558-4.1-.448-7.716-5.878-3.541-29.87,22.84-28.337,52.188A14.213,14.213,0,0,0,1662.037,1031.26Z" transform="translate(-1649.308 -972.313)" fill="#ffa412"/>
            </g>
            <g id="Group_383" data-name="Group 383" transform="translate(0 51.291)">
              <path id="Path_516" data-name="Path 516" d="M1189.185,982.1a19.594,19.594,0,0,1-2.79,3.43c-4.166,4.1-10.7,7.147-19.122,7.067a24.9,24.9,0,0,1-5.247-7.655v0c-1.188-2.973-2.055-7.351,0-10.6a8.172,8.172,0,0,1,4.752-3.607c2.932-.892,5.93-.432,7.24-1.738a13.012,13.012,0,0,1,5.149-3.039c.33-.105.664-.2,1-.275h0c.141-.034.28-.064.422-.092h.009a8.741,8.741,0,0,1,8.749,2.762,9.927,9.927,0,0,1,1.437,2.355C1192.27,974.029,1191.633,978.252,1189.185,982.1Z" transform="translate(-1160.79 -958.28)" fill="#a8d29f"/>
              <path id="Path_517" data-name="Path 517" d="M1181.429,1050.51s-2.778,2.181-1.927,4.593,3.046,1.3,3.733-.373S1183.255,1049.7,1181.429,1050.51Z" transform="translate(-1177.515 -1034.937)" fill="#d1f2c9"/>
              <path id="Path_518" data-name="Path 518" d="M1200.684,995.647a9.951,9.951,0,0,1,1.438,2.356c1.481,3.329,3.514,12.159,1.067,16l-3.283,3c-4.166,4.1-12.882,2.964-21.3,2.884a24.91,24.91,0,0,1-5.247-7.655h0a20.507,20.507,0,0,0,20.219-4.481A21.517,21.517,0,0,0,1200.684,995.647Z" transform="translate(-1172.123 -985.582)" fill="#95c38b"/>
              <g id="Group_381" data-name="Group 381" transform="translate(1.299 2.458)">
                <path id="Path_519" data-name="Path 519" d="M1185.379,921.523c-1.719-1.024-3.458.414-5.476,1.2a21.2,21.2,0,0,1-5.9.774,28.193,28.193,0,0,1,4.217-4.586C1180.834,916.63,1185.379,921.523,1185.379,921.523Z" transform="translate(-1173.998 -918.307)" fill="#a8d29f"/>
                <path id="Path_520" data-name="Path 520" d="M1185.379,921.523c-1.615-1.326-4.6-2.086-6.06-1.49A43.951,43.951,0,0,0,1174,923.5a28.193,28.193,0,0,1,4.217-4.586C1180.834,916.63,1185.379,921.523,1185.379,921.523Z" transform="translate(-1173.998 -918.307)" fill="#82b378"/>
              </g>
              <path id="Path_521" data-name="Path 521" d="M1228.913,974.348a13.011,13.011,0,0,1,5.149-3.039c-3.433,1.287-5.327,5.638-6.629,5.134-1.4-.542-5.6-.365-5.76-.357C1224.6,975.194,1227.6,975.654,1228.913,974.348Z" transform="translate(-1215.685 -963.638)" fill="#95c38b"/>
              <path id="Path_522" data-name="Path 522" d="M1358.271,967.583c-.108.031-.247.061-.422.092C1357.99,967.641,1358.128,967.611,1358.271,967.583Z" transform="translate(-1338.467 -960.279)" fill="#95c38b"/>
              <g id="Group_382" data-name="Group 382" transform="translate(11.382)">
                <path id="Path_523" data-name="Path 523" d="M1277.118,906.039h0c-1.1-2.432-.506-5.45.187-7.553a47.914,47.914,0,0,1,2.129-5.007.28.28,0,0,1,.518.035l.209.634a2.288,2.288,0,0,1-.213,1.9c-1.064,1.759-3.2,5.871-2.239,9.255C1277.818,905.687,1277.313,906.474,1277.118,906.039Z" transform="translate(-1276.508 -893.321)" fill="#82b378"/>
              </g>
            </g>
          </g>
          <g id="Group_386" data-name="Group 386" transform="translate(36.805 69.422)">
            <g id="Group_385" data-name="Group 385" transform="translate(6.556)">
              <path id="Path_524" data-name="Path 524" d="M1509.957,1083.2l-.343-.137a12.706,12.706,0,0,1,5.721-4.519,15.043,15.043,0,0,1,3.383-.892.336.336,0,0,1,.3.115l.287.335a.283.283,0,0,1-.173.461C1517.475,1078.8,1512.247,1079.793,1509.957,1083.2Z" transform="translate(-1509.614 -1077.649)" fill="#2b478b"/>
            </g>
            <path id="Path_525" data-name="Path 525" d="M1443.4,1111.459c1.739-4.344,4.186-3.364,7.2-2.155s5.466,2.188,3.727,6.532a5.89,5.89,0,1,1-10.932-4.376Z" transform="translate(-1442.955 -1105.263)" fill="#699dee"/>
            <path id="Path_526" data-name="Path 526" d="M1466.012,1117.778a2.248,2.248,0,0,1,2.141-1.489,1.458,1.458,0,0,1,1.032,1.757,1.9,1.9,0,0,1-1.96,1.339A1.423,1.423,0,0,1,1466.012,1117.778Z" transform="translate(-1463.732 -1112.479)" fill="#92beff"/>
          </g>
          <path id="Path_527" data-name="Path 527" d="M1596.783,1151.766l9.324,66.417a13.691,13.691,0,0,1-13.558,15.594H1578.5a11.915,11.915,0,0,1-11.844-13.211l7.89-61.782Z" transform="translate(-1517.62 -1075.054)" fill="#fcecdb"/>
          <path id="Path_528" data-name="Path 528" d="M1302.412,1151.766a88.8,88.8,0,0,0,48.965,0l-7.769,82.221h-49.2Z" transform="translate(-1272.214 -1075.054)" fill="#fcecdb"/>
          <path id="Path_529" data-name="Path 529" d="M1098.96,1151.766l9.324,66.587a13.714,13.714,0,0,1-13.558,15.634h-14.047a11.934,11.934,0,0,1-11.844-13.245l6.679-68.976a67.663,67.663,0,0,0,11.294.642A90.053,90.053,0,0,0,1098.96,1151.766Z" transform="translate(-1068.762 -1075.054)" fill="#efcbab"/>
          <path id="Path_530" data-name="Path 530" d="M1510.416,1211a1.75,1.75,0,1,0-2.628,1.513c.742,5.892-.429,10.708-3.35,13.658-2.656,2.682-6.685,3.676-11.65,2.875-4.366-.7-7.24-5.536-8.881-9.465a45.611,45.611,0,0,1-2.285-7.26,1.75,1.75,0,1,0-2.011.2c.941,4.319,4.426,17.14,12.858,18.5a22.2,22.2,0,0,0,3.533.3,13.4,13.4,0,0,0,9.858-3.739c3.35-3.383,4.721-8.752,3.924-15.232A1.747,1.747,0,0,0,1510.416,1211Z" transform="translate(-1438.402 -1126.884)" fill="#ed7d2b"/>
        </g>
        <g id="Group_392" data-name="Group 392" transform="translate(147.142 65.405)">
          <g id="Group_390" data-name="Group 390" transform="translate(9.468 9.423)">
            <path id="Path_531" data-name="Path 531" d="M2032.108,1215.4a17.286,17.286,0,0,0,3.82.791c5.137.485,11.308-1.078,17.022-5.824a21.979,21.979,0,0,0-.677-8.162h0c-.844-2.7-2.691-6.175-5.908-7.254a7.213,7.213,0,0,0-5.262.181c-2.5,1.024-4.3,3.01-5.922,2.847a11.478,11.478,0,0,0-5.217.791c-.285.112-.565.234-.84.371h0c-.115.055-.227.112-.339.172l-.007,0a7.713,7.713,0,0,0-4.446,6.767,8.759,8.759,0,0,0,.329,2.412C2025.5,1211.6,2028.291,1214.132,2032.108,1215.4Z" transform="translate(-2024.329 -1188.447)" fill="#ed7d2b"/>
            <path id="Path_532" data-name="Path 532" d="M2219.861,1210.535s3.116-.057,3.878,2.068-1.361,2.586-2.762,1.826S2218.16,1211,2219.861,1210.535Z" transform="translate(-2199.927 -1202.87)" fill="#ffb583"/>
            <path id="Path_533" data-name="Path 533" d="M2024.329,1276.344a8.79,8.79,0,0,0,.33,2.413c.842,3.1,4.373,10.278,8.19,11.544,0,0,7.571,3.478,11.9,1.86,4.834-1.807,7.809-5.626,8.2-11.535a21.98,21.98,0,0,0-.677-8.162h0a18.1,18.1,0,0,1-16.331,8.2A18.99,18.99,0,0,1,2024.329,1276.344Z" transform="translate(-2024.328 -1258.708)" fill="#ea6c2d"/>
            <g id="Group_388" data-name="Group 388" transform="translate(8.418)">
              <path id="Path_534" data-name="Path 534" d="M2109.911,1138.388c.605-1.658,2.6-1.644,4.418-2.229a18.707,18.707,0,0,0,4.471-2.762,24.882,24.882,0,0,0-5.441-.787C2110.293,1132.507,2109.911,1138.388,2109.911,1138.388Z" transform="translate(-2109.911 -1132.609)" fill="#a8d29f"/>
              <path id="Path_535" data-name="Path 535" d="M2109.911,1138.388c.366-1.807,1.986-3.993,3.316-4.4a38.786,38.786,0,0,1,5.573-.594,24.882,24.882,0,0,0-5.441-.787C2110.293,1132.507,2109.911,1138.388,2109.911,1138.388Z" transform="translate(-2109.911 -1132.609)" fill="#82b378"/>
            </g>
            <path id="Path_536" data-name="Path 536" d="M2086.82,1203.4a11.483,11.483,0,0,0-5.217.791c3.066-1.033,6.787.888,7.4-.183.654-1.15,3.628-3.371,3.741-3.455C2090.239,1201.581,2088.444,1203.567,2086.82,1203.4Z" transform="translate(-2075.969 -1193.874)" fill="#ea6c2d"/>
            <path id="Path_537" data-name="Path 537" d="M2069.6,1241.5c.091-.04.2-.1.34-.172C2069.83,1241.38,2069.718,1241.437,2069.6,1241.5Z" transform="translate(-2065.152 -1230.632)" fill="#95c38b"/>
            <g id="Group_389" data-name="Group 389" transform="translate(3.878 2.888)">
              <path id="Path_538" data-name="Path 538" d="M2072.7,1169.3h0c-.6-2.278-2.692-4.011-4.338-5.063a42.312,42.312,0,0,0-4.248-2.239.247.247,0,0,0-.335.313l.21.55a2.019,2.019,0,0,0,1.206,1.183c1.708.61,5.462,2.232,6.691,5.084C2072.021,1169.45,2072.806,1169.707,2072.7,1169.3Z" transform="translate(-2063.759 -1161.975)" fill="#82b378"/>
            </g>
          </g>
          <path id="Path_539" data-name="Path 539" d="M1937.318,1927.008a7.114,7.114,0,0,1-5.8.809s-2.829-.645-3.45.766c0,0,4.339,2.2,5.437,2.807a13.144,13.144,0,0,1,2.3,1.726,1.138,1.138,0,0,0,1.648-.127c.191-.235.41-.514.649-.839.669-.906,2.228-3.835,2.228-3.835Z" transform="translate(-1928.069 -1839.45)" fill="#233862"/>
          <path id="Path_540" data-name="Path 540" d="M2008.438,1543.041s1.395,3.216,4.614,2.625a89.837,89.837,0,0,0,11.075-11.06,25.028,25.028,0,0,0,3.441-5.378c2.988-6.918,11.052-17.235,16.18-22.465l-12.828-4.641s-4.109,8.266-9.576,18.419C2017.4,1527.856,2012.759,1536.151,2008.438,1543.041Z" transform="translate(-2000.533 -1456.355)" fill="#2b478b"/>
          <path id="Path_541" data-name="Path 541" d="M2139.64,1520.541l2.783,14.065a25.033,25.033,0,0,0,3.441-5.378c2.988-6.918,11.052-17.235,16.18-22.465l-12.828-4.641S2145.107,1510.388,2139.64,1520.541Z" transform="translate(-2118.83 -1456.355)" fill="#233862"/>
          <path id="Path_542" data-name="Path 542" d="M2202.677,1933.087s.14,2.566-2.97,2.908c0,0-1.778.009-1.783,1.643l9.04.029a7.034,7.034,0,0,0,.326-2.07,16.166,16.166,0,0,0-1.05-3.916Z" transform="translate(-2171.382 -1843.663)" fill="#233862"/>
          <path id="Path_543" data-name="Path 543" d="M2190.3,1496.9s-5.715,6.28-9.343,17.593c-1.974,6.155,3.618,21.631,4.708,27.009a17.14,17.14,0,0,0,6.315-.673,124.416,124.416,0,0,0-1.3-19.666c-.84-4.791,7.524-10.246,11.179-18.9,2.486-5.889-.538-5.789-4.255-5.93Z" transform="translate(-2155.707 -1451.136)" fill="#2b478b"/>
          <path id="Path_544" data-name="Path 544" d="M2346.852,1146.241c3.179,1.8,9.689.14,9.689.14a9.067,9.067,0,0,1-1.442-7.889l-2.5,1.268-2.682,1.362a22.264,22.264,0,0,0-.294,2.4c-.031.4-.058.842-.077,1.327A8.339,8.339,0,0,0,2346.852,1146.241Z" transform="translate(-2305.661 -1128.49)" fill="#ffb07b"/>
          <path id="Path_545" data-name="Path 545" d="M2228.314,1231c0,.559.644.826.781.854,1.282.234,4.863,1.627,8.089,1.947a25.867,25.867,0,0,0,8.009-.542c.367-.074,1.228-.306,1.289-.657.076-.384,10.686-21.629,2.438-30.755-.194-.214-1.822.172-3.311.525a6.111,6.111,0,0,1-3.762-.307l-1.4.735c-1.715.956-4.959,4.35-5.339,7.014-.193,1.355-.967,2.358-1.191,3.549q-.125.661-.255,1.291-.254,1.234-.523,2.351c-.485,2.015-1,3.749-1.5,5.247-.535,1.591-1.06,2.914-1.529,4.021-.608,1.435-1.122,2.508-1.443,3.329A4.1,4.1,0,0,0,2228.314,1231Z" transform="translate(-2198.782 -1185.562)" fill="#2a4e96"/>
          <path id="Path_546" data-name="Path 546" d="M2231.941,1295.7a41.687,41.687,0,0,0,20.164-20.606s-12.169,4.489-15.17,5.657q-.253,1.235-.522,2.351c-.485,2.015-1,3.749-1.5,5.247-.535,1.591-1.06,2.914-1.529,4.021C2232.776,1293.808,2232.262,1294.88,2231.941,1295.7Z" transform="translate(-2202.052 -1251.659)" fill="#1e3d70"/>
          <g id="Group_391" data-name="Group 391" transform="translate(15.436 19.388)">
            <path id="Path_547" data-name="Path 547" d="M2089.3,1438.959a11.5,11.5,0,0,0-2.56-.785c-.478.068-1.8-.263-1.727.171.052.3,1.761.615,1.761.615s-1.908-.429-1.761.017a4.111,4.111,0,0,0,1.138,1.929c.755.478,2.122.247,3.724.016C2092.816,1440.495,2089.3,1438.959,2089.3,1438.959Z" transform="translate(-2085.005 -1418.032)" fill="#ffb07b"/>
            <path id="Path_548" data-name="Path 548" d="M2125.633,1256.322c-.479-1.249-.7-1.814-.7-1.814s9.78-7.971,10.776-8.655c.679-.466,7.439-5.519,10.735-9.457a6.9,6.9,0,0,1,6.705-2.323l2.053.431a3.053,3.053,0,0,1,1.361,5.306c-5.416,4.643-14.55,10.028-16.253,11.148-4.228,2.781-13.58,6.677-13.58,6.677A2.408,2.408,0,0,1,2125.633,1256.322Z" transform="translate(-2121.009 -1233.926)" fill="#2a4e96"/>
          </g>
          <path id="Path_549" data-name="Path 549" d="M2375.062,1155.146a6.692,6.692,0,0,0,5.16-2.406,24.813,24.813,0,0,1-2.185-1.359l-2.682,1.362A22.264,22.264,0,0,0,2375.062,1155.146Z" transform="translate(-2331.096 -1140.112)" fill="#ea8e50"/>
          <path id="Path_550" data-name="Path 550" d="M2359,1083.906s4.738,3.4,6.81.417,4.078-4.553,1.141-6.85-4.322-1.571-5.256-.744S2357.821,1082.945,2359,1083.906Z" transform="translate(-2316.367 -1072.082)" fill="#ffb07b"/>
          <path id="Path_551" data-name="Path 551" d="M2383.694,1038.764a7.627,7.627,0,0,1,.552-1.953s.3,1.231,2.548,1.062,5.818.221,7.007,2.786c.075.163.143.331.2.5a5.929,5.929,0,0,0,.267-1.421,4.381,4.381,0,0,1,0,2.485h0c.007.04.012.081.018.121a5.012,5.012,0,0,1,.914,1.725,1.562,1.562,0,0,0-.841-.748c.01,2-.8,3.947-2.22,4.528-2.077.849-2.061.2-4.15,1.587,0,0-.561-.7-.178-1.162s1.826-1.147,1.019-1.826-1.1.085-1.4-.382,1.189-1.826-.722-3.1S2383.524,1039.91,2383.694,1038.764Z" transform="translate(-2338.866 -1036.81)" fill="#233862"/>
        </g>
        <g id="Group_395" data-name="Group 395" transform="translate(33.889 8.472)">
          <path id="Path_552" data-name="Path 552" d="M911.739,460.751c-.008-.225-.182-2.647-3.872-2.774,0,0,1.814.216,2.128,1.014,0,0-1.235-.986-2.242-.669s-1.6,2.08-1.6,2.659.553,2.449,1.192,2.608a1.949,1.949,0,0,0,.773,0,8.717,8.717,0,0,0-.5.885c-1.472,3.022.046,5.976,1.293,5.65.8-.209,1.026,1.155,1.026,1.155l7.766-6.287S914.852,459.09,911.739,460.751Z" transform="translate(-893.412 -457.977)" fill="#2c3a64"/>
          <path id="Path_553" data-name="Path 553" d="M866.125,921.508l-1.65.614s-7.165-9.937-8.047-18.681a13.281,13.281,0,0,1,.236-4.47s-.07-.4-.193-1.107c-.057-.33-.127-.727-.206-1.182-.233-1.335-.554-3.161-.92-5.24-.843-4.785-1.935-10.9-2.784-15.4l.444-.143,4.809-1.552.994-3.157,3.581-.943s.8,1.565,1.515,8.957c.132.97.252,2.039.342,3.2a63.294,63.294,0,0,1-.341,12.949q-.246,1.927-.629,3.974a17.724,17.724,0,0,0-.137,3.924C863.5,910.4,866.125,921.508,866.125,921.508Z" transform="translate(-845.094 -829.699)" fill="#2b478b"/>
          <path id="Path_554" data-name="Path 554" d="M864.248,882.4l-7.776,15.46c-.057-.33-.127-.727-.206-1.182-.233-1.335-.554-3.161-.92-5.24-.843-4.785-1.935-10.9-2.784-15.4l.444-.143,4.809-1.552.994-3.157,3.581-.943s.8,1.565,1.515,8.957C864.038,880.176,864.158,881.245,864.248,882.4Z" transform="translate(-845.094 -829.699)" fill="#233862"/>
          <path id="Path_555" data-name="Path 555" d="M794.942,855.748l-.18-1.544c-3.016.8-11.074-2.238-11.074-2.238s-2.922,2.568-2.538,8.724c.187,3,.529,15.773.887,19.552.129,1.369.242,2.344.288,2.733a.008.008,0,0,1,0,0,.539.539,0,0,1-.088.334,17.751,17.751,0,0,0-1.319,2.773c-3.506,9.343.54,20.849.54,20.849l1.05-.423s2.3-12.8,4.173-18.461a11.209,11.209,0,0,1,.9-2.164,24.432,24.432,0,0,0,2.254-6.009,147.774,147.774,0,0,0,3.031-15.942C792.963,863.94,794.942,855.748,794.942,855.748Z" transform="translate(-779.209 -813.214)" fill="#2b478b"/>
          <path id="Path_556" data-name="Path 556" d="M1154.013,841.335c-.649.574-2.372-1.4-2.609-1.66a.153.153,0,0,0-.025-.037l.524-1.461s2.26-.087,2.634.287A2.931,2.931,0,0,1,1154.013,841.335Z" transform="translate(-1114.521 -800.773)" fill="#ffb27d"/>
          <path id="Path_557" data-name="Path 557" d="M994.129,681.653l-.225,1.511s-.1,0-.275-.012c-.549-.037-1.885-.112-3.4-.275-2.272-.225-4.969-.624-6.042-1.286-1.635-1-4.319-4.057-6.067-7.116a1.989,1.989,0,0,1-.125-.225,10.982,10.982,0,0,1-1.6-4.519,6.454,6.454,0,0,1,.212-2.047,5.221,5.221,0,0,1,.924-1.848.928.928,0,0,1,.175-.212,4.311,4.311,0,0,1,1.186-1.011c.3-.125.624.025.961.387v.013a5.726,5.726,0,0,1,.861,1.273c.013.013.025.025.025.037.062.112.125.237.2.374a.313.313,0,0,1,.05.088q.206.431.412.9c1.536,3.346,3.171,8.414,4.532,9.925.587.649,3.271,1.922,5.405,2.871C992.881,681.154,994.129,681.653,994.129,681.653Z" transform="translate(-956.746 -644.249)" fill="#ffb27d"/>
          <path id="Path_558" data-name="Path 558" d="M903.046,597.147a9.388,9.388,0,0,1-3.473.813c-5.185.284-6.362-4.261-6.576-7.278a4.346,4.346,0,0,1,1.779-.225c.368.02.751.058,1.068.1.634-.331,1.774-1.941,2.432-4.633l.224.1,3.741,1.759s-.4,1.218-.691,2.382a4.742,4.742,0,0,0-.256,2.039c.295.12.471.2.471.2a.01.01,0,0,0,0,0A25.68,25.68,0,0,1,903.046,597.147Z" transform="translate(-881.552 -573.338)" fill="#ffb27d"/>
          <path id="Path_559" data-name="Path 559" d="M826.615,641.222c-.039.1-.082.2-.129.308-1.313,2.828-3.744,14.544-3.744,14.544.346,2.106-15.83-.414-15.872-2.331-.57-2.034,2.022-5.3,3.483-6.94a4.65,4.65,0,0,0,.49-.66,4.6,4.6,0,0,0,.663-1.934,66.833,66.833,0,0,0,.2-6.816h0c.286-.211.562-.407.819-.593a7.312,7.312,0,0,0,1-.827,1.509,1.509,0,0,0,.478-.941,5.007,5.007,0,0,0-.02-.789c-.012-.125-.028-.25-.047-.376a10.7,10.7,0,0,0-.751-2.509,9.722,9.722,0,0,1,3.865-.228s0,.137,0,.362a13.46,13.46,0,0,0,.289,3.663c.362.547,6.99,2.943,7.34,2.2s-.6-4.149-.634-4.279a.009.009,0,0,1,0,0,10.45,10.45,0,0,1,3.013,1.6C825.713,635.544,827.65,638.478,826.615,641.222Z" transform="translate(-803.824 -614.01)" fill="#f99746"/>
          <path id="Path_560" data-name="Path 560" d="M952.683,588.744s-.4,1.216-.691,2.382c-2.187-.61-2.851-2.909-3.051-4.141Z" transform="translate(-931.994 -574.296)" fill="#ed985f"/>
          <path id="Path_561" data-name="Path 561" d="M950.3,530.731s-5.232-1.211-4.428-4.458.671-5.59,4.045-4.954,3.714,2.035,3.709,3.184S951.686,530.963,950.3,530.731Z" transform="translate(-929.155 -514.996)" fill="#ffb27d"/>
          <path id="Path_562" data-name="Path 562" d="M941.869,517.236c-.562-1.177-1.224-1.114-1.639-.905a3.753,3.753,0,0,0-4.87-.416,6.39,6.39,0,0,1-2.94,3.158s.8.823,3.133.8a3.835,3.835,0,0,0,2.078-.782,12.527,12.527,0,0,1-2.728,2.035c2.916-.558,4.872-3.934,5.072-4.293a4.208,4.208,0,0,1,.759,1.8c.054.891-.253,2.622.258,2.687C940.994,521.322,942.713,519,941.869,517.236Z" transform="translate(-917.099 -509.571)" fill="#2c3a64"/>
          <path id="Path_563" data-name="Path 563" d="M1004.953,668.086s1.26,2.2,1.448,2.763a2.625,2.625,0,0,0-2.293,1.194S1003.95,668.382,1004.953,668.086Z" transform="translate(-981.726 -647.42)" fill="#f99746"/>
          <path id="Path_564" data-name="Path 564" d="M855.544,697.441c-3.191-.034-5.892-3.347-7.543-5.995a4.6,4.6,0,0,0,.663-1.934,66.829,66.829,0,0,0,.2-6.816h0c.286-.211.562-.407.819-.593a7.307,7.307,0,0,0,1-.827C853.294,685.693,859.87,697.487,855.544,697.441Z" transform="translate(-840.982 -659.314)" fill="#ed7d2b"/>
          <path id="Path_565" data-name="Path 565" d="M784.995,1376.624h-8.308a4.562,4.562,0,0,1,.235-2.227c.416-.922,1.067-1.341.911-2.456a2.992,2.992,0,0,0,2.59.991,9.116,9.116,0,0,0,1.442,1.869C782.406,1375.191,784.827,1375.052,784.995,1376.624Z" transform="translate(-776.641 -1282.045)" fill="#233862"/>
          <path id="Path_566" data-name="Path 566" d="M965.976,1380.041h-8.308a3.453,3.453,0,0,1,.235-2.227,1.6,1.6,0,0,0-.06-1.912,3.227,3.227,0,0,0,1.4.263,2.924,2.924,0,0,0,1.236-.435,29.934,29.934,0,0,0,2.367,2.487C963.388,1378.607,965.809,1378.468,965.976,1380.041Z" transform="translate(-939.783 -1285.462)" fill="#233862"/>
          <g id="Group_394" data-name="Group 394" transform="translate(27.138 27.617)">
            <g id="Group_393" data-name="Group 393" transform="translate(6.953)">
              <path id="Path_567" data-name="Path 567" d="M1123.65,746.384l-.407-.1a14.428,14.428,0,0,1,5.723-5.982,17.08,17.08,0,0,1,3.664-1.536.381.381,0,0,1,.354.082l.376.331a.321.321,0,0,1-.122.545C1131.413,740.251,1125.689,742.192,1123.65,746.384Z" transform="translate(-1123.243 -738.752)" fill="#2b478b"/>
            </g>
            <path id="Path_568" data-name="Path 568" d="M1052.756,795.7c1.272-5.158,4.178-4.441,7.763-3.557s6.491,1.6,5.219,6.759a6.689,6.689,0,1,1-12.982-3.2Z" transform="translate(-1052.548 -786.332)" fill="#f46c0f"/>
            <path id="Path_569" data-name="Path 569" d="M1074.168,802.4a2.553,2.553,0,0,1,2.173-2.011c.893,0,1.437.921,1.437,1.814a2.156,2.156,0,0,1-1.994,1.814A1.616,1.616,0,0,1,1074.168,802.4Z" transform="translate(-1072.041 -794.325)" fill="#ff9045"/>
          </g>
          <path id="Path_570" data-name="Path 570" d="M872.28,656.407l-.437,1.6s-.549-.1-1.423-.262c-.262-.05-.412-.087-.412-.087-.7-.137-1.536-.325-2.447-.524h-.012c-1.56-.375-3.308-.824-4.781-1.323a13.139,13.139,0,0,1-2.547-1.136,1.522,1.522,0,0,1-.175-.125c-1.461-1.061-3.2-4.182-4.544-7.528-.187-.462-.362-.924-.537-1.373a34.153,34.153,0,0,1-1.423-4.744,13.41,13.41,0,0,1-.337-2.26,5.522,5.522,0,0,1-.013-.637c.025-3.62,1.823-4.12,1.823-4.12.037-.013.075-.025.125-.037.312-.05.637.162.974.574a11.341,11.341,0,0,1,1.336,2.359c.711,1.61,1.461,3.7,2.16,5.768.387,1.136.762,2.272,1.136,3.321.212.637.424,1.236.624,1.785a17.185,17.185,0,0,0,1.049,2.434,6.048,6.048,0,0,0,1.536,1.386,55.882,55.882,0,0,0,4.944,3.071c.7.4,1.361.762,1.91,1.061C871.694,656.1,872.28,656.407,872.28,656.407Z" transform="translate(-845.658 -616.544)" fill="#ffb27d"/>
          <path id="Path_571" data-name="Path 571" d="M857.45,636.846a4.7,4.7,0,0,0-4.257,1.214c.03-3.614,1.829-4.109,1.829-4.109C855.746,633.651,856.585,634.9,857.45,636.846Z" transform="translate(-845.663 -616.603)" fill="#f99746"/>
          <path id="Path_572" data-name="Path 572" d="M1043.3,855.569a2.765,2.765,0,0,0,1.227-.254,5.239,5.239,0,0,1,2.266-.579.225.225,0,0,1,.135.283c-.074.2-1,.357-1,.727a7.1,7.1,0,0,0,1.5-.185,4.185,4.185,0,0,1,1.933.345c.259.153-1.687,1.325-2.549,1.8s-3.955-.538-3.955-.538Z" transform="translate(-1016.676 -815.706)" fill="#ffb27d"/>
        </g>
        <g id="Group_399" data-name="Group 399" transform="translate(17.76 103.051)">
          <g id="Group_398" data-name="Group 398" transform="translate(3.719 2.824)">
            <g id="Group_396" data-name="Group 396" transform="translate(29.886)">
              <path id="Path_573" data-name="Path 573" d="M962.875,1501.4a.608.608,0,0,1-.574-.546l-2.811-18.485-4.044-26.585-1.131-7.434,2.88-.1.5,4.315L961.2,1482.9l2.08,17.976A.45.45,0,0,1,962.875,1501.4Z" transform="translate(-954.315 -1448.26)" fill="#fcecdb"/>
            </g>
            <g id="Group_397" data-name="Group 397">
              <path id="Path_574" data-name="Path 574" d="M659.438,1448.355l-1.282,8.425h0l-3.54,23.273-3.165,20.8a.607.607,0,0,1-.573.546.449.449,0,0,1-.409-.526l2.729-23.585,2.919-25.227.441-3.806Z" transform="translate(-650.465 -1448.26)" fill="#fcecdb"/>
            </g>
            <path id="Path_575" data-name="Path 575" d="M709.965,1456.781c.168-3.621-2.039-4.715-2.039-4.715l.441-3.806,2.88.1Z" transform="translate(-702.274 -1448.26)" fill="#efcbab"/>
            <path id="Path_576" data-name="Path 576" d="M957.7,1452.575a4.806,4.806,0,0,0-2.249,3.214l-1.131-7.434,2.88-.1Z" transform="translate(-924.429 -1448.26)" fill="#efcbab"/>
          </g>
          <path id="Rectangle_211" data-name="Rectangle 211" d="M1.459,0H44.837A1.459,1.459,0,0,1,46.3,1.459v0a1.459,1.459,0,0,1-1.459,1.459H1.459A1.459,1.459,0,0,1,0,1.459v0A1.459,1.459,0,0,1,1.459,0Z" fill="#fcecdb"/>
        </g>
        <path id="Path_577" data-name="Path 577" d="M2422.863,1879.683h-10.645c-.571-.484.395-1.583,1.4-1.657a6.219,6.219,0,0,1,1.625.192c.146-1.945.983-10.692,4.136-10.34,3.545.393,0,3.852-1,5.9a48.673,48.673,0,0,0-1.883,4.718c.288.062.586.123.89.179.47-1.443,2.218-6.3,4.441-6.012,2.61.331,1.561,2.277-.289,3.431-1.357.849-3.024,2.056-3.816,2.639a11.314,11.314,0,0,0,2.082.167A4.488,4.488,0,0,1,2422.863,1879.683Z" transform="translate(-2217.302 -1720.722)" fill="#82b378"/>
        <path id="Path_578" data-name="Path 578" d="M432.623,1879.683h10.645c.57-.484-.395-1.583-1.4-1.657a6.219,6.219,0,0,0-1.625.192c-.146-1.945-.983-10.692-4.136-10.34-3.545.393,0,3.852,1,5.9a48.648,48.648,0,0,1,1.883,4.718c-.288.062-.586.123-.89.179-.47-1.443-2.218-6.3-4.441-6.012-2.61.331-1.561,2.277.289,3.431,1.357.849,3.024,2.056,3.816,2.639a11.317,11.317,0,0,1-2.082.167A4.487,4.487,0,0,0,432.623,1879.683Z" transform="translate(-432.094 -1720.722)" fill="#82b378"/>
        <g id="Group_402" data-name="Group 402" transform="translate(98.48 121.702)">
          <path id="Path_579" data-name="Path 579" d="M1433.568,1634.059a37.638,37.638,0,0,0,1.666,5.985c5.041,13.28,15.547,10.417,25.8,10.417,11.578,0,11.556-7.755,11.556-18.239s-6.414-18.814-17.992-18.814S1431.521,1623.777,1433.568,1634.059Z" transform="translate(-1433.33 -1612.992)" fill="#ffb93e"/>
          <g id="Group_401" data-name="Group 401" transform="translate(9.104)">
            <path id="Path_580" data-name="Path 580" d="M1563.091,1631.817c.072-10.621-7.651-19.154-17.962-21.986-10.522-2.89-19.261,4.179-19.244,14.48.016,10.348,8.936,20.6,19.609,21.974C1555.816,1647.617,1563.021,1642.147,1563.091,1631.817Z" transform="translate(-1525.885 -1609.179)" fill="#ffa412"/>
            <path id="Path_581" data-name="Path 581" d="M1570.661,1639.549c.068-10.092-7.27-18.2-17.068-20.891-10-2.746-18.3,3.971-18.285,13.759.016,9.832,8.491,19.571,18.632,20.879C1563.748,1654.563,1570.594,1649.365,1570.661,1639.549Z" transform="translate(-1534.381 -1617.168)" fill="#ffda9f"/>
            <g id="Group_400" data-name="Group 400" transform="translate(3.134 3.195)">
              <path id="Path_582" data-name="Path 582" d="M1642.526,1654.941l2.868-10.792a1.682,1.682,0,0,0-1.283-1.939,22.66,22.66,0,0,0-8.43-.279,1.148,1.148,0,0,0-.656,1.837l6.616,11.154C1641.878,1655.322,1642.421,1655.333,1642.526,1654.941Z" transform="translate(-1627.224 -1641.666)" fill="#ffb93e"/>
              <path id="Path_583" data-name="Path 583" d="M1735.849,1775.394l10.751,6.719a1.162,1.162,0,0,0,1.871-.635,21.6,21.6,0,0,0,.388-3.992,27.1,27.1,0,0,0-.394-4.548,1.6,1.6,0,0,0-1.836-1.316l-10.791,2.871C1735.451,1774.6,1735.458,1775.15,1735.849,1775.394Z" transform="translate(-1718.063 -1758.805)" fill="#ffb93e"/>
              <path id="Path_584" data-name="Path 584" d="M1725.432,1679.213l10.633-2.828a1.222,1.222,0,0,0,.509-1.96,30.461,30.461,0,0,0-2.764-3.546,34.242,34.242,0,0,0-3.587-3.4,1.173,1.173,0,0,0-1.941.346l-3.525,10.66A.6.6,0,0,0,1725.432,1679.213Z" transform="translate(-1708.31 -1664.623)" fill="#ffb93e"/>
              <path id="Path_585" data-name="Path 585" d="M1721.235,1815.448l3.289,11.874a1.625,1.625,0,0,0,1.963,1.187,17.829,17.829,0,0,0,3.38-1.638,19.289,19.289,0,0,0,3.193-2.534,1.424,1.424,0,0,0-.432-2.11L1721.919,1815C1721.536,1814.741,1721.115,1815.016,1721.235,1815.448Z" transform="translate(-1705.136 -1797.86)" fill="#ffb93e"/>
              <path id="Path_586" data-name="Path 586" d="M1571.238,1675.452l-7.184-10.639a1.417,1.417,0,0,0-2.121-.44,17.347,17.347,0,0,0-2.3,2.928,20.676,20.676,0,0,0-1.812,3.755,1.6,1.6,0,0,0,1.146,1.948l11.849,3.158C1571.238,1676.274,1571.5,1675.838,1571.238,1675.452Z" transform="translate(-1557.749 -1661.852)" fill="#ffb93e"/>
              <path id="Path_587" data-name="Path 587" d="M1571.072,1778.192l-11.7-2.035a1.108,1.108,0,0,0-1.29,1.434,27.225,27.225,0,0,0,1.332,4.121,32.815,32.815,0,0,0,2.211,4.336,1.39,1.39,0,0,0,2.068.514l7.764-7.484C1571.732,1778.811,1571.5,1778.266,1571.072,1778.192Z" transform="translate(-1558.009 -1762.91)" fill="#ffb93e"/>
              <path id="Path_588" data-name="Path 588" d="M1641.416,1814.06l-6.311,8.632a1.546,1.546,0,0,0,.682,2.141,27.564,27.564,0,0,0,3.95,1.81,28.288,28.288,0,0,0,4.476,1.206,1.073,1.073,0,0,0,1.244-1.415l-3.154-12.067C1642.191,1813.935,1641.646,1813.747,1641.416,1814.06Z" transform="translate(-1627.303 -1796.963)" fill="#ffb93e"/>
            </g>
          </g>
        </g>
        <g id="Group_403" data-name="Group 403" transform="translate(58.108 85.242)">
          <path id="Path_589" data-name="Path 589" d="M1386.678,1265.648a29.367,29.367,0,0,0-4.4,2.151c-1.985,2.2-1.419,5.076-.283,5.1.729.018.587,1.229.587,1.229l8.116-3.433S1389.721,1265,1386.678,1265.648Z" transform="translate(-1345.742 -1262.93)" fill="#2c3a64"/>
          <path id="Path_590" data-name="Path 590" d="M1345.431,1241.654a2.907,2.907,0,0,0-3.243-3.162,4.148,4.148,0,0,1,1.624.871,4.178,4.178,0,0,0-4.705.71c-2.452,2.033-.929,7.13-1.674,8.1s-3.65,1.161-3.294,4.291,9.216,7.049,8.647,9.639c0,0,3.473-5.1.99-7.434a4.6,4.6,0,0,1,1.334,2.5s.328-2.646-1.355-3.492a6.214,6.214,0,0,1-2.581-3.977C1341.3,1249.2,1345.431,1241.654,1345.431,1241.654Z" transform="translate(-1303.496 -1238.492)" fill="#2c3a64"/>
          <path id="Path_591" data-name="Path 591" d="M1360.368,1398.773a3.137,3.137,0,0,0-5.556-1.294,2.84,2.84,0,0,0-.559,1.378c-.367,2.978,4.394,15.106,5.076,16.2,1.241,2,8.551,8.853,8.551,8.853l1.347-.817s-5.184-8.777-5.987-9.6C1362.311,1412.549,1361.4,1403.754,1360.368,1398.773Z" transform="translate(-1321.641 -1380.736)" fill="#ed985f"/>
          <path id="Path_592" data-name="Path 592" d="M1487.765,1658.113s1.966-1.291,2.71-1.208,2.9.7,2.925,1.02-2.4.514-2.563.688-1.811,1.273-2.408.928S1487.765,1658.113,1487.765,1658.113Z" transform="translate(-1442.039 -1615.747)" fill="#ed985f"/>
          <path id="Path_593" data-name="Path 593" d="M1164.951,1559.4l-1.756-.258a20.765,20.765,0,0,1-6.785-13.45,15.655,15.655,0,0,1-.042-2.708.474.474,0,0,0-.061-.3l0,0c-.189-.29-.659-1.016-1.3-2.048-.628-1.017-1.7-2.94-2.884-5.1-2.13-3.886-4.609-8.533-5.459-10.013-2.709-4.718-1.4-7.89-1.4-7.89s7.559-.747,9.63-2.559l.746,1.15s1.638,7.25,1.56,7.284l.246.753a126.036,126.036,0,0,1,3.59,13.036,21.552,21.552,0,0,1,.567,5.632,9.873,9.873,0,0,0,.134,2.063C1162.465,1550.193,1164.951,1559.4,1164.951,1559.4Z" transform="translate(-1132.939 -1487.868)" fill="#f99746"/>
          <path id="Path_594" data-name="Path 594" d="M1318.25,1950.945h-7.328a4.022,4.022,0,0,1,.207-1.964c.367-.813.889-.839.067-2.113a4.462,4.462,0,0,0,3.022.535,8.977,8.977,0,0,0,1.271,1.934C1315.967,1949.681,1318.1,1949.559,1318.25,1950.945Z" transform="translate(-1282.553 -1877.193)" fill="#233862"/>
          <path id="Path_595" data-name="Path 595" d="M1157.443,1524.259c-.64,3.53-2.152,9.406-5.32,11.276-2.13-3.886-4.609-8.533-5.459-10.013-2.709-4.718-1.4-7.89-1.4-7.89s7.559-.747,9.63-2.559l.746,1.15s1.638,7.25,1.56,7.284Z" transform="translate(-1132.939 -1487.868)" fill="#ed7d2b"/>
          <path id="Path_596" data-name="Path 596" d="M1371.914,1405.329a7.846,7.846,0,0,1,1.509,2.368s-1.653,4.746-5.515,5.341C1367.908,1413.038,1370.964,1405.327,1371.914,1405.329Z" transform="translate(-1333.971 -1388.919)" fill="#2a4e96"/>
          <path id="Path_597" data-name="Path 597" d="M1051.142,1504.158l.025-1.371c-2.731.344-9.415-3.263-9.415-3.263s-2.857,1.9-3.248,7.326c-.191,2.648-1.4,13.849-1.532,17.194-.049,1.212-.065,2.077-.07,2.423a.006.006,0,0,1,0,0,.476.476,0,0,1-.116.282,15.646,15.646,0,0,0-1.48,2.268c-4.167,7.752-1.988,18.286-1.988,18.286l.968-.246s3.523-10.92,5.826-15.644a9.868,9.868,0,0,1,1.043-1.785,21.561,21.561,0,0,0,2.679-4.987,130.361,130.361,0,0,0,4.53-13.576C1048.447,1511.084,1051.142,1504.158,1051.142,1504.158Z" transform="translate(-1031.778 -1473.849)" fill="#f99746"/>
          <path id="Path_598" data-name="Path 598" d="M1359.4,1357.2c-4.464-1.025-1.612-7.3-1.353-7.187.618-.126,1.977-1.212,3.192-3.333l.164.142,2.742,2.4s-.634.935-1.167,1.851a4.185,4.185,0,0,0-.714,1.666C1362.488,1352.917,1360.594,1357.475,1359.4,1357.2Z" transform="translate(-1324.06 -1336.04)" fill="#ffb27d"/>
          <path id="Path_599" data-name="Path 599" d="M1404.85,1350.54s-.634.934-1.167,1.851c-1.7-1.051-1.707-3.161-1.575-4.254Z" transform="translate(-1364.761 -1337.352)" fill="#ed985f"/>
          <path id="Path_600" data-name="Path 600" d="M1403.884,1306.818s-4.139-2.3-2.665-4.858,1.932-4.574,4.637-3.211,2.651,2.631,2.367,3.6S1405,1307.351,1403.884,1306.818Z" transform="translate(-1363.72 -1292.426)" fill="#ffb27d"/>
          <path id="Path_601" data-name="Path 601" d="M1404.935,1297.688c-.189-1.135-.766-1.243-1.168-1.167a3.31,3.31,0,0,0-4.026-1.541,5.635,5.635,0,0,1-3.262,1.959s.48.894,2.459,1.447a3.38,3.38,0,0,0,1.952-.156,11.043,11.043,0,0,1-2.809,1.059c2.608.239,5.089-2.145,5.346-2.4a3.709,3.709,0,0,1,.2,1.708c-.172.768-.854,2.16-.437,2.34C1403.2,1300.938,1405.219,1299.39,1404.935,1297.688Z" transform="translate(-1359.732 -1289.253)" fill="#2c3a64"/>
          <path id="Path_602" data-name="Path 602" d="M1030.241,1950.46h-7.328a4.024,4.024,0,0,1,.207-1.964c.367-.813.941-1.182.8-2.166a2.639,2.639,0,0,0,2.284.874,8.042,8.042,0,0,0,1.271,1.648C1027.959,1949.2,1030.094,1949.073,1030.241,1950.46Z" transform="translate(-1022.873 -1876.708)" fill="#233862"/>
          <path id="Path_603" data-name="Path 603" d="M1150.173,1381.628a17.823,17.823,0,0,1-3.62.656,24.474,24.474,0,0,0-4.958.77,1.12,1.12,0,0,0-.714.578,13.6,13.6,0,0,1-2.442,3.454c-12.76-.581-14.161-5.918-14.161-5.918,8.585-9.982,23.12-12.872,23.12-12.872s1.038-.44,3.653,1.638c1.745,1.387,1.515,1.92,1.515,1.92S1152.948,1380.66,1150.173,1381.628Z" transform="translate(-1114.304 -1355.493)" fill="#2a4e96"/>
          <path id="Path_604" data-name="Path 604" d="M1304.916,1415.708a24.466,24.466,0,0,0-4.958.77,20.319,20.319,0,0,1,2.577-11.151S1304.494,1413.3,1304.916,1415.708Z" transform="translate(-1272.667 -1388.917)" fill="#1e3d70"/>
          <path id="Path_605" data-name="Path 605" d="M1322.9,1392.809s-4.829.477-5.216,3.615,4.63,15.919,5.348,17.076c1.308,2.107,9.011,9.329,9.011,9.329l1.42-.86s-5.463-9.249-6.309-10.115C1325.822,1410.5,1324.533,1393.9,1322.9,1392.809Z" transform="translate(-1288.665 -1377.631)" fill="#ffb27d"/>
          <path id="Path_606" data-name="Path 606" d="M1310.009,1391.418c.013.071,4.457,1.452,7.317,0,0,0,.612-6.6-2.8-6.241s-5.436,1.434-5.522,3.068A5.775,5.775,0,0,0,1310.009,1391.418Z" transform="translate(-1280.853 -1370.737)" fill="#2a4e96"/>
          <path id="Path_607" data-name="Path 607" d="M1459.4,1673.729s1.732-1.591,2.48-1.629,2.974.227,3.051.535-2.286.895-2.419,1.092-1.582,1.548-2.227,1.3S1459.4,1673.729,1459.4,1673.729Z" transform="translate(-1416.464 -1629.448)" fill="#ffb27d"/>
        </g>
      </g>
    </g>
  </g>
</svg>
